<svg width="1440" height="320" viewBox="0 0 1440 320" fill="none" xmlns="http://www.w3.org/2000/svg">
<path d="M1437.5 160C1437.5 170.231 1432.85 180.438 1423.53 190.552C1414.21 200.679 1400.33 210.568 1382.26 220.066C1346.1 239.06 1293.63 256.24 1228.57 270.697C1098.51 299.601 918.696 317.5 720 317.5C521.304 317.5 341.494 299.601 211.425 270.697C146.371 256.24 93.8951 239.06 57.7439 220.066C39.6658 210.568 25.7922 200.679 16.4669 190.552C7.15393 180.438 2.5 170.231 2.5 160C2.5 149.769 7.15393 139.562 16.4669 129.448C25.7922 119.321 39.6658 109.432 57.7439 99.9339C93.8951 80.9404 146.371 63.76 211.425 49.3034C341.494 20.3992 521.304 2.5 720 2.5C918.696 2.5 1098.51 20.3992 1228.57 49.3034C1293.63 63.76 1346.1 80.9404 1382.26 99.9339C1400.33 109.432 1414.21 119.321 1423.53 129.448C1432.85 139.562 1437.5 149.769 1437.5 160Z" stroke="url(#paint0_linear_1163_20106)" stroke-width="5"/>
<defs>
<linearGradient id="paint0_linear_1163_20106" x1="720" y1="180.5" x2="720" y2="320" gradientUnits="userSpaceOnUse">
<stop stop-color="#DDE6FF" stop-opacity="0"/>
<stop offset="1" stop-color="#DDE6FF"/>
</linearGradient>
</defs>
</svg>
