<svg width="1438" height="182" viewBox="0 0 1438 182" fill="none" xmlns="http://www.w3.org/2000/svg">
<mask id="mask0_1166_20175" style="mask-type:alpha" maskUnits="userSpaceOnUse" x="0" y="0" width="1438" height="182">
<path d="M0 0H1438V182H0V0Z" fill="#D9D9D9"/>
</mask>
<g mask="url(#mask0_1166_20175)">
<g clip-path="url(#clip0_1166_20175)">
<path opacity="0.4" d="M2000.15 -462.006C1997.87 -463.331 1994.17 -463.331 1991.88 -462.006C1990.17 -461.011 1989.75 -459.557 1990.61 -458.342L1862.59 -384.432V-291.134L1831.4 -273.126V-171.653L1724.57 -109.97L1707.92 -119.581L1790.3 -167.142V-222.767L1789.97 -222.951L1696.3 -277.03V-295.903L1749.28 -326.487C1751.56 -325.529 1754.76 -325.64 1756.83 -326.818C1759.11 -328.144 1759.11 -330.28 1756.83 -331.587C1754.54 -332.913 1750.84 -332.913 1748.56 -331.587C1746.5 -330.39 1746.31 -328.549 1747.97 -327.223L1695 -296.64V-276.257L1695.33 -276.072L1788.99 -221.994V-167.878L1726.76 -131.936V-155.118L1755.3 -171.598C1757.58 -170.64 1760.78 -170.751 1762.85 -171.929C1765.13 -173.255 1765.13 -175.391 1762.85 -176.698C1760.56 -178.024 1756.86 -178.024 1754.58 -176.698C1752.52 -175.501 1752.33 -173.66 1753.99 -172.334L1725.45 -155.855V-131.163L1706.61 -120.3L1684.35 -133.152V-173.513L1726.33 -197.762V-225.658L1726 -225.842L1637.6 -276.883C1639.26 -278.208 1639.08 -280.05 1637.01 -281.247C1634.73 -282.572 1631.03 -282.572 1628.75 -281.247C1626.46 -279.921 1626.46 -277.785 1628.75 -276.478C1630.81 -275.281 1634.01 -275.189 1636.3 -276.146L1725.01 -224.921V-198.536L1684.33 -175.041V-202.863L1684 -203.047L1629.92 -234.275C1631.58 -235.601 1631.4 -237.442 1629.34 -238.639C1627.05 -239.965 1623.35 -239.965 1621.07 -238.639C1618.78 -237.313 1618.78 -235.177 1621.07 -233.87C1623.13 -232.673 1626.33 -232.581 1628.62 -233.539L1683.03 -202.126V-133.943L1667.39 -142.966L1641.63 -128.088L1618.31 -141.566V-174.305L1617.97 -174.489L1556.29 -210.099V-240.959C1557.56 -241.033 1558.8 -241.346 1559.77 -241.917C1562.05 -243.242 1562.05 -245.378 1559.77 -246.686C1557.49 -248.011 1553.79 -248.011 1551.5 -246.686C1549.22 -245.36 1549.22 -243.224 1551.5 -241.917C1552.48 -241.346 1553.71 -241.051 1554.98 -240.959V-209.344L1555.32 -209.16L1617 -173.55V-142.321L1516.61 -200.285V-261.729L1571.06 -293.16H1621.03L1621.18 -293.252L1706.93 -342.746C1709.21 -341.788 1712.41 -341.899 1714.48 -343.077C1716.76 -344.403 1716.76 -346.539 1714.48 -347.846C1712.19 -349.172 1708.49 -349.172 1706.21 -347.846C1704.15 -346.649 1703.96 -344.808 1705.62 -343.482L1620.68 -294.449H1573.32L1730.85 -385.39C1733.13 -384.432 1736.33 -384.543 1738.39 -385.721C1740.68 -387.047 1740.68 -389.183 1738.39 -390.49C1736.11 -391.816 1732.41 -391.816 1730.13 -390.49C1728.07 -389.293 1727.88 -387.452 1729.54 -386.126L1515.3 -262.447V-199.493L1515.64 -199.309L1640.35 -127.315L1615.25 -112.824L1402.32 -235.748V-309.105L1401.99 -309.289L1329.57 -351.087C1331.23 -352.412 1331.05 -354.254 1328.98 -355.45C1326.7 -356.776 1323 -356.776 1320.72 -355.45C1318.43 -354.125 1318.43 -351.989 1320.72 -350.681C1322.78 -349.485 1325.98 -349.393 1328.27 -350.35L1401 -308.35V-234.993L1401.33 -234.809L1613.92 -112.069L1590.02 -98.2777L1379.45 -219.858H1253.88L1175.4 -265.172V-334.81C1176.23 -334.975 1177.02 -335.233 1177.67 -335.601C1179.95 -336.927 1179.95 -339.063 1177.67 -340.37C1175.38 -341.696 1171.68 -341.696 1169.4 -340.37C1167.12 -339.045 1167.12 -336.909 1169.4 -335.601C1170.69 -334.865 1172.42 -334.552 1174.1 -334.644V-264.417L1174.43 -264.233L1253.55 -218.551H1379.12L1556.88 -115.917H1521.12L1460.45 -150.939H1413.72L1413.57 -150.846L1348.76 -113.432C1346.48 -114.389 1343.27 -114.279 1341.21 -113.1C1338.93 -111.774 1338.93 -109.638 1341.21 -108.331C1343.49 -107.005 1347.19 -107.005 1349.48 -108.331C1351.54 -109.528 1351.72 -111.369 1350.07 -112.695L1414.07 -149.65H1460.1L1520.77 -114.628H1559.15L1588.73 -97.5412L1524.95 -60.7154L1506.82 -71.1924V-98.6828L1460.75 -125.289C1462.4 -126.615 1462.22 -128.456 1460.16 -129.653C1457.87 -130.979 1454.17 -130.979 1451.89 -129.653C1449.61 -128.328 1449.61 -126.192 1451.89 -124.884C1453.95 -123.688 1457.16 -123.595 1459.44 -124.553L1505.51 -97.9463V-71.9657L1456.36 -100.34H1433.09L1432.94 -100.248L1405.21 -84.2287C1402.93 -85.1862 1399.73 -85.0757 1397.66 -83.8973C1395.38 -82.5716 1395.38 -80.4356 1397.66 -79.1283C1399.95 -77.8026 1403.65 -77.8026 1405.93 -79.1283C1407.99 -80.3252 1408.18 -82.1665 1406.52 -83.4922L1433.46 -99.0511H1456.01L1523.65 -60.0158L1511.36 -52.9268L1550.56 -30.2974L1532.21 -19.6916H1504.44L1484.57 -31.1628C1486.16 -32.4701 1485.94 -34.293 1483.91 -35.4714C1481.63 -36.7971 1477.93 -36.7971 1475.64 -35.4714C1473.36 -34.1457 1473.36 -32.0098 1475.64 -30.7025C1477.72 -29.5056 1480.98 -29.4136 1483.28 -30.4079L1504.09 -18.4027H1529.94L1483.12 8.62741L1372.97 -54.9706H1293.71L1293.56 -54.8786L1248.93 -29.119C1246.64 -30.0765 1243.44 -29.9659 1241.38 -28.7875C1239.09 -27.4618 1239.09 -25.3259 1241.38 -24.0186C1243.66 -22.6929 1247.36 -22.6929 1249.64 -24.0186C1251.71 -25.2154 1251.89 -27.0567 1250.23 -28.3824L1294.06 -53.6818H1372.6L1457.56 -4.62982H1421.2L1385.66 -25.1418C1387.32 -26.4675 1387.13 -28.3088 1385.07 -29.5056C1382.79 -30.8314 1379.09 -30.8314 1376.8 -29.5056C1374.52 -28.1799 1374.52 -26.044 1376.8 -24.7367C1378.86 -23.5399 1382.07 -23.4478 1384.35 -24.4052L1420.85 -3.32254H1459.83L1481.79 9.36398L1425.87 41.6418H1247.16L1108.31 -38.528C1109.96 -39.8537 1109.78 -41.6949 1107.72 -42.8918C1105.43 -44.2175 1101.73 -44.2175 1099.45 -42.8918C1097.17 -41.5661 1097.17 -39.4302 1099.45 -38.1229C1101.51 -36.926 1104.72 -36.834 1107 -37.7914L1246.81 42.9306H1423.61L1401.42 55.746H1269.12L1268.98 55.8381L1203.74 93.5108C1201.46 92.5533 1198.25 92.6638 1196.19 93.8422C1193.91 95.168 1193.91 97.3039 1196.19 98.6112C1198.47 99.9369 1202.17 99.9369 1204.46 98.6112C1206.52 97.4144 1206.7 95.573 1205.05 94.2473L1269.49 57.0533H1401.79L1401.94 56.9612L1551.87 -29.5977L1568.52 -19.9862L1410.88 71.0287H1295.6L1295.45 71.1207L1156.22 151.511H963.286L926 129.987V131.497L962.936 152.819H1156.55L1156.69 152.727L1244.08 102.275V132.141L1186.49 165.395C1184.2 164.437 1181 164.548 1178.94 165.726C1176.65 167.052 1176.65 169.188 1178.94 170.495C1181.22 171.821 1184.92 171.821 1187.21 170.495C1189.27 169.298 1189.45 167.457 1187.79 166.131L1245.39 132.878V101.686H1245.1L1295.95 72.3176H1411.23L1411.38 72.2255L1569.82 -19.2497L1588.73 -8.33084L1281.31 169.151V201.226H1282.62V169.906L1590.04 -7.5759L1613.41 5.92072L1454.84 97.4695V113.839L1426.72 130.079V167.733L1372.2 199.219C1369.92 198.262 1366.71 198.372 1364.65 199.551C1363.82 200.029 1363.29 200.619 1363.07 201.245H1374.46C1374.3 200.784 1373.99 200.361 1373.51 199.974L1428.03 168.488V130.834L1454.84 115.349V175.632L1470.65 184.765L1442.15 201.226H1444.76L1471.96 185.52L1499.16 201.226H1501.77L1456.13 174.877V98.2245L1614.7 6.67566L1635.96 18.9571L1523.74 83.752C1521.45 82.7945 1518.25 82.9049 1516.19 84.0834C1513.9 85.4091 1513.9 87.545 1516.19 88.8524C1518.47 90.1781 1522.17 90.1781 1524.46 88.8524C1526.52 87.6555 1526.7 85.8142 1525.04 84.4885L1637.27 19.6936L1657.8 31.5515L1523.55 109.051H1487.08C1486.86 108.425 1486.32 107.818 1485.48 107.32C1483.19 105.995 1479.49 105.995 1477.21 107.32C1474.92 108.646 1474.92 110.782 1477.21 112.089C1479.49 113.415 1483.19 113.415 1485.48 112.089C1486.32 111.592 1486.86 110.985 1487.08 110.359H1523.9L1524.05 110.267L1659.09 32.3064L1667.38 37.0938L1673.75 33.4112L1705.91 51.9897V77.8415L1679.34 93.1794V93.1057H1637.64L1637.49 93.1978L1591.74 119.62C1589.45 118.663 1586.25 118.773 1584.19 119.952C1581.9 121.277 1581.9 123.413 1584.19 124.721C1586.47 126.046 1590.17 126.046 1592.45 124.721C1594.52 123.524 1594.7 121.683 1593.04 120.357L1637.99 94.413H1677.19L1599.06 139.506C1596.76 138.475 1593.47 138.549 1591.35 139.764C1589.07 141.09 1589.07 143.226 1591.35 144.533C1593.63 145.859 1597.33 145.859 1599.62 144.533C1601.62 143.373 1601.86 141.587 1600.33 140.261L1697.78 84.0097V96.4384L1639.81 129.913V153.537L1592.62 180.788C1590.34 179.83 1587.13 179.941 1585.07 181.119C1582.79 182.445 1582.79 184.581 1585.07 185.888C1587.35 187.214 1591.05 187.214 1593.34 185.888C1595.4 184.691 1595.58 182.85 1593.93 181.524L1641.12 154.273V130.65L1699.08 97.175V83.2365L1707.2 78.5411V51.1796L1675.04 32.6194L1696.17 20.4117L1762.35 58.6184V102.054L1717.4 127.998C1715.1 126.967 1711.81 127.041 1709.69 128.256C1707.41 129.582 1707.41 131.718 1709.69 133.025C1711.97 134.351 1715.67 134.351 1717.96 133.025C1719.96 131.865 1720.2 130.079 1718.67 128.753L1762.33 103.546V138.641L1727.84 158.564V201.171H1729.15V159.318L1762.33 140.169V201.171H1763.64V57.8635L1697.46 19.6568L1721.2 5.95758L1807.7 55.8933V174.841L1849.28 198.851V201.189H1850.58V198.096L1809.01 174.086V55.1384L1722.5 5.20264L1740.09 -4.96124L1856.83 62.4299V163.903L1921.36 201.171H1923.98L1858.13 163.148V61.675L1741.4 -5.71619L1769.9 -22.1773L1964.14 89.9571V140.445L2030.7 178.873V177.363L1965.44 139.69V89.2022L1856.2 26.1196H1942.59L2030.7 76.9944V75.4846L1942.94 24.8123H1853.92L1771.21 -22.9322L1804.35 -42.0632L1875.44 -1.0209H1989.6L2030.7 22.6949V21.185L2021.7 15.9926H2030.7V14.6853H2019.43L1989.97 -2.32822H1875.81L1855.91 -13.8178H1904.44L1904.59 -13.9099L1928.93 -27.959H2030.37L2030.7 -27.7748V-29.2847H1931.2L1958.59 -45.1013C1960.88 -44.1439 1964.08 -44.2543 1966.14 -45.4328C1968.43 -46.7585 1968.43 -48.8944 1966.14 -50.2017C1963.86 -51.5274 1960.16 -51.5274 1957.88 -50.2017C1955.81 -49.0049 1955.63 -47.1636 1957.29 -45.8379L1904.07 -15.1068H1853.62L1805.64 -42.7997L1823.37 -53.0373L1811.95 -59.6291H1845.12L1888.46 -34.606C1886.8 -33.2803 1886.99 -31.439 1889.05 -30.2422C1891.33 -28.9164 1895.03 -28.9164 1897.32 -30.2422C1899.6 -31.5679 1899.6 -33.7038 1897.32 -35.0111C1895.25 -36.2079 1892.05 -36.3 1889.77 -35.3425L1845.47 -60.918H1809.69L1785.42 -74.9302L1800.34 -83.5474H1826.79L1850.07 -96.9888H1867.43L1906.65 -74.341C1904.88 -73.0152 1905.03 -71.1188 1907.13 -69.9035C1909.41 -68.5778 1913.11 -68.5778 1915.4 -69.9035C1917.68 -71.2292 1917.68 -73.3651 1915.4 -74.6724C1913.37 -75.8324 1910.26 -75.9613 1907.98 -75.0775L1867.78 -98.2777H1849.72L1826.45 -84.8363H1802.6L1850.31 -112.382H1876.07L1929.76 -81.3931H2030.68V-82.7004H1930.11L1876.42 -113.689H1849.96L1849.81 -113.597L1784.11 -75.6667L1766.88 -85.6097L1841.12 -128.475H1893.49L1936.68 -103.544H2030.7V-104.851H1937.05L1896.12 -128.475H2030.7V-129.782H1840.79L1840.64 -129.69L1765.61 -86.3646L1746.02 -97.6701L1849.53 -157.438H2030.7V-158.746H1898.68L2030.7 -234.975V-236.485L1896.06 -158.746H1850.49L1948.63 -215.402V-227.886L1995.6 -254.99C1997.89 -254.032 2001.09 -254.143 2003.15 -255.321C2005.44 -256.647 2005.44 -258.783 2003.15 -260.09C2000.87 -261.416 1997.17 -261.416 1994.89 -260.09C1992.82 -258.893 1992.64 -257.052 1994.3 -255.726L1968.72 -240.959V-275.189L2030.72 -310.983V-312.493L1967.41 -275.944V-240.204L1947.33 -228.604V-216.12L1848.37 -158.985L1848.71 -158.414L1744.71 -98.3698L1725.8 -109.289L1832.63 -170.972V-272.445L2030.7 -386.808V-388.317L1863.82 -291.963V-383.751L1991.55 -457.495C1991.65 -457.439 1991.72 -457.366 1991.81 -457.31C1994.09 -455.985 1997.8 -455.985 2000.08 -457.31C2002.36 -458.636 2002.36 -460.772 2000.08 -462.079L2000.15 -462.006ZM1820.85 -52.8716L1667.39 35.7312L1513.96 -52.8531L1667.41 -141.456L1820.85 -52.8716Z" fill="#EC963C"/>
<path opacity="0.4" d="M-559.152 -462.006C-556.869 -463.331 -553.168 -463.331 -550.885 -462.006C-549.172 -461.011 -548.749 -459.557 -549.614 -458.342L-421.589 -384.432V-291.134L-390.398 -273.126V-171.653L-283.567 -109.97L-266.921 -119.581L-349.3 -167.142V-222.767L-348.969 -222.951L-255.303 -277.03V-295.903L-308.277 -326.487C-310.56 -325.529 -313.764 -325.64 -315.826 -326.818C-318.109 -328.144 -318.109 -330.28 -315.826 -331.587C-313.543 -332.913 -309.842 -332.913 -307.559 -331.587C-305.496 -330.39 -305.312 -328.549 -306.969 -327.223L-253.995 -296.64V-276.257L-254.327 -276.072L-347.993 -221.994V-167.878L-285.758 -131.936V-155.118L-314.298 -171.598C-316.581 -170.64 -319.785 -170.751 -321.847 -171.929C-324.13 -173.255 -324.13 -175.391 -321.847 -176.698C-319.564 -178.024 -315.863 -178.024 -313.58 -176.698C-311.517 -175.501 -311.333 -173.66 -312.99 -172.334L-284.45 -155.855V-131.163L-265.614 -120.3L-243.353 -133.152V-173.513L-285.334 -197.762V-225.658L-285.003 -225.842L-196.603 -276.883C-198.26 -278.208 -198.076 -280.05 -196.013 -281.247C-193.73 -282.572 -190.029 -282.572 -187.746 -281.247C-185.463 -279.921 -185.463 -277.785 -187.746 -276.478C-189.808 -275.281 -193.012 -275.189 -195.295 -276.146L-284.008 -224.921V-198.536L-243.334 -175.041V-202.863L-243.003 -203.047L-188.924 -234.275C-190.581 -235.601 -190.397 -237.442 -188.335 -238.639C-186.052 -239.965 -182.351 -239.965 -180.068 -238.639C-177.785 -237.313 -177.785 -235.177 -180.068 -233.87C-182.13 -232.673 -185.334 -232.581 -187.617 -233.539L-242.027 -202.126V-133.943L-226.395 -142.966L-200.635 -128.088L-177.306 -141.566V-174.305L-176.974 -174.489L-115.291 -210.099V-240.959C-116.562 -241.033 -117.795 -241.346 -118.771 -241.917C-121.054 -243.242 -121.054 -245.378 -118.771 -246.686C-116.488 -248.011 -112.787 -248.011 -110.504 -246.686C-108.221 -245.36 -108.221 -243.224 -110.504 -241.917C-111.48 -241.346 -112.713 -241.051 -113.984 -240.959V-209.344L-114.315 -209.16L-175.998 -173.55V-142.321L-75.6115 -200.285V-261.729L-130.058 -293.16H-180.031L-180.178 -293.252L-265.927 -342.746C-268.21 -341.788 -271.414 -341.899 -273.476 -343.077C-275.759 -344.403 -275.759 -346.539 -273.476 -347.846C-271.193 -349.172 -267.492 -349.172 -265.209 -347.846C-263.147 -346.649 -262.963 -344.808 -264.62 -343.482L-179.681 -294.449H-132.323L-289.845 -385.39C-292.128 -384.432 -295.332 -384.543 -297.395 -385.721C-299.678 -387.047 -299.678 -389.183 -297.395 -390.49C-295.111 -391.816 -291.41 -391.816 -289.127 -390.49C-287.065 -389.293 -286.881 -387.452 -288.538 -386.126L-74.3041 -262.447V-199.493L-74.6356 -199.309L-199.346 -127.315L-174.249 -112.824L38.6772 -235.748V-309.105L39.0087 -309.289L111.427 -351.087C109.769 -352.412 109.954 -354.254 112.016 -355.45C114.299 -356.776 118 -356.776 120.283 -355.45C122.566 -354.125 122.566 -351.989 120.283 -350.681C118.221 -349.485 115.017 -349.393 112.734 -350.35L40.003 -308.35V-234.993L39.6715 -234.809L-172.924 -112.069L-149.024 -98.2777L61.546 -219.858H187.122L265.598 -265.172V-334.81C264.769 -334.975 263.977 -335.233 263.333 -335.601C261.05 -336.927 261.05 -339.063 263.333 -340.37C265.616 -341.696 269.317 -341.696 271.6 -340.37C273.883 -339.045 273.883 -336.909 271.6 -335.601C270.311 -334.865 268.58 -334.552 266.905 -334.644V-264.417L266.573 -264.233L187.453 -218.551H61.8775L-115.88 -115.917H-80.1226L-19.4522 -150.939H27.2797L27.427 -150.846L92.2403 -113.432C94.5235 -114.389 97.7273 -114.279 99.7896 -113.1C102.073 -111.774 102.073 -109.638 99.7896 -108.331C97.5064 -107.005 93.8054 -107.005 91.5222 -108.331C89.4599 -109.528 89.2759 -111.369 90.933 -112.695L26.9298 -149.65H-19.1024L-79.7728 -114.628H-118.145L-147.735 -97.5412L-83.9525 -60.7154L-65.8159 -71.1924V-98.6828L-19.7468 -125.289C-21.404 -126.615 -21.2198 -128.456 -19.1576 -129.653C-16.8744 -130.979 -13.1734 -130.979 -10.8902 -129.653C-8.607 -128.328 -8.607 -126.192 -10.8902 -124.884C-12.9524 -123.688 -16.1563 -123.595 -18.4395 -124.553L-64.5085 -97.9463V-71.9657L-15.3646 -100.34H7.90933L8.05661 -100.248L35.7864 -84.2287C38.0696 -85.1862 41.2735 -85.0757 43.3357 -83.8973C45.6189 -82.5716 45.6189 -80.4356 43.3357 -79.1283C41.0525 -77.8026 37.3515 -77.8026 35.0683 -79.1283C33.0061 -80.3252 32.8219 -82.1665 34.4791 -83.4922L7.54105 -99.0511H-15.0147L-82.6452 -60.0158L-70.3638 -52.9268L-109.565 -30.2974L-91.2072 -19.6916H-63.4406L-43.5731 -31.1628C-45.1566 -32.4701 -44.9356 -34.293 -42.9102 -35.4714C-40.627 -36.7971 -36.9261 -36.7971 -34.6429 -35.4714C-32.3597 -34.1457 -32.3597 -32.0098 -34.6429 -30.7025C-36.7235 -29.5056 -39.9826 -29.4136 -42.2842 -30.4079L-63.0907 -18.4027H-88.9424L-42.1185 8.62741L68.0274 -54.9706H147.295L147.442 -54.8786L192.075 -29.119C194.358 -30.0765 197.562 -29.9659 199.624 -28.7875C201.907 -27.4618 201.907 -25.3259 199.624 -24.0186C197.341 -22.6929 193.64 -22.6929 191.357 -24.0186C189.295 -25.2154 189.11 -27.0567 190.768 -28.3824L146.945 -53.6818H68.3956L-16.5614 -4.62982H19.804L55.3409 -25.1418C53.6838 -26.4675 53.8678 -28.3088 55.9301 -29.5056C58.2133 -30.8314 61.9143 -30.8314 64.1975 -29.5056C66.4807 -28.1799 66.4807 -26.044 64.1975 -24.7367C62.1352 -23.5399 58.9314 -23.4478 56.6482 -24.4052L20.1539 -3.32254H-18.8262L-40.7927 9.36398L15.1272 41.6418H193.843L332.694 -38.528C331.037 -39.8537 331.221 -41.6949 333.283 -42.8918C335.566 -44.2175 339.267 -44.2175 341.551 -42.8918C343.834 -41.5661 343.834 -39.4302 341.551 -38.1229C339.488 -36.926 336.285 -36.834 334.001 -37.7914L194.192 42.9306H17.392L39.5795 55.746H171.876L172.023 55.8381L237.26 93.5108C239.543 92.5533 242.747 92.6638 244.809 93.8422C247.093 95.168 247.093 97.3039 244.809 98.6112C242.526 99.9369 238.825 99.9369 236.542 98.6112C234.48 97.4144 234.296 95.573 235.953 94.2473L171.508 57.0533H39.2112L39.0639 56.9612L-110.872 -29.5977L-127.517 -19.9862L30.1153 71.0287H145.398L145.546 71.1207L284.784 151.511H477.714L515 129.987V131.497L478.064 152.819H284.452L284.305 152.727L196.918 102.275V132.141L254.513 165.395C256.796 164.437 260 164.548 262.062 165.726C264.345 167.052 264.345 169.188 262.062 170.495C259.779 171.821 256.078 171.821 253.795 170.495C251.733 169.298 251.549 167.457 253.206 166.131L195.61 132.878V101.686H195.905L145.048 72.3176H29.7654L29.6181 72.2255L-128.825 -19.2497L-147.735 -8.33084L159.687 169.151V201.226H158.379V169.906L-149.042 -7.5759L-172.408 5.92072L-13.8362 97.4695V113.839L14.2802 130.079V167.733L68.8007 199.219C71.0839 198.262 74.2878 198.372 76.35 199.551C77.1786 200.029 77.7125 200.619 77.9335 201.245H66.5359C66.7017 200.784 67.0147 200.361 67.4934 199.974L12.9729 168.488V130.834L-13.8362 115.349V175.632L-29.653 184.765L-1.14984 201.226H-3.7644L-30.9603 185.52L-58.1561 201.226H-60.7708L-15.1252 174.877V98.2245L-173.697 6.67566L-194.964 18.9571L-82.7373 83.752C-80.4541 82.7945 -77.2502 82.9049 -75.188 84.0834C-72.9048 85.4091 -72.9048 87.545 -75.188 88.8524C-77.4712 90.1781 -81.1722 90.1781 -83.4554 88.8524C-85.5176 87.6555 -85.7017 85.8142 -84.0446 84.4885L-196.271 19.6936L-216.801 31.5515L-82.5532 109.051H-46.0772C-45.8563 108.425 -45.3223 107.818 -44.4753 107.32C-42.1921 105.995 -38.4911 105.995 -36.2079 107.32C-33.9247 108.646 -33.9247 110.782 -36.2079 112.089C-38.4911 113.415 -42.1921 113.415 -44.4753 112.089C-45.3223 111.592 -45.8563 110.985 -46.0772 110.359H-82.903L-83.0503 110.267L-218.09 32.3064L-226.376 37.0938L-232.747 33.4112L-264.914 51.9897V77.8415L-238.345 93.1794V93.1057H-196.639L-196.492 93.1978L-150.736 119.62C-148.453 118.663 -145.249 118.773 -143.187 119.952C-140.904 121.277 -140.904 123.413 -143.187 124.721C-145.47 126.046 -149.171 126.046 -151.454 124.721C-153.516 123.524 -153.7 121.683 -152.043 120.357L-196.989 94.413H-236.19L-158.064 139.506C-155.763 138.475 -152.467 138.549 -150.349 139.764C-148.066 141.09 -148.066 143.226 -150.349 144.533C-152.633 145.859 -156.334 145.859 -158.617 144.533C-160.624 143.373 -160.863 141.587 -159.335 140.261L-256.776 84.0097V96.4384L-198.812 129.913V153.537L-151.62 180.788C-149.337 179.83 -146.133 179.941 -144.071 181.119C-141.787 182.445 -141.787 184.581 -144.071 185.888C-146.354 187.214 -150.055 187.214 -152.338 185.888C-154.4 184.691 -154.584 182.85 -152.927 181.524L-200.119 154.273V130.65L-258.083 97.175V83.2365L-266.203 78.5411V51.1796L-234.036 32.6194L-255.174 20.4117L-321.35 58.6184V102.054L-276.404 127.998C-274.102 126.967 -270.806 127.041 -268.689 128.256C-266.406 129.582 -266.406 131.718 -268.689 133.025C-270.972 134.351 -274.673 134.351 -276.956 133.025C-278.963 131.865 -279.203 130.079 -277.674 128.753L-321.331 103.546V138.641L-286.844 158.564V201.171H-288.151V159.318L-321.331 140.169V201.171H-322.639V57.8635L-256.463 19.6568L-280.197 5.95758L-366.701 55.8933V174.841L-408.277 198.851V201.189H-409.584V198.096L-368.008 174.086V55.1384L-281.504 5.20264L-299.089 -4.96124L-415.826 62.4299V163.903L-480.363 201.171H-482.978L-417.134 163.148V61.675L-300.396 -5.71619L-328.899 -22.1773L-523.136 89.9571V140.445L-589.699 178.873V177.363L-524.444 139.69V89.2022L-415.2 26.1196H-501.593L-589.699 76.9944V75.4846L-501.943 24.8123H-412.917L-330.206 -22.9322L-363.35 -42.0632L-434.442 -1.0209H-548.602L-589.699 22.6949V21.185L-580.695 15.9926H-589.699V14.6853H-578.43L-548.97 -2.32822H-434.81L-414.906 -13.8178H-463.442L-463.589 -13.9099L-487.931 -27.959H-589.368L-589.699 -27.7748V-29.2847H-490.196L-517.594 -45.1013C-519.877 -44.1439 -523.081 -44.2543 -525.144 -45.4328C-527.427 -46.7585 -527.427 -48.8944 -525.144 -50.2017C-522.86 -51.5274 -519.159 -51.5274 -516.876 -50.2017C-514.814 -49.0049 -514.63 -47.1636 -516.287 -45.8379L-463.074 -15.1068H-412.622L-364.638 -42.7997L-382.37 -53.0373L-370.954 -59.6291H-404.116L-447.46 -34.606C-445.802 -33.2803 -445.987 -31.439 -448.049 -30.2422C-450.332 -28.9164 -454.033 -28.9164 -456.316 -30.2422C-458.599 -31.5679 -458.599 -33.7038 -456.316 -35.0111C-454.254 -36.2079 -451.05 -36.3 -448.767 -35.3425L-404.465 -60.918H-368.689L-344.421 -74.9302L-359.336 -83.5474H-385.795L-409.069 -96.9888H-426.432L-465.652 -74.341C-463.884 -73.0152 -464.031 -71.1188 -466.13 -69.9035C-468.413 -68.5778 -472.114 -68.5778 -474.398 -69.9035C-476.681 -71.2292 -476.681 -73.3651 -474.398 -74.6724C-472.372 -75.8324 -469.26 -75.9613 -466.977 -75.0775L-426.782 -98.2777H-408.719L-385.445 -84.8363H-361.6L-409.308 -112.382H-435.068L-488.76 -81.3931H-589.681V-82.7004H-489.11L-435.418 -113.689H-408.958L-408.811 -113.597L-343.114 -75.6667L-325.879 -85.6097L-400.12 -128.475H-452.486L-495.683 -103.544H-589.699V-104.851H-496.051L-455.119 -128.475H-589.699V-129.782H-399.789L-399.641 -129.69L-324.609 -86.3646L-305.018 -97.6701L-408.535 -157.438H-589.699V-158.746H-457.679L-589.699 -234.975V-236.485L-455.064 -158.746H-409.492L-507.633 -215.402V-227.886L-554.604 -254.99C-556.887 -254.032 -560.091 -254.143 -562.153 -255.321C-564.437 -256.647 -564.437 -258.783 -562.153 -260.09C-559.87 -261.416 -556.169 -261.416 -553.886 -260.09C-551.824 -258.893 -551.64 -257.052 -553.297 -255.726L-527.721 -240.959V-275.189L-589.717 -310.983V-312.493L-526.414 -275.944V-240.204L-506.326 -228.604V-216.12L-407.375 -158.985L-407.706 -158.414L-303.71 -98.3698L-284.8 -109.289L-391.632 -170.972V-272.445L-589.699 -386.808V-388.317L-422.823 -291.963V-383.751L-550.553 -457.495C-550.645 -457.439 -550.719 -457.366 -550.811 -457.31C-553.094 -455.985 -556.795 -455.985 -559.078 -457.31C-561.362 -458.636 -561.362 -460.772 -559.078 -462.079L-559.152 -462.006ZM-379.847 -52.8716L-226.395 35.7312L-72.96 -52.8531L-226.413 -141.456L-379.847 -52.8716Z" fill="#EC963C"/>
</g>
</g>
<defs>
<clipPath id="clip0_1166_20175">
<rect width="1440" height="280" fill="white" transform="translate(0 -98)"/>
</clipPath>
</defs>
</svg>
