<svg width="1440" height="184" viewBox="0 0 1440 184" fill="none" xmlns="http://www.w3.org/2000/svg">
<mask id="mask0_1104_20804" style="mask-type:alpha" maskUnits="userSpaceOnUse" x="0" y="0" width="1440" height="184">
<rect width="1440" height="184" fill="#D9D9D9"/>
</mask>
<g mask="url(#mask0_1104_20804)">
<g clip-path="url(#clip0_1104_20804)">
<rect width="1440" height="280" transform="translate(0 -95)" fill="url(#paint0_linear_1104_20804)"/>
<path opacity="0.4" d="M2000.15 -459.006C1997.87 -460.331 1994.17 -460.331 1991.88 -459.006C1990.17 -458.011 1989.75 -456.557 1990.61 -455.342L1862.59 -381.432V-288.134L1831.4 -270.126V-168.653L1724.57 -106.97L1707.92 -116.581L1790.3 -164.142V-219.767L1789.97 -219.951L1696.3 -274.03V-292.903L1749.28 -323.487C1751.56 -322.529 1754.76 -322.64 1756.83 -323.818C1759.11 -325.144 1759.11 -327.28 1756.83 -328.587C1754.54 -329.913 1750.84 -329.913 1748.56 -328.587C1746.5 -327.39 1746.31 -325.549 1747.97 -324.223L1695 -293.64V-273.257L1695.33 -273.072L1788.99 -218.994V-164.878L1726.76 -128.936V-152.118L1755.3 -168.598C1757.58 -167.64 1760.78 -167.751 1762.85 -168.929C1765.13 -170.255 1765.13 -172.391 1762.85 -173.698C1760.56 -175.024 1756.86 -175.024 1754.58 -173.698C1752.52 -172.501 1752.33 -170.66 1753.99 -169.334L1725.45 -152.855V-128.163L1706.61 -117.3L1684.35 -130.152V-170.513L1726.33 -194.762V-222.658L1726 -222.842L1637.6 -273.883C1639.26 -275.208 1639.08 -277.05 1637.01 -278.247C1634.73 -279.572 1631.03 -279.572 1628.75 -278.247C1626.46 -276.921 1626.46 -274.785 1628.75 -273.478C1630.81 -272.281 1634.01 -272.189 1636.3 -273.146L1725.01 -221.921V-195.536L1684.33 -172.041V-199.863L1684 -200.047L1629.92 -231.275C1631.58 -232.601 1631.4 -234.442 1629.34 -235.639C1627.05 -236.965 1623.35 -236.965 1621.07 -235.639C1618.78 -234.313 1618.78 -232.177 1621.07 -230.87C1623.13 -229.673 1626.33 -229.581 1628.62 -230.539L1683.03 -199.126V-130.943L1667.39 -139.966L1641.63 -125.088L1618.31 -138.566V-171.305L1617.97 -171.489L1556.29 -207.099V-237.959C1557.56 -238.033 1558.8 -238.346 1559.77 -238.917C1562.05 -240.242 1562.05 -242.378 1559.77 -243.686C1557.49 -245.011 1553.79 -245.011 1551.5 -243.686C1549.22 -242.36 1549.22 -240.224 1551.5 -238.917C1552.48 -238.346 1553.71 -238.051 1554.98 -237.959V-206.344L1555.32 -206.16L1617 -170.55V-139.321L1516.61 -197.285V-258.729L1571.06 -290.16H1621.03L1621.18 -290.252L1706.93 -339.746C1709.21 -338.788 1712.41 -338.899 1714.48 -340.077C1716.76 -341.403 1716.76 -343.539 1714.48 -344.846C1712.19 -346.172 1708.49 -346.172 1706.21 -344.846C1704.15 -343.649 1703.96 -341.808 1705.62 -340.482L1620.68 -291.449H1573.32L1730.85 -382.39C1733.13 -381.432 1736.33 -381.543 1738.39 -382.721C1740.68 -384.047 1740.68 -386.183 1738.39 -387.49C1736.11 -388.816 1732.41 -388.816 1730.13 -387.49C1728.06 -386.293 1727.88 -384.452 1729.54 -383.126L1515.3 -259.447V-196.493L1515.64 -196.309L1640.35 -124.315L1615.25 -109.824L1402.32 -232.748V-306.105L1401.99 -306.289L1329.57 -348.087C1331.23 -349.412 1331.05 -351.254 1328.98 -352.45C1326.7 -353.776 1323 -353.776 1320.72 -352.45C1318.43 -351.125 1318.43 -348.989 1320.72 -347.681C1322.78 -346.485 1325.98 -346.393 1328.27 -347.35L1401 -305.35V-231.993L1401.33 -231.809L1613.92 -109.069L1590.02 -95.2777L1379.45 -216.858H1253.88L1175.4 -262.172V-331.81C1176.23 -331.975 1177.02 -332.233 1177.67 -332.601C1179.95 -333.927 1179.95 -336.063 1177.67 -337.37C1175.38 -338.696 1171.68 -338.696 1169.4 -337.37C1167.12 -336.045 1167.12 -333.909 1169.4 -332.601C1170.69 -331.865 1172.42 -331.552 1174.1 -331.644V-261.417L1174.43 -261.233L1253.55 -215.551H1379.12L1556.88 -112.917H1521.12L1460.45 -147.939H1413.72L1413.57 -147.846L1348.76 -110.432C1346.48 -111.389 1343.27 -111.279 1341.21 -110.1C1338.93 -108.774 1338.93 -106.638 1341.21 -105.331C1343.49 -104.005 1347.19 -104.005 1349.48 -105.331C1351.54 -106.528 1351.72 -108.369 1350.07 -109.695L1414.07 -146.65H1460.1L1520.77 -111.628H1559.15L1588.73 -94.5412L1524.95 -57.7154L1506.82 -68.1924V-95.6828L1460.75 -122.289C1462.4 -123.615 1462.22 -125.456 1460.16 -126.653C1457.87 -127.979 1454.17 -127.979 1451.89 -126.653C1449.61 -125.328 1449.61 -123.192 1451.89 -121.884C1453.95 -120.687 1457.16 -120.595 1459.44 -121.553L1505.51 -94.9463V-68.9657L1456.36 -97.34H1433.09L1432.94 -97.2479L1405.21 -81.2287C1402.93 -82.1862 1399.73 -82.0757 1397.66 -80.8973C1395.38 -79.5715 1395.38 -77.4357 1397.66 -76.1283C1399.95 -74.8026 1403.65 -74.8026 1405.93 -76.1283C1407.99 -77.3252 1408.18 -79.1665 1406.52 -80.4922L1433.46 -96.0511H1456.01L1523.65 -57.0158L1511.36 -49.9268L1550.56 -27.2974L1532.21 -16.6915H1504.44L1484.57 -28.1628C1486.16 -29.4701 1485.94 -31.293 1483.91 -32.4714C1481.63 -33.7971 1477.93 -33.7971 1475.64 -32.4714C1473.36 -31.1457 1473.36 -29.0098 1475.64 -27.7025C1477.72 -26.5056 1480.98 -26.4136 1483.28 -27.4079L1504.09 -15.4027H1529.94L1483.12 11.6274L1372.97 -51.9706H1293.71L1293.56 -51.8786L1248.93 -26.119C1246.64 -27.0765 1243.44 -26.9659 1241.38 -25.7875C1239.09 -24.4618 1239.09 -22.3259 1241.38 -21.0186C1243.66 -19.6929 1247.36 -19.6929 1249.64 -21.0186C1251.71 -22.2154 1251.89 -24.0567 1250.23 -25.3824L1294.06 -50.6818H1372.6L1457.56 -1.62983H1421.2L1385.66 -22.1418C1387.32 -23.4675 1387.13 -25.3088 1385.07 -26.5056C1382.79 -27.8314 1379.09 -27.8314 1376.8 -26.5056C1374.52 -25.1799 1374.52 -23.044 1376.8 -21.7367C1378.86 -20.5399 1382.07 -20.4478 1384.35 -21.4052L1420.85 -0.322529H1459.83L1481.79 12.364L1425.87 44.6417H1247.16L1108.31 -35.5279C1109.96 -36.8537 1109.78 -38.6949 1107.72 -39.8918C1105.43 -41.2175 1101.73 -41.2175 1099.45 -39.8918C1097.17 -38.5661 1097.17 -36.4302 1099.45 -35.1229C1101.51 -33.926 1104.72 -33.834 1107 -34.7914L1246.81 45.9306H1423.61L1401.42 58.746H1269.12L1268.98 58.8381L1203.74 96.5108C1201.46 95.5533 1198.25 95.6638 1196.19 96.8422C1193.91 98.1679 1193.91 100.304 1196.19 101.611C1198.47 102.937 1202.17 102.937 1204.46 101.611C1206.52 100.414 1206.7 98.573 1205.05 97.2473L1269.49 60.0533H1401.79L1401.94 59.9612L1551.87 -26.5977L1568.52 -16.9862L1410.88 74.0287H1295.6L1295.45 74.1207L1156.22 154.511H963.286L926 132.987V134.497L962.936 155.819H1156.55L1156.69 155.727L1244.08 105.275V135.141L1186.49 168.395C1184.2 167.437 1181 167.548 1178.94 168.726C1176.65 170.052 1176.65 172.188 1178.94 173.495C1181.22 174.821 1184.92 174.821 1187.21 173.495C1189.27 172.298 1189.45 170.457 1187.79 169.131L1245.39 135.878V104.686H1245.1L1295.95 75.3176H1411.23L1411.38 75.2255L1569.82 -16.2497L1588.73 -5.33083L1281.31 172.151V204.226H1282.62V172.906L1590.04 -4.5759L1613.41 8.92072L1454.84 100.47V116.839L1426.72 133.079V170.733L1372.2 202.219C1369.92 201.262 1366.71 201.372 1364.65 202.551C1363.82 203.029 1363.29 203.619 1363.07 204.245H1374.46C1374.3 203.784 1373.99 203.361 1373.51 202.974L1428.03 171.488V133.834L1454.84 118.348V178.632L1470.65 187.765L1442.15 204.226H1444.76L1471.96 188.52L1499.16 204.226H1501.77L1456.13 177.877V101.224L1614.7 9.67565L1635.96 21.9571L1523.74 86.752C1521.45 85.7945 1518.25 85.905 1516.19 87.0834C1513.9 88.4091 1513.9 90.545 1516.19 91.8523C1518.47 93.1781 1522.17 93.1781 1524.46 91.8523C1526.52 90.6555 1526.7 88.8142 1525.04 87.4885L1637.27 22.6936L1657.8 34.5515L1523.55 112.051H1487.08C1486.86 111.425 1486.32 110.818 1485.48 110.32C1483.19 108.995 1479.49 108.995 1477.21 110.32C1474.92 111.646 1474.92 113.782 1477.21 115.089C1479.49 116.415 1483.19 116.415 1485.48 115.089C1486.32 114.592 1486.86 113.985 1487.08 113.359H1523.9L1524.05 113.267L1659.09 35.3064L1667.38 40.0938L1673.75 36.4112L1705.91 54.9898V80.8415L1679.34 96.1794V96.1057H1637.64L1637.49 96.1978L1591.74 122.62C1589.45 121.663 1586.25 121.773 1584.19 122.952C1581.9 124.277 1581.9 126.413 1584.19 127.721C1586.47 129.046 1590.17 129.046 1592.45 127.721C1594.52 126.524 1594.7 124.683 1593.04 123.357L1637.99 97.4131H1677.19L1599.06 142.506C1596.76 141.475 1593.47 141.549 1591.35 142.764C1589.07 144.09 1589.07 146.226 1591.35 147.533C1593.63 148.859 1597.33 148.859 1599.62 147.533C1601.62 146.373 1601.86 144.587 1600.33 143.261L1697.78 87.0097V99.4384L1639.81 132.913V156.537L1592.62 183.788C1590.34 182.83 1587.13 182.941 1585.07 184.119C1582.79 185.445 1582.79 187.581 1585.07 188.888C1587.35 190.214 1591.05 190.214 1593.34 188.888C1595.4 187.691 1595.58 185.85 1593.93 184.524L1641.12 157.273V133.65L1699.08 100.175V86.2364L1707.2 81.5411V54.1796L1675.04 35.6194L1696.17 23.4117L1762.35 61.6184V105.054L1717.4 130.998C1715.1 129.967 1711.81 130.041 1709.69 131.256C1707.41 132.582 1707.41 134.718 1709.69 136.025C1711.97 137.351 1715.67 137.351 1717.96 136.025C1719.96 134.865 1720.2 133.079 1718.67 131.753L1762.33 106.546V141.641L1727.84 161.564V204.171H1729.15V162.318L1762.33 143.169V204.171H1763.64V60.8635L1697.46 22.6568L1721.2 8.95758L1807.7 58.8933V177.84L1849.28 201.851V204.189H1850.58V201.096L1809.01 177.086V58.1384L1722.5 8.20264L1740.09 -1.96125L1856.83 65.4298V166.903L1921.36 204.171H1923.98L1858.13 166.148V64.675L1741.4 -2.71618L1769.9 -19.1773L1964.14 92.9571V143.445L2030.7 181.873V180.363L1965.44 142.69V92.2022L1856.2 29.1196H1942.59L2030.7 79.9944V78.4846L1942.94 27.8123H1853.92L1771.21 -19.9322L1804.35 -39.0632L1875.44 1.97908H1989.6L2030.7 25.6949V24.185L2021.7 18.9926H2030.7V17.6853H2019.43L1989.97 0.671782H1875.81L1855.91 -10.8178H1904.44L1904.59 -10.9099L1928.93 -24.959H2030.37L2030.7 -24.7748V-26.2847H1931.2L1958.59 -42.1014C1960.88 -41.1439 1964.08 -41.2543 1966.14 -42.4328C1968.43 -43.7585 1968.43 -45.8944 1966.14 -47.2017C1963.86 -48.5274 1960.16 -48.5274 1957.88 -47.2017C1955.81 -46.0049 1955.63 -44.1636 1957.29 -42.8379L1904.07 -12.1068H1853.62L1805.64 -39.7997L1823.37 -50.0373L1811.95 -56.6291H1845.12L1888.46 -31.606C1886.8 -30.2803 1886.99 -28.439 1889.05 -27.2421C1891.33 -25.9164 1895.03 -25.9164 1897.32 -27.2421C1899.6 -28.5679 1899.6 -30.7038 1897.32 -32.0111C1895.25 -33.2079 1892.05 -33.3 1889.77 -32.3425L1845.47 -57.918H1809.69L1785.42 -71.9302L1800.34 -80.5474H1826.79L1850.07 -93.9888H1867.43L1906.65 -71.341C1904.88 -70.0153 1905.03 -68.1188 1907.13 -66.9035C1909.41 -65.5778 1913.11 -65.5778 1915.4 -66.9035C1917.68 -68.2292 1917.68 -70.3651 1915.4 -71.6724C1913.37 -72.8324 1910.26 -72.9613 1907.98 -72.0775L1867.78 -95.2777H1849.72L1826.44 -81.8363H1802.6L1850.31 -109.382H1876.07L1929.76 -78.3931H2030.68V-79.7004H1930.11L1876.42 -110.689H1849.96L1849.81 -110.597L1784.11 -72.6667L1766.88 -82.6097L1841.12 -125.475H1893.49L1936.68 -100.544H2030.7V-101.851H1937.05L1896.12 -125.475H2030.7V-126.782H1840.79L1840.64 -126.69L1765.61 -83.3646L1746.02 -94.6701L1849.53 -154.438H2030.7V-155.746H1898.68L2030.7 -231.975V-233.485L1896.06 -155.746H1850.49L1948.63 -212.402V-224.886L1995.6 -251.99C1997.89 -251.032 2001.09 -251.143 2003.15 -252.321C2005.44 -253.647 2005.44 -255.783 2003.15 -257.09C2000.87 -258.416 1997.17 -258.416 1994.89 -257.09C1992.82 -255.893 1992.64 -254.052 1994.3 -252.726L1968.72 -237.959V-272.189L2030.72 -307.983V-309.493L1967.41 -272.944V-237.204L1947.33 -225.604V-213.12L1848.37 -155.985L1848.71 -155.414L1744.71 -95.3698L1725.8 -106.289L1832.63 -167.972V-269.445L2030.7 -383.808V-385.317L1863.82 -288.963V-380.751L1991.55 -454.495C1991.65 -454.439 1991.72 -454.366 1991.81 -454.31C1994.09 -452.985 1997.8 -452.985 2000.08 -454.31C2002.36 -455.636 2002.36 -457.772 2000.08 -459.079L2000.15 -459.006ZM1820.85 -49.8716L1667.39 38.7312L1513.96 -49.8532L1667.41 -138.456L1820.85 -49.8716Z" fill="#EC963C"/>
<path opacity="0.4" d="M-559.152 -459.006C-556.869 -460.331 -553.168 -460.331 -550.885 -459.006C-549.172 -458.011 -548.749 -456.557 -549.614 -455.342L-421.589 -381.432V-288.134L-390.398 -270.126V-168.653L-283.567 -106.97L-266.921 -116.581L-349.301 -164.142V-219.767L-348.969 -219.951L-255.303 -274.03V-292.903L-308.277 -323.487C-310.56 -322.529 -313.764 -322.64 -315.826 -323.818C-318.109 -325.144 -318.109 -327.28 -315.826 -328.587C-313.543 -329.913 -309.842 -329.913 -307.559 -328.587C-305.496 -327.39 -305.312 -325.549 -306.969 -324.223L-253.995 -293.64V-273.257L-254.327 -273.072L-347.993 -218.994V-164.878L-285.758 -128.936V-152.118L-314.298 -168.598C-316.581 -167.64 -319.785 -167.751 -321.847 -168.929C-324.13 -170.255 -324.13 -172.391 -321.847 -173.698C-319.564 -175.024 -315.863 -175.024 -313.58 -173.698C-311.517 -172.501 -311.333 -170.66 -312.99 -169.334L-284.45 -152.855V-128.163L-265.614 -117.3L-243.353 -130.152V-170.513L-285.334 -194.762V-222.658L-285.003 -222.842L-196.603 -273.883C-198.26 -275.208 -198.076 -277.05 -196.013 -278.247C-193.73 -279.572 -190.029 -279.572 -187.746 -278.247C-185.463 -276.921 -185.463 -274.785 -187.746 -273.478C-189.808 -272.281 -193.012 -272.189 -195.295 -273.146L-284.008 -221.921V-195.536L-243.334 -172.041V-199.863L-243.003 -200.047L-188.924 -231.275C-190.581 -232.601 -190.397 -234.442 -188.335 -235.639C-186.052 -236.965 -182.351 -236.965 -180.068 -235.639C-177.785 -234.313 -177.785 -232.177 -180.068 -230.87C-182.13 -229.673 -185.334 -229.581 -187.617 -230.539L-242.027 -199.126V-130.943L-226.395 -139.966L-200.635 -125.088L-177.306 -138.566V-171.305L-176.974 -171.489L-115.291 -207.099V-237.959C-116.562 -238.033 -117.795 -238.346 -118.771 -238.917C-121.054 -240.242 -121.054 -242.378 -118.771 -243.686C-116.488 -245.011 -112.787 -245.011 -110.504 -243.686C-108.221 -242.36 -108.221 -240.224 -110.504 -238.917C-111.48 -238.346 -112.713 -238.051 -113.984 -237.959V-206.344L-114.315 -206.16L-175.999 -170.55V-139.321L-75.6115 -197.285V-258.729L-130.058 -290.16H-180.031L-180.178 -290.252L-265.927 -339.746C-268.21 -338.788 -271.414 -338.899 -273.476 -340.077C-275.759 -341.403 -275.759 -343.539 -273.476 -344.846C-271.193 -346.172 -267.492 -346.172 -265.209 -344.846C-263.147 -343.649 -262.963 -341.808 -264.62 -340.482L-179.681 -291.449H-132.323L-289.845 -382.39C-292.129 -381.432 -295.332 -381.543 -297.395 -382.721C-299.678 -384.047 -299.678 -386.183 -297.395 -387.49C-295.111 -388.816 -291.41 -388.816 -289.127 -387.49C-287.065 -386.293 -286.881 -384.452 -288.538 -383.126L-74.3042 -259.447V-196.493L-74.6356 -196.309L-199.346 -124.315L-174.249 -109.824L38.6772 -232.748V-306.105L39.0087 -306.289L111.427 -348.087C109.769 -349.412 109.953 -351.254 112.016 -352.45C114.299 -353.776 118 -353.776 120.283 -352.45C122.566 -351.125 122.566 -348.989 120.283 -347.681C118.221 -346.485 115.017 -346.393 112.734 -347.35L40.003 -305.35V-231.993L39.6716 -231.809L-172.924 -109.069L-149.024 -95.2777L61.546 -216.858H187.122L265.598 -262.172V-331.81C264.769 -331.975 263.977 -332.233 263.333 -332.601C261.05 -333.927 261.05 -336.063 263.333 -337.37C265.616 -338.696 269.317 -338.696 271.6 -337.37C273.883 -336.045 273.883 -333.909 271.6 -332.601C270.311 -331.865 268.58 -331.552 266.905 -331.644V-261.417L266.573 -261.233L187.453 -215.551H61.8775L-115.88 -112.917H-80.1226L-19.4522 -147.939H27.2797L27.427 -147.846L92.2403 -110.432C94.5235 -111.389 97.7273 -111.279 99.7896 -110.1C102.073 -108.774 102.073 -106.638 99.7896 -105.331C97.5064 -104.005 93.8054 -104.005 91.5222 -105.331C89.46 -106.528 89.2758 -108.369 90.933 -109.695L26.9298 -146.65H-19.1024L-79.7728 -111.628H-118.145L-147.735 -94.5412L-83.9525 -57.7154L-65.8158 -68.1924V-95.6828L-19.7468 -122.289C-21.404 -123.615 -21.2199 -125.456 -19.1576 -126.653C-16.8744 -127.979 -13.1734 -127.979 -10.8902 -126.653C-8.607 -125.328 -8.607 -123.192 -10.8902 -121.884C-12.9524 -120.687 -16.1563 -120.595 -18.4395 -121.553L-64.5085 -94.9463V-68.9657L-15.3646 -97.34H7.90934L8.05662 -97.2479L35.7864 -81.2287C38.0696 -82.1862 41.2735 -82.0757 43.3357 -80.8973C45.6189 -79.5715 45.6189 -77.4357 43.3357 -76.1283C41.0525 -74.8026 37.3515 -74.8026 35.0683 -76.1283C33.0061 -77.3252 32.8219 -79.1665 34.4791 -80.4922L7.54106 -96.0511H-15.0147L-82.6452 -57.0158L-70.3638 -49.9268L-109.565 -27.2974L-91.2072 -16.6915H-63.4406L-43.5731 -28.1628C-45.1566 -29.4701 -44.9356 -31.293 -42.9102 -32.4714C-40.627 -33.7971 -36.9261 -33.7971 -34.6429 -32.4714C-32.3597 -31.1457 -32.3597 -29.0098 -34.6429 -27.7025C-36.7235 -26.5056 -39.9826 -26.4136 -42.2842 -27.4079L-63.0907 -15.4027H-88.9424L-42.1185 11.6274L68.0274 -51.9706H147.295L147.442 -51.8786L192.075 -26.119C194.358 -27.0765 197.562 -26.9659 199.624 -25.7875C201.907 -24.4618 201.907 -22.3259 199.624 -21.0186C197.341 -19.6929 193.64 -19.6929 191.357 -21.0186C189.295 -22.2154 189.11 -24.0567 190.768 -25.3824L146.945 -50.6818H68.3956L-16.5614 -1.62983H19.804L55.3409 -22.1418C53.6837 -23.4675 53.8679 -25.3088 55.9301 -26.5056C58.2133 -27.8314 61.9143 -27.8314 64.1975 -26.5056C66.4807 -25.1799 66.4807 -23.044 64.1975 -21.7367C62.1352 -20.5399 58.9314 -20.4478 56.6482 -21.4052L20.1539 -0.322529H-18.8262L-40.7927 12.364L15.1272 44.6417H193.843L332.694 -35.5279C331.037 -36.8537 331.221 -38.6949 333.283 -39.8918C335.566 -41.2175 339.267 -41.2175 341.551 -39.8918C343.834 -38.5661 343.834 -36.4302 341.551 -35.1229C339.488 -33.926 336.285 -33.834 334.001 -34.7914L194.192 45.9306H17.392L39.5795 58.746H171.876L172.023 58.8381L237.26 96.5108C239.543 95.5533 242.747 95.6638 244.809 96.8422C247.093 98.1679 247.093 100.304 244.809 101.611C242.526 102.937 238.825 102.937 236.542 101.611C234.48 100.414 234.296 98.573 235.953 97.2473L171.508 60.0533H39.2112L39.0639 59.9612L-110.872 -26.5977L-127.517 -16.9862L30.1153 74.0287H145.398L145.546 74.1207L284.784 154.511H477.714L515 132.987V134.497L478.064 155.819H284.452L284.305 155.727L196.918 105.275V135.141L254.513 168.395C256.796 167.437 260 167.548 262.062 168.726C264.345 170.052 264.345 172.188 262.062 173.495C259.779 174.821 256.078 174.821 253.795 173.495C251.733 172.298 251.549 170.457 253.206 169.131L195.61 135.878V104.686H195.905L145.048 75.3176H29.7654L29.6181 75.2255L-128.825 -16.2497L-147.735 -5.33083L159.687 172.151V204.226H158.379V172.906L-149.042 -4.5759L-172.408 8.92072L-13.8363 100.47V116.839L14.2802 133.079V170.733L68.8007 202.219C71.0839 201.262 74.2878 201.372 76.35 202.551C77.1786 203.029 77.7126 203.619 77.9335 204.245H66.5359C66.7017 203.784 67.0147 203.361 67.4934 202.974L12.9729 171.488V133.834L-13.8363 118.348V178.632L-29.6529 187.765L-1.14982 204.226H-3.76442L-30.9603 188.52L-58.1561 204.226H-60.7707L-15.1252 177.877V101.224L-173.697 9.67565L-194.964 21.9571L-82.7373 86.752C-80.4541 85.7945 -77.2502 85.905 -75.188 87.0834C-72.9048 88.4091 -72.9048 90.545 -75.188 91.8523C-77.4712 93.1781 -81.1722 93.1781 -83.4554 91.8523C-85.5176 90.6555 -85.7017 88.8142 -84.0446 87.4885L-196.271 22.6936L-216.801 34.5515L-82.5531 112.051H-46.0772C-45.8563 111.425 -45.3223 110.818 -44.4753 110.32C-42.1921 108.995 -38.4911 108.995 -36.2079 110.32C-33.9247 111.646 -33.9247 113.782 -36.2079 115.089C-38.4911 116.415 -42.1921 116.415 -44.4753 115.089C-45.3223 114.592 -45.8563 113.985 -46.0772 113.359H-82.903L-83.0503 113.267L-218.09 35.3064L-226.376 40.0938L-232.747 36.4112L-264.914 54.9898V80.8415L-238.345 96.1794V96.1057H-196.639L-196.492 96.1978L-150.736 122.62C-148.453 121.663 -145.249 121.773 -143.187 122.952C-140.904 124.277 -140.904 126.413 -143.187 127.721C-145.47 129.046 -149.171 129.046 -151.454 127.721C-153.516 126.524 -153.7 124.683 -152.043 123.357L-196.989 97.4131H-236.19L-158.064 142.506C-155.763 141.475 -152.467 141.549 -150.349 142.764C-148.066 144.09 -148.066 146.226 -150.349 147.533C-152.633 148.859 -156.334 148.859 -158.617 147.533C-160.624 146.373 -160.863 144.587 -159.335 143.261L-256.776 87.0097V99.4384L-198.812 132.913V156.537L-151.62 183.788C-149.337 182.83 -146.133 182.941 -144.071 184.119C-141.787 185.445 -141.787 187.581 -144.071 188.888C-146.354 190.214 -150.055 190.214 -152.338 188.888C-154.4 187.691 -154.584 185.85 -152.927 184.524L-200.119 157.273V133.65L-258.083 100.175V86.2364L-266.203 81.5411V54.1796L-234.036 35.6194L-255.174 23.4117L-321.35 61.6184V105.054L-276.404 130.998C-274.102 129.967 -270.806 130.041 -268.689 131.256C-266.406 132.582 -266.406 134.718 -268.689 136.025C-270.972 137.351 -274.673 137.351 -276.956 136.025C-278.963 134.865 -279.203 133.079 -277.674 131.753L-321.331 106.546V141.641L-286.844 161.564V204.171H-288.151V162.318L-321.331 143.169V204.171H-322.639V60.8635L-256.463 22.6568L-280.197 8.95758L-366.701 58.8933V177.84L-408.277 201.851V204.189H-409.584V201.096L-368.008 177.086V58.1384L-281.504 8.20264L-299.089 -1.96125L-415.826 65.4298V166.903L-480.363 204.171H-482.978L-417.134 166.148V64.675L-300.396 -2.71618L-328.899 -19.1773L-523.136 92.9571V143.445L-589.699 181.873V180.363L-524.444 142.69V92.2022L-415.2 29.1196H-501.593L-589.699 79.9944V78.4846L-501.943 27.8123H-412.917L-330.206 -19.9322L-363.35 -39.0632L-434.442 1.97908H-548.602L-589.699 25.6949V24.185L-580.695 18.9926H-589.699V17.6853H-578.43L-548.97 0.671782H-434.81L-414.906 -10.8178H-463.442L-463.589 -10.9099L-487.931 -24.959H-589.368L-589.699 -24.7748V-26.2847H-490.196L-517.594 -42.1014C-519.877 -41.1439 -523.081 -41.2543 -525.144 -42.4328C-527.427 -43.7585 -527.427 -45.8944 -525.144 -47.2017C-522.86 -48.5274 -519.159 -48.5274 -516.876 -47.2017C-514.814 -46.0049 -514.63 -44.1636 -516.287 -42.8379L-463.074 -12.1068H-412.622L-364.638 -39.7997L-382.37 -50.0373L-370.954 -56.6291H-404.116L-447.46 -31.606C-445.802 -30.2803 -445.987 -28.439 -448.049 -27.2421C-450.332 -25.9164 -454.033 -25.9164 -456.316 -27.2421C-458.599 -28.5679 -458.599 -30.7038 -456.316 -32.0111C-454.254 -33.2079 -451.05 -33.3 -448.767 -32.3425L-404.465 -57.918H-368.689L-344.421 -71.9302L-359.336 -80.5474H-385.795L-409.069 -93.9888H-426.432L-465.652 -71.341C-463.884 -70.0153 -464.031 -68.1188 -466.13 -66.9035C-468.413 -65.5778 -472.114 -65.5778 -474.398 -66.9035C-476.681 -68.2292 -476.681 -70.3651 -474.398 -71.6724C-472.372 -72.8324 -469.26 -72.9613 -466.977 -72.0775L-426.782 -95.2777H-408.719L-385.445 -81.8363H-361.6L-409.308 -109.382H-435.068L-488.76 -78.3931H-589.681V-79.7004H-489.11L-435.418 -110.689H-408.958L-408.811 -110.597L-343.114 -72.6667L-325.879 -82.6097L-400.12 -125.475H-452.486L-495.683 -100.544H-589.699V-101.851H-496.051L-455.119 -125.475H-589.699V-126.782H-399.789L-399.641 -126.69L-324.609 -83.3646L-305.018 -94.6701L-408.535 -154.438H-589.699V-155.746H-457.679L-589.699 -231.975V-233.485L-455.064 -155.746H-409.492L-507.633 -212.402V-224.886L-554.604 -251.99C-556.887 -251.032 -560.091 -251.143 -562.153 -252.321C-564.437 -253.647 -564.437 -255.783 -562.153 -257.09C-559.87 -258.416 -556.169 -258.416 -553.886 -257.09C-551.824 -255.893 -551.64 -254.052 -553.297 -252.726L-527.721 -237.959V-272.189L-589.717 -307.983V-309.493L-526.414 -272.944V-237.204L-506.326 -225.604V-213.12L-407.375 -155.985L-407.706 -155.414L-303.71 -95.3698L-284.8 -106.289L-391.632 -167.972V-269.445L-589.699 -383.808V-385.317L-422.823 -288.963V-380.751L-550.553 -454.495C-550.645 -454.439 -550.719 -454.366 -550.811 -454.31C-553.094 -452.985 -556.795 -452.985 -559.078 -454.31C-561.362 -455.636 -561.362 -457.772 -559.078 -459.079L-559.152 -459.006ZM-379.847 -49.8716L-226.395 38.7312L-72.9601 -49.8532L-226.413 -138.456L-379.847 -49.8716Z" fill="#EC963C"/>
</g>
</g>
<defs>
<linearGradient id="paint0_linear_1104_20804" x1="720" y1="280" x2="720" y2="1.95324e-06" gradientUnits="userSpaceOnUse">
<stop stop-color="#FFFDF1"/>
<stop offset="1" stop-color="white"/>
</linearGradient>
<clipPath id="clip0_1104_20804">
<rect width="1440" height="280" fill="white" transform="translate(0 -95)"/>
</clipPath>
</defs>
</svg>
