<svg width="894" height="525" viewBox="0 0 894 525" fill="none" xmlns="http://www.w3.org/2000/svg">
<path d="M893.866 66.3695L869.095 80.674V126.783L648.984 253.901L632.259 244.247L745.793 178.681V166.953L765.914 155.325V128.372L804.952 105.837C806.591 106.522 808.883 106.439 810.355 105.586C811.994 104.649 811.994 103.109 810.355 102.173C808.715 101.236 806.073 101.236 804.434 102.173C802.962 103.026 802.828 104.348 804.015 105.301L764.978 127.854V154.806L745.793 165.882V122.717L745.559 122.584L734.47 116.176L801.022 77.7462V34.5148L848.305 7.2108C849.944 7.89675 852.236 7.81309 853.708 6.95984C855.347 6.02294 855.347 4.48374 853.708 3.54684C852.069 2.60994 849.426 2.60994 847.787 3.54684C846.315 4.40009 846.181 5.7218 847.369 6.67543L800.085 33.9794V77.2108L733.533 115.641L625.334 53.1525V4.80162C626.237 4.7347 627.124 4.51721 627.826 4.11568C629.465 3.17878 629.465 1.63958 627.826 0.702677C626.187 -0.234226 623.545 -0.234226 621.905 0.702677C620.266 1.63958 620.266 3.17878 621.905 4.11568C622.608 4.51721 623.494 4.7347 624.398 4.80162V53.6878L624.632 53.8217L689.712 91.4149H642.277L603.925 69.2638C605.113 68.3269 604.979 66.9885 603.507 66.1353C601.868 65.1984 599.225 65.1984 597.586 66.1353C595.947 67.0722 595.947 68.6114 597.586 69.5483C599.058 70.4015 601.349 70.4684 602.989 69.7992L642.026 92.3518H691.317L744.873 123.27V178.162L631.339 243.728L616.118 234.945L696.469 188.535C698.108 189.221 700.399 189.137 701.871 188.284C703.51 187.347 703.51 185.808 701.871 184.871C700.232 183.934 697.589 183.934 695.95 184.871C694.478 185.724 694.345 187.046 695.532 188L615.182 234.41L600.48 225.927L696.586 170.416H722.712C722.862 170.868 723.247 171.303 723.866 171.654C725.505 172.591 728.147 172.591 729.787 171.654C731.426 170.717 731.426 169.178 729.787 168.241C728.147 167.304 725.505 167.304 723.866 168.241C723.263 168.592 722.879 169.027 722.728 169.479H696.352L696.251 169.546L599.56 225.392L593.622 221.962L593.388 222.096L589.056 224.606L566.025 211.305V192.801L585.059 181.809V181.859H614.914L647.78 162.87C649.419 163.556 651.711 163.473 653.183 162.619C654.822 161.683 654.822 160.143 653.183 159.206C651.543 158.27 648.901 158.27 647.262 159.206C645.79 160.06 645.656 161.381 646.843 162.335L614.663 180.923H586.597L642.528 148.616C644.167 149.352 646.542 149.302 648.048 148.432C649.687 147.495 649.687 145.956 648.048 145.019C646.409 144.082 643.766 144.082 642.127 145.019C640.688 145.856 640.521 147.127 641.608 148.081L571.845 188.368V179.467L613.359 155.492V138.561L647.145 119.054C648.784 119.739 651.075 119.656 652.547 118.803C654.186 117.866 654.186 116.326 652.547 115.39C650.908 114.453 648.265 114.453 646.626 115.39C645.154 116.243 645.02 117.565 646.208 118.518L612.422 138.043V154.974L570.909 178.948V188.936L565.088 192.299V211.891L588.119 225.191L572.983 233.924L525.599 206.554V175.452L557.779 156.864C559.418 157.6 561.793 157.55 563.298 156.68C564.937 155.743 564.937 154.204 563.298 153.267C561.659 152.33 559.017 152.33 557.377 153.267C555.939 154.104 555.772 155.375 556.859 156.329L525.599 174.381V149.252L550.302 134.998V87.7175C551.206 87.6506 552.092 87.4331 552.795 87.0315C554.434 86.0946 554.434 84.5554 552.795 83.6185C551.155 82.6816 548.513 82.6816 546.874 83.6185C545.235 84.5554 545.235 86.0946 546.874 87.0315C547.576 87.4331 548.463 87.6506 549.366 87.7175V134.445L525.599 148.164V64.8136H524.662V207.122L572.046 234.493L555.053 244.314L493.117 208.544V123.37L463.345 106.171V74.1324L437.052 58.9579C438.24 58.021 438.106 56.6826 436.634 55.8293C434.995 54.8924 432.352 54.8924 430.713 55.8293C429.074 56.7662 429.074 58.3054 430.713 59.2423C432.185 60.0956 434.477 60.1625 436.116 59.4933L462.409 74.6678V106.706L492.18 123.905V209.08L554.116 244.849L541.521 252.127L457.943 203.86V131.183L457.709 131.049L383.731 88.3198C384.918 87.3829 384.784 86.0444 383.313 85.1912C381.673 84.2543 379.031 84.2543 377.392 85.1912C375.752 86.1281 375.752 87.6673 377.392 88.6042C378.863 89.4574 381.155 89.5244 382.794 88.8552L457.006 131.718V204.395L457.24 204.529L540.585 252.662L520.179 264.457L381.121 184.152V147.98L380.887 147.847L264.476 80.6071C265.664 79.6702 265.53 78.3317 264.058 77.4785C262.419 76.5416 259.776 76.5416 258.137 77.4785C256.498 78.4154 256.498 79.9546 258.137 80.8915C259.609 81.7447 261.9 81.8117 263.539 81.1424L380.202 148.516V184.687L380.436 184.821L458.411 229.859H396.559L324.956 188.501C326.144 187.548 326.01 186.226 324.538 185.373C322.899 184.436 320.256 184.436 318.617 185.373C316.978 186.31 316.978 187.849 318.617 188.786C320.089 189.639 322.381 189.706 324.02 189.037L396.308 230.796H460.034L519.259 264.993L495.542 278.695L444.646 249.3H362.907L269.945 195.612H218.38L197.356 183.466C198.543 182.529 198.409 181.19 196.937 180.337C195.298 179.4 192.656 179.4 191.016 180.337C189.377 181.274 189.377 182.813 191.016 183.75C192.488 184.603 194.78 184.67 196.419 184.001L218.129 196.532H269.694L339.943 237.103H279.262L250.042 220.222C251.229 219.285 251.095 217.947 249.624 217.094C247.984 216.157 245.342 216.157 243.703 217.094C242.064 218.031 242.064 219.57 243.703 220.507C245.174 221.36 247.466 221.427 249.105 220.758L279.011 238.023H341.565L362.656 250.203H444.395L458.645 258.434H423.906L423.806 258.501L406.377 268.573H333.754L313.265 256.745H272.187C272.036 256.293 271.651 255.858 271.049 255.507C269.41 254.57 266.767 254.57 265.128 255.507C263.489 256.444 263.489 257.983 265.128 258.92C266.767 259.857 269.41 259.857 271.049 258.92C271.651 258.568 272.036 258.133 272.203 257.682H313.031L333.52 269.51H404.772L385.152 280.837C383.513 280.151 381.222 280.234 379.75 281.087C378.111 282.024 378.111 283.564 379.75 284.5C381.389 285.437 384.032 285.437 385.671 284.5C387.143 283.647 387.277 282.326 386.089 281.389L424.19 259.388H460.318L494.673 279.23L481.978 286.558L482.68 286.96L490.14 291.276H466.406L435.363 273.358C436.551 272.421 436.417 271.083 434.945 270.229C433.306 269.293 430.663 269.293 429.024 270.229C427.385 271.166 427.385 272.706 429.024 273.642C430.496 274.496 432.787 274.563 434.426 273.893L466.155 292.213H491.779L509.157 302.251L498.469 308.425H479.519L479.419 308.492L462.86 318.045H450.433L422.35 301.833C423.605 300.88 423.505 299.524 421.999 298.654C420.36 297.717 417.717 297.717 416.078 298.654C414.439 299.591 414.439 301.13 416.078 302.067C417.517 302.904 419.758 302.988 421.397 302.352L450.182 318.965H463.111L463.211 318.898L479.77 309.345H496.847L462.693 329.07H444.261L405.825 306.869H289.916L218.012 265.344C219.25 264.391 219.149 263.052 217.644 262.182C216.005 261.245 213.362 261.245 211.723 262.182C210.084 263.119 210.084 264.658 211.723 265.595C213.178 266.432 215.419 266.515 217.059 265.88L289.648 307.806H405.558L443.994 330.007H462.944L463.044 329.94L510.077 302.77L522.421 309.897L469.266 340.597H431.784L400.858 322.729H321.477C321.327 322.278 320.942 321.843 320.323 321.491C318.684 320.554 316.042 320.554 314.402 321.491C312.763 322.428 312.763 323.967 314.402 324.904C316.042 325.841 318.684 325.841 320.323 324.904C320.925 324.553 321.31 324.118 321.461 323.666H400.59L429.894 340.581H318.049L317.948 340.648L211.355 402.199C209.716 401.513 207.424 401.597 205.953 402.45C204.313 403.387 204.313 404.926 205.953 405.863C207.592 406.8 210.234 406.8 211.874 405.863C213.345 405.009 213.479 403.688 212.292 402.751L318.3 341.534H469.517L469.617 341.467L523.341 310.433L537.357 318.53L463.245 361.326H332.751L332.65 361.393L218.38 427.395H85.2261L7.56841 382.557C8.75593 381.62 8.62213 380.282 7.15026 379.445C5.51114 378.509 2.86847 378.509 1.22934 379.445C-0.409781 380.382 -0.409781 381.922 1.22934 382.858C2.70121 383.712 4.99264 383.779 6.63177 383.109L84.9752 428.348H218.631L218.748 428.282L333.018 362.28H428.071L288.494 442.887V464.101L232.814 496.257C231.175 495.571 228.884 495.655 227.412 496.508C225.773 497.445 225.773 498.984 227.412 499.921C229.051 500.858 231.694 500.858 233.333 499.921C234.805 499.068 234.938 497.746 233.751 496.793L289.431 464.637V443.423L429.961 362.263H462.593L392.328 402.851V411.802L358.709 431.226C357.07 430.54 354.778 430.624 353.307 431.477C351.667 432.414 351.667 433.953 353.307 434.89C354.946 435.827 357.588 435.827 359.227 434.89C360.699 434.037 360.833 432.715 359.646 431.761L377.96 421.188V445.698L272.187 506.781C270.547 506.095 268.256 506.178 266.784 507.032C265.145 507.968 265.145 509.508 266.784 510.445C268.423 511.381 271.066 511.381 272.705 510.445C274.177 509.591 274.311 508.27 273.123 507.316L378.897 446.233V420.636L393.281 412.337V403.387L464.131 362.464L463.897 362.063L538.36 319.065L551.891 326.879L475.404 371.047V443.724L334.724 524.966H336.597L453.076 457.71V523.444L450.416 524.983H452.289L453.996 523.996V457.175L476.324 444.276V371.599L552.811 327.431L564.72 334.307L505.745 368.37V408.205L505.979 408.339L573.033 447.07V460.588L535.099 482.488C533.46 481.802 531.168 481.886 529.696 482.739C528.057 483.676 528.057 485.215 529.696 486.152C531.335 487.089 533.978 487.089 535.617 486.152C537.089 485.299 537.223 483.977 536.035 483.023L573.953 461.123V446.534L573.718 446.401L506.665 407.67V368.905L551.222 343.174V359.771L530.784 371.565C529.144 370.879 526.853 370.963 525.381 371.816C523.742 372.753 523.742 374.292 525.381 375.229C527.02 376.166 529.663 376.166 531.302 375.229C532.774 374.376 532.908 373.054 531.72 372.118L552.142 360.323V342.639L565.623 334.859L581.563 344.061V372.971L551.507 390.337V410.33L551.741 410.464L615.031 447.02C613.844 447.973 613.977 449.295 615.449 450.148C617.088 451.085 619.731 451.085 621.37 450.148C623.009 449.211 623.009 447.672 621.37 446.735C619.898 445.882 617.607 445.815 615.968 446.484L552.443 409.794V390.889L581.563 374.075V394.001L620.517 416.503C619.33 417.44 619.463 418.779 620.935 419.615C622.574 420.552 625.217 420.552 626.856 419.615C628.495 418.678 628.495 417.139 626.856 416.202C625.384 415.349 623.093 415.282 621.454 415.951L582.5 393.449V344.613L593.689 351.071L593.923 350.937L612.138 340.413L628.847 350.067V373.506L673.253 399.154V421.255C672.35 421.322 671.464 421.539 670.761 421.941C669.122 422.878 669.122 424.417 670.761 425.354C672.4 426.291 675.043 426.291 676.682 425.354C678.321 424.417 678.321 422.878 676.682 421.941C675.98 421.539 675.093 421.322 674.19 421.255V398.619L629.783 372.971V350.602L701.671 392.11V436.111L662.683 458.63H626.906L626.806 458.697L565.423 494.149C563.783 493.463 561.492 493.547 560.02 494.4C558.381 495.337 558.381 496.876 560.02 497.813C561.659 498.75 564.302 498.75 565.941 497.813C567.413 496.96 567.547 495.638 566.359 494.701L627.174 459.584H661.077L548.312 524.716C546.673 524.03 544.382 524.113 542.91 524.966C542.893 524.966 542.876 525 542.86 525H549.7L702.641 436.68V391.592L702.406 391.458L613.124 339.895L631.088 329.522L783.526 417.557V470.091L835.594 500.172C834.406 501.109 834.54 502.447 836.012 503.284C837.651 504.221 840.294 504.221 841.933 503.284C843.572 502.347 843.572 500.808 841.933 499.871C840.461 499.018 838.169 498.951 836.53 499.62L784.446 469.539V417.005L784.212 416.871L632.008 328.97L649.118 319.082L799.884 406.147H889.785L894 408.59V407.502L890.036 405.21H800.135L672.869 331.714H698.459L741.896 356.793H775.348L775.448 356.726L821.845 329.923C823.484 330.609 825.776 330.526 827.247 329.673C828.887 328.736 828.887 327.196 827.247 326.26C825.608 325.323 822.966 325.323 821.327 326.26C819.855 327.113 819.721 328.434 820.908 329.388L775.08 355.856H742.13L698.693 330.777H671.23L650.038 318.547L695.699 292.18L708.679 299.675V319.367L741.662 338.423C740.474 339.359 740.608 340.698 742.08 341.534C743.719 342.471 746.362 342.471 748.001 341.534C749.64 340.597 749.64 339.058 748.001 338.121C746.529 337.268 744.238 337.201 742.598 337.87L709.615 318.814V300.21L744.79 320.521H761.448L761.549 320.454L781.419 308.977C783.058 309.663 785.349 309.579 786.821 308.726C788.46 307.789 788.46 306.25 786.821 305.313C785.182 304.376 782.54 304.376 780.9 305.313C779.429 306.166 779.295 307.488 780.482 308.442L761.197 319.584H745.04L696.619 291.628L705.417 286.542L704.715 286.14L677.351 270.33L690.498 262.734H710.368L724.585 270.949C723.447 271.886 723.598 273.191 725.053 274.027C726.692 274.964 729.335 274.964 730.974 274.027C732.613 273.09 732.613 271.551 730.974 270.614C729.485 269.744 727.144 269.694 725.505 270.397L710.602 261.797H692.103L725.622 242.44L804.484 287.98H861.234L861.335 287.913L893.281 269.46C893.482 269.543 893.716 269.577 893.95 269.644V265.327C893.532 265.445 893.13 265.595 892.779 265.796C891.307 266.649 891.173 267.971 892.361 268.924L860.983 287.043H804.735L743.92 251.91H769.945L795.385 266.599C794.197 267.553 794.331 268.874 795.803 269.728C797.442 270.664 800.085 270.664 801.724 269.728C803.363 268.791 803.363 267.251 801.724 266.315C800.252 265.461 797.961 265.394 796.322 266.064L770.179 250.973H742.264L726.525 241.888L766.566 218.767H893.916V217.83H768.189L784.078 208.662H878.796L878.913 208.595L893.933 199.928V198.841L878.562 207.725H783.844L783.744 207.792L676.398 269.778L664.489 262.902L777.338 197.72H859.879L859.98 197.653L893.95 178.028V176.941L859.612 196.766H777.07L776.97 196.833L663.536 262.349L650.005 254.536L870.116 127.419V81.3097L893.95 67.5406V66.4531L893.866 66.3695ZM703.443 286.424L593.572 349.866L483.717 286.424L593.589 222.983L703.443 286.424Z" fill="url(#paint0_linear_1162_20104)"/>
<defs>
<linearGradient id="paint0_linear_1162_20104" x1="180.5" y1="454" x2="900.5" y2="73.5" gradientUnits="userSpaceOnUse">
<stop stop-color="#DAE6FF" stop-opacity="0"/>
<stop offset="1" stop-color="#DAE6FF"/>
</linearGradient>
</defs>
</svg>
