<svg width="1105" height="665" viewBox="0 0 1105 665" fill="none" xmlns="http://www.w3.org/2000/svg">
<path opacity="0.5" d="M1074.15 0.994295C1071.87 -0.331432 1068.17 -0.331432 1065.88 0.994295C1064.17 1.98859 1063.75 3.44321 1064.61 4.65846L936.589 78.5678V171.866L905.398 189.874V291.347L798.567 353.03L781.921 343.419L864.301 295.858V240.233L863.969 240.049L770.303 185.97V167.097L823.277 136.513C825.56 137.471 828.764 137.36 830.826 136.182C833.109 134.856 833.109 132.72 830.826 131.413C828.543 130.087 824.842 130.087 822.559 131.413C820.496 132.61 820.312 134.451 821.969 135.777L768.995 166.36V186.743L769.327 186.928L862.993 241.006V295.122L800.758 331.064V307.882L829.298 291.402C831.581 292.36 834.785 292.249 836.847 291.071C839.13 289.745 839.13 287.609 836.847 286.302C834.564 284.976 830.863 284.976 828.58 286.302C826.517 287.499 826.333 289.34 827.99 290.666L799.45 307.145V331.837L780.614 342.7L758.353 329.848V289.487L800.334 265.238V237.342L800.003 237.158L711.603 186.117C713.26 184.792 713.076 182.95 711.013 181.753C708.73 180.428 705.029 180.428 702.746 181.753C700.463 183.079 700.463 185.215 702.746 186.522C704.808 187.719 708.012 187.811 710.295 186.854L799.008 238.079V264.464L758.334 287.959V260.137L758.003 259.953L703.924 228.725C705.581 227.399 705.397 225.558 703.335 224.361C701.052 223.035 697.351 223.035 695.068 224.361C692.785 225.687 692.785 227.823 695.068 229.13C697.13 230.327 700.334 230.419 702.617 229.461L757.027 260.874V329.057L741.395 320.034L715.635 334.912L692.306 321.434V288.695L691.974 288.511L630.291 252.901V222.041C631.562 221.967 632.795 221.654 633.771 221.083C636.054 219.758 636.054 217.622 633.771 216.314C631.488 214.989 627.787 214.989 625.504 216.314C623.221 217.64 623.221 219.776 625.504 221.083C626.48 221.654 627.713 221.949 628.984 222.041V253.656L629.315 253.84L690.999 289.45V320.679L590.612 262.715V201.271L645.058 169.84H695.031L695.178 169.748L780.927 120.254C783.21 121.212 786.414 121.101 788.476 119.923C790.759 118.597 790.759 116.461 788.476 115.154C786.193 113.828 782.492 113.828 780.209 115.154C778.147 116.351 777.963 118.192 779.62 119.518L694.681 168.551H647.323L804.845 77.6103C807.129 78.5677 810.332 78.4573 812.395 77.2789C814.678 75.9531 814.678 73.8172 812.395 72.5099C810.111 71.1842 806.41 71.1842 804.127 72.5099C802.065 73.7067 801.881 75.548 803.538 76.8738L589.304 200.553V263.507L589.636 263.691L714.346 335.685L689.249 350.176L476.323 227.252V153.895L475.991 153.711L403.573 111.913C405.231 110.588 405.047 108.746 402.984 107.55C400.701 106.224 397 106.224 394.717 107.55C392.434 108.875 392.434 111.011 394.717 112.319C396.779 113.515 399.983 113.607 402.266 112.65L474.997 154.65V228.007L475.328 228.191L687.924 350.931L664.024 364.722L453.454 243.142H327.878L249.402 197.828V128.19C250.231 128.025 251.023 127.767 251.667 127.399C253.95 126.073 253.95 123.937 251.667 122.63C249.384 121.304 245.683 121.304 243.4 122.63C241.117 123.955 241.117 126.091 243.4 127.399C244.689 128.135 246.42 128.448 248.095 128.356V198.583L248.427 198.767L327.547 244.449H453.123L630.88 347.083H595.123L534.452 312.061H487.72L487.573 312.154L422.76 349.568C420.477 348.611 417.273 348.721 415.21 349.9C412.927 351.226 412.927 353.362 415.21 354.669C417.494 355.995 421.195 355.995 423.478 354.669C425.54 353.472 425.724 351.631 424.067 350.305L488.07 313.35H534.102L594.773 348.372H633.145L662.735 365.459L598.953 402.285L580.816 391.808V364.317L534.747 337.711C536.404 336.385 536.22 334.544 534.158 333.347C531.874 332.021 528.173 332.021 525.89 333.347C523.607 334.672 523.607 336.808 525.89 338.116C527.952 339.313 531.156 339.405 533.439 338.447L579.509 365.054V391.034L530.365 362.66H507.091L506.943 362.752L479.214 378.771C476.93 377.814 473.727 377.924 471.664 379.103C469.381 380.428 469.381 382.564 471.664 383.872C473.947 385.197 477.648 385.197 479.932 383.872C481.994 382.675 482.178 380.834 480.521 379.508L507.459 363.949H530.015L597.645 402.984L585.364 410.073L624.565 432.703L606.207 443.308H578.441L558.573 431.837C560.157 430.53 559.936 428.707 557.91 427.529C555.627 426.203 551.926 426.203 549.643 427.529C547.36 428.854 547.36 430.99 549.643 432.298C551.724 433.494 554.983 433.586 557.284 432.592L578.091 444.597H603.942L557.118 471.627L446.973 408.029H367.705L367.558 408.121L322.925 433.881C320.642 432.924 317.438 433.034 315.376 434.212C313.093 435.538 313.093 437.674 315.376 438.981C317.659 440.307 321.36 440.307 323.643 438.981C325.705 437.785 325.89 435.943 324.232 434.618L368.055 409.318H446.604L531.561 458.37H495.196L459.659 437.858C461.316 436.532 461.132 434.691 459.07 433.494C456.787 432.169 453.086 432.169 450.803 433.494C448.519 434.82 448.519 436.956 450.803 438.263C452.865 439.46 456.069 439.552 458.352 438.595L494.846 459.677H533.826L555.793 472.364L499.873 504.642H321.157L182.306 424.472C183.963 423.146 183.779 421.305 181.717 420.108C179.434 418.782 175.733 418.782 173.449 420.108C171.166 421.434 171.166 423.57 173.449 424.877C175.512 426.074 178.715 426.166 180.999 425.209L320.808 505.931H497.608L475.421 518.746H343.124L342.977 518.838L277.74 556.511C275.457 555.553 272.253 555.664 270.191 556.842C267.907 558.168 267.907 560.304 270.191 561.611C272.474 562.937 276.175 562.937 278.458 561.611C280.52 560.414 280.704 558.573 279.047 557.247L343.492 520.053H475.789L475.936 519.961L625.872 433.402L642.517 443.014L484.885 534.029H369.602L369.454 534.121L230.216 614.511H37.2861L0 592.987V594.497L36.9362 615.819H230.548L230.695 615.727L318.082 565.275V595.141L260.487 628.395C258.204 627.437 255 627.548 252.938 628.726C250.655 630.052 250.655 632.188 252.938 633.495C255.221 634.821 258.922 634.821 261.205 633.495C263.267 632.298 263.451 630.457 261.794 629.131L319.39 595.878V564.686H319.095L369.952 535.318H485.235L485.382 535.226L643.825 443.75L662.735 454.669L355.313 632.151V664.226H356.621V632.906L664.042 455.424L687.408 468.921L528.836 560.47V576.839L500.72 593.079V630.733L446.199 662.219C443.916 661.262 440.712 661.372 438.65 662.551C437.821 663.029 437.287 663.619 437.066 664.245H448.464C448.298 663.784 447.985 663.361 447.507 662.974L502.027 631.488V593.834L528.836 578.348V638.632L544.653 647.765L516.15 664.226H518.764L545.96 648.52L573.156 664.226H575.771L530.125 637.877V561.224L688.697 469.676L709.964 481.957L597.737 546.752C595.454 545.795 592.25 545.905 590.188 547.083C587.905 548.409 587.905 550.545 590.188 551.852C592.471 553.178 596.172 553.178 598.455 551.852C600.518 550.655 600.702 548.814 599.045 547.488L711.271 482.694L731.801 494.551L597.553 572.051H561.077C560.856 571.425 560.322 570.818 559.475 570.32C557.192 568.995 553.491 568.995 551.208 570.32C548.925 571.646 548.925 573.782 551.208 575.089C553.491 576.415 557.192 576.415 559.475 575.089C560.322 574.592 560.856 573.985 561.077 573.359H597.903L598.05 573.267L733.09 495.306L741.376 500.094L747.747 496.411L779.914 514.99V540.841L753.345 556.179V556.106H711.639L711.492 556.198L665.736 582.62C663.453 581.663 660.249 581.773 658.187 582.952C655.904 584.277 655.904 586.413 658.187 587.721C660.47 589.046 664.171 589.046 666.454 587.721C668.516 586.524 668.7 584.683 667.043 583.357L711.989 557.413H751.19L673.064 602.506C670.763 601.475 667.467 601.549 665.349 602.764C663.066 604.09 663.066 606.226 665.349 607.533C667.633 608.859 671.334 608.859 673.617 607.533C675.624 606.373 675.863 604.587 674.335 603.261L771.776 547.01V559.438L713.812 592.913V616.537L666.62 643.788C664.337 642.83 661.133 642.941 659.071 644.119C656.787 645.445 656.787 647.581 659.071 648.888C661.354 650.214 665.055 650.214 667.338 648.888C669.4 647.691 669.584 645.85 667.927 644.524L715.119 617.273V593.65L773.083 560.175V546.236L781.203 541.541V514.18L749.036 495.619L770.174 483.412L836.35 521.618V565.054L791.404 590.998C789.102 589.967 785.806 590.041 783.689 591.256C781.406 592.582 781.406 594.718 783.689 596.025C785.972 597.351 789.673 597.351 791.956 596.025C793.963 594.865 794.203 593.079 792.674 591.753L836.331 566.546V601.641L801.844 621.564V664.171H803.151V622.318L836.331 603.169V664.171H837.639V520.863L771.463 482.657L795.197 468.958L881.701 518.893V637.84L923.277 661.851V664.189H924.584V661.096L883.008 637.086V518.138L796.504 468.203L814.089 458.039L930.826 525.43V626.903L995.363 664.171H997.978L932.134 626.148V524.675L815.396 457.284L843.899 440.823L1038.14 552.957V603.445L1104.7 641.873V640.363L1039.44 602.69V552.202L930.2 489.12H1016.59L1104.7 539.994V538.485L1016.94 487.812H927.917L845.206 440.068L878.35 420.937L949.442 461.979H1063.6L1104.7 485.695V484.185L1095.7 478.993H1104.7V477.685H1093.43L1063.97 460.672H949.81L929.906 449.182H978.442L978.589 449.09L1002.93 435.041H1104.37L1104.7 435.225V433.715H1005.2L1032.59 417.899C1034.88 418.856 1038.08 418.746 1040.14 417.567C1042.43 416.242 1042.43 414.106 1040.14 412.798C1037.86 411.473 1034.16 411.473 1031.88 412.798C1029.81 413.995 1029.63 415.836 1031.29 417.162L978.074 447.893H927.622L879.638 420.2L897.37 409.963L885.954 403.371H919.116L962.46 428.394C960.802 429.72 960.987 431.561 963.049 432.758C965.332 434.084 969.033 434.084 971.316 432.758C973.599 431.432 973.599 429.296 971.316 427.989C969.254 426.792 966.05 426.7 963.767 427.658L919.465 402.082H883.689L859.421 388.07L874.336 379.453H900.795L924.069 366.011H941.432L980.652 388.659C978.884 389.985 979.031 391.881 981.13 393.096C983.413 394.422 987.114 394.422 989.398 393.096C991.681 391.771 991.681 389.635 989.398 388.328C987.372 387.168 984.26 387.039 981.977 387.922L941.782 364.722H923.719L900.445 378.164H876.6L924.308 350.618H950.068L1003.76 381.607H1104.68V380.3H1004.11L950.418 349.311H923.958L923.811 349.403L858.114 387.333L840.879 377.39L915.12 334.525H967.486L1010.68 359.456H1104.7V358.149H1011.05L970.119 334.525H1104.7V333.218H914.789L914.641 333.31L839.609 376.635L820.018 365.33L923.535 305.562H1104.7V304.254H972.679L1104.7 228.025V226.515L970.064 304.254H924.492L1022.63 247.598V235.114L1069.6 208.01C1071.89 208.968 1075.09 208.857 1077.15 207.679C1079.44 206.353 1079.44 204.217 1077.15 202.91C1074.87 201.584 1071.17 201.584 1068.89 202.91C1066.82 204.107 1066.64 205.948 1068.3 207.274L1042.72 222.041V187.811L1104.72 152.017V150.507L1041.41 187.056V222.796L1021.33 234.396V246.88L922.375 304.015L922.706 304.586L818.71 364.63L799.8 353.711L906.632 292.028V190.555L1104.7 76.1925V74.6826L937.823 171.037V79.249L1065.55 5.50545C1065.65 5.56069 1065.72 5.63434 1065.81 5.68958C1068.09 7.0153 1071.8 7.0153 1074.08 5.68958C1076.36 4.36385 1076.36 2.22796 1074.08 0.920642L1074.15 0.994295ZM894.847 410.128L741.395 498.731L587.96 410.147L741.413 321.544L894.847 410.128Z" fill="#EC963C"/>
<path opacity="0.1" d="M1104.77 159.731L1077.5 175.474V226.22L835.189 366.121L816.777 355.497L941.763 283.337V270.43L963.914 257.633V227.969L1006.89 203.167C1008.69 203.922 1011.22 203.83 1012.84 202.891C1014.64 201.86 1014.64 200.166 1012.84 199.135C1011.03 198.104 1008.12 198.104 1006.32 199.135C1004.7 200.074 1004.55 201.529 1005.86 202.578L962.883 227.399V257.062L941.763 269.251V221.746L941.505 221.599L929.298 214.547L1002.56 172.252V124.673L1054.62 94.6234C1056.42 95.3784 1058.94 95.2863 1060.56 94.3473C1062.37 93.3161 1062.37 91.6221 1060.56 90.591C1058.76 89.5599 1055.85 89.5599 1054.04 90.591C1052.42 91.5301 1052.28 92.9847 1053.58 94.0342L1001.53 124.084V171.663L928.267 213.957L809.154 145.185V91.972C810.148 91.8983 811.124 91.659 811.897 91.2171C813.702 90.1859 813.702 88.492 811.897 87.4608C810.093 86.4297 807.183 86.4297 805.379 87.4608C803.575 88.492 803.575 90.1859 805.379 91.2171C806.152 91.659 807.128 91.8983 808.123 91.972V145.774L808.38 145.922L880.025 187.295H827.806L785.585 162.917C786.892 161.886 786.745 160.413 785.125 159.474C783.32 158.442 780.411 158.442 778.607 159.474C776.802 160.505 776.802 162.199 778.607 163.23C780.227 164.169 782.75 164.243 784.554 163.506L827.53 188.327H881.792L940.75 222.354V282.766L815.764 354.926L799.008 345.26L887.464 294.182C889.268 294.937 891.791 294.845 893.411 293.906C895.215 292.875 895.215 291.181 893.411 290.15C891.606 289.119 888.697 289.119 886.893 290.15C885.272 291.089 885.125 292.543 886.432 293.593L797.977 344.67L781.792 335.335L887.592 274.241H916.353C916.519 274.738 916.943 275.217 917.624 275.604C919.428 276.635 922.338 276.635 924.142 275.604C925.946 274.572 925.946 272.879 924.142 271.847C922.338 270.816 919.428 270.816 917.624 271.847C916.961 272.234 916.538 272.713 916.372 273.21H887.335L887.224 273.284L780.779 334.746L774.243 330.971L773.985 331.118L769.216 333.88L743.862 319.242V298.877L764.815 286.78V286.835H797.682L833.864 265.937C835.668 266.692 838.191 266.6 839.811 265.661C841.616 264.63 841.616 262.936 839.811 261.904C838.007 260.873 835.097 260.873 833.293 261.904C831.673 262.843 831.525 264.298 832.833 265.348L797.406 285.804H766.509L828.082 250.249C829.887 251.059 832.501 251.004 834.158 250.047C835.963 249.015 835.963 247.321 834.158 246.29C832.354 245.259 829.445 245.259 827.64 246.29C826.057 247.211 825.872 248.61 827.069 249.66L750.269 293.998V284.202L795.97 257.817V239.183L833.164 217.714C834.968 218.468 837.491 218.376 839.111 217.437C840.916 216.406 840.916 214.712 839.111 213.681C837.307 212.65 834.398 212.65 832.593 213.681C830.973 214.62 830.826 216.075 832.133 217.124L794.939 238.612V257.246L749.238 283.632V294.624L742.83 298.325V319.887L768.185 334.525L751.521 344.136L699.358 314.013V279.783L734.784 259.327C736.588 260.137 739.203 260.082 740.86 259.124C742.665 258.093 742.665 256.399 740.86 255.368C739.056 254.337 736.147 254.337 734.342 255.368C732.759 256.289 732.574 257.688 733.771 258.737L699.358 278.605V250.949L726.553 235.261V183.226C727.548 183.153 728.524 182.913 729.297 182.471C731.101 181.44 731.101 179.746 729.297 178.715C727.492 177.684 724.583 177.684 722.779 178.715C720.974 179.746 720.974 181.44 722.779 182.471C723.552 182.913 724.528 183.153 725.522 183.226V234.653L699.358 249.752V158.019H698.327V314.639L750.49 344.762L731.783 355.571L663.6 316.204V222.464L630.825 203.536V168.275L601.88 151.574C603.187 150.543 603.04 149.07 601.42 148.131C599.615 147.1 596.706 147.1 594.901 148.131C593.097 149.162 593.097 150.856 594.901 151.887C596.522 152.827 599.044 152.9 600.849 152.164L629.794 168.864V204.125L662.569 223.053V316.793L730.752 356.16L716.887 364.17L624.878 311.048V231.063L624.62 230.916L543.18 183.889C544.487 182.858 544.34 181.385 542.719 180.446C540.915 179.415 538.006 179.415 536.201 180.446C534.397 181.477 534.397 183.171 536.201 184.202C537.821 185.141 540.344 185.215 542.149 184.478L623.846 231.652V311.638L624.104 311.785L715.856 364.759L693.392 377.74L540.307 289.358V249.549L540.049 249.402L411.896 175.401C413.203 174.37 413.056 172.897 411.435 171.958C409.631 170.926 406.722 170.926 404.917 171.958C403.113 172.989 403.113 174.683 404.917 175.714C406.538 176.653 409.06 176.726 410.865 175.99L539.295 250.139V289.947L539.552 290.095L625.393 339.662H557.302L478.477 294.145C479.784 293.096 479.637 291.641 478.016 290.702C476.212 289.671 473.303 289.671 471.498 290.702C469.694 291.733 469.694 293.427 471.498 294.458C473.119 295.397 475.641 295.471 477.446 294.735L557.026 340.693H627.179L692.379 378.329L666.27 393.409L610.239 361.058H520.256L417.917 301.971H361.15L338.005 288.603C339.312 287.572 339.165 286.099 337.545 285.16C335.74 284.129 332.831 284.129 331.026 285.16C329.222 286.191 329.222 287.885 331.026 288.916C332.647 289.855 335.169 289.929 336.974 289.192L360.874 302.984H417.641L494.975 347.635H428.173L396.006 329.056C397.313 328.025 397.166 326.552 395.545 325.613C393.741 324.582 390.831 324.582 389.027 325.613C387.223 326.644 387.223 328.338 389.027 329.369C390.647 330.308 393.17 330.382 394.974 329.645L427.897 348.647H496.761L519.979 362.052H609.963L625.651 371.111H587.407L587.297 371.185L568.111 382.269H488.162L465.606 369.251H420.384C420.218 368.754 419.795 368.276 419.132 367.889C417.328 366.858 414.418 366.858 412.614 367.889C410.809 368.92 410.809 370.614 412.614 371.645C414.418 372.676 417.328 372.676 419.132 371.645C419.795 371.259 420.218 370.78 420.403 370.283H465.348L487.904 383.301H566.343L544.745 395.766C542.94 395.011 540.418 395.103 538.797 396.042C536.993 397.073 536.993 398.767 538.797 399.798C540.602 400.83 543.511 400.83 545.316 399.798C546.936 398.859 547.083 397.405 545.776 396.374L587.72 372.161H627.492L665.312 393.998L651.337 402.063L652.11 402.505L660.322 407.256H634.194L600.02 387.536C601.327 386.504 601.18 385.031 599.56 384.092C597.755 383.061 594.846 383.061 593.042 384.092C591.237 385.123 591.237 386.817 593.042 387.849C594.662 388.788 597.185 388.861 598.989 388.125L633.918 408.287H662.127L681.258 419.335L669.492 426.129H648.63L648.52 426.203L630.291 436.716H616.61L585.695 418.874C587.076 417.825 586.965 416.333 585.308 415.376C583.504 414.345 580.595 414.345 578.79 415.376C576.986 416.407 576.986 418.101 578.79 419.132C580.374 420.053 582.841 420.145 584.645 419.445L616.334 437.729H630.567L630.678 437.655L648.906 427.142H667.706L630.107 448.85H609.816L567.503 424.416H439.902L360.745 378.716C362.107 377.666 361.997 376.193 360.34 375.236C358.535 374.205 355.626 374.205 353.822 375.236C352.017 376.267 352.017 377.961 353.822 378.992C355.424 379.913 357.891 380.005 359.695 379.305L439.607 425.448H567.208L609.521 449.881H630.383L630.493 449.808L682.27 419.905L695.859 427.749L637.343 461.537H596.08L562.034 441.872H474.647C474.481 441.375 474.058 440.896 473.376 440.509C471.572 439.478 468.663 439.478 466.858 440.509C465.054 441.54 465.054 443.234 466.858 444.266C468.663 445.297 471.572 445.297 473.376 444.266C474.039 443.879 474.463 443.4 474.628 442.903H561.74L593.999 461.518H470.872L470.762 461.592L353.417 529.333C351.612 528.578 349.09 528.67 347.469 529.609C345.665 530.64 345.665 532.334 347.469 533.365C349.274 534.397 352.183 534.397 353.987 533.365C355.608 532.426 355.755 530.972 354.448 529.941L471.148 462.568H637.619L637.73 462.494L696.872 428.338L712.302 437.25L630.714 484.35H487.057L486.947 484.424L361.15 557.063H214.565L129.074 507.716C130.381 506.685 130.234 505.212 128.614 504.292C126.809 503.26 123.9 503.26 122.096 504.292C120.291 505.323 120.291 507.017 122.096 508.048C123.716 508.987 126.238 509.061 128.043 508.324L214.289 558.112H361.426L361.555 558.039L487.352 485.4H591.992L438.337 574.113V597.461L377.04 632.85C375.236 632.095 372.713 632.187 371.093 633.126C369.288 634.158 369.288 635.852 371.093 636.883C372.897 637.914 375.807 637.914 377.611 636.883C379.231 635.944 379.379 634.489 378.071 633.439L439.368 598.05V574.702L594.073 485.382H629.996L552.644 530.051V539.902L515.634 561.279C513.83 560.524 511.307 560.617 509.687 561.556C507.882 562.587 507.882 564.281 509.687 565.312C511.491 566.343 514.4 566.343 516.205 565.312C517.825 564.373 517.972 562.918 516.665 561.869L536.827 550.232V577.207L420.384 644.432C418.58 643.677 416.057 643.769 414.437 644.708C412.632 645.739 412.632 647.433 414.437 648.464C416.241 649.496 419.15 649.496 420.955 648.464C422.575 647.525 422.723 646.071 421.415 645.021L537.858 577.796V549.624L553.693 540.491V530.64L631.69 485.603L631.433 485.161L713.407 437.839L728.303 446.438L644.101 495.048V575.034L489.23 664.447H491.292L619.519 590.427V662.771L616.592 664.465H618.654L620.532 663.379V589.838L645.113 575.641V495.656L729.315 447.046L742.425 454.614L677.502 492.102V535.943L677.759 536.091L751.577 578.716V593.594L709.816 617.696C708.012 616.942 705.489 617.034 703.869 617.973C702.064 619.004 702.064 620.698 703.869 621.729C705.673 622.76 708.582 622.76 710.387 621.729C712.007 620.79 712.155 619.335 710.847 618.286L752.589 594.183V578.127L752.331 577.98L678.514 535.354V492.691L727.566 464.372V482.638L705.066 495.619C703.261 494.864 700.739 494.956 699.118 495.895C697.314 496.926 697.314 498.62 699.118 499.651C700.923 500.683 703.832 500.683 705.636 499.651C707.257 498.712 707.404 497.258 706.097 496.227L728.579 483.246V463.783L743.42 455.221L760.967 465.348V497.166L727.879 516.278V538.282L728.137 538.429L797.811 578.661C796.504 579.711 796.651 581.165 798.272 582.104C800.076 583.135 802.985 583.135 804.79 582.104C806.594 581.073 806.594 579.379 804.79 578.348C803.169 577.409 800.647 577.335 798.842 578.072L728.91 537.692V516.886L760.967 498.381V520.311L803.851 545.076C802.543 546.107 802.691 547.58 804.311 548.501C806.116 549.532 809.025 549.532 810.829 548.501C812.634 547.47 812.634 545.776 810.829 544.745C809.209 543.806 806.686 543.732 804.882 544.468L761.998 519.703V465.956L774.316 473.063L774.574 472.916L794.626 461.334L813.02 471.959V497.755L861.907 525.982V550.305C860.912 550.379 859.936 550.618 859.163 551.06C857.359 552.091 857.359 553.785 859.163 554.817C860.967 555.848 863.877 555.848 865.681 554.817C867.486 553.785 867.486 552.091 865.681 551.06C864.908 550.618 863.932 550.379 862.938 550.305V525.393L814.051 497.166V472.548L893.19 518.23V566.656L850.27 591.44H810.884L810.774 591.513L743.199 630.53C741.394 629.775 738.872 629.867 737.251 630.806C735.447 631.838 735.447 633.532 737.251 634.563C739.056 635.594 741.965 635.594 743.769 634.563C745.39 633.624 745.537 632.169 744.23 631.138L811.179 592.489H848.502L724.362 664.171C722.558 663.416 720.035 663.508 718.415 664.447C718.397 664.447 718.378 664.484 718.36 664.484H725.891L894.258 567.282V517.659L894 517.512L795.712 460.763L815.488 449.348L983.303 546.236V604.053L1040.62 637.159C1039.31 638.19 1039.46 639.663 1041.08 640.584C1042.89 641.615 1045.8 641.615 1047.6 640.584C1049.4 639.553 1049.4 637.859 1047.6 636.827C1045.98 635.888 1043.46 635.815 1041.65 636.551L984.315 603.445V545.628L984.058 545.481L816.5 448.74L835.337 437.858L1001.31 533.678H1100.28L1104.92 536.367V535.17L1100.56 532.647H1001.59L861.483 451.76H889.655L937.473 479.361H974.299L974.409 479.287L1025.49 449.789C1027.29 450.544 1029.81 450.452 1031.43 449.513C1033.24 448.482 1033.24 446.788 1031.43 445.757C1029.63 444.726 1026.72 444.726 1024.92 445.757C1023.3 446.696 1023.15 448.151 1024.46 449.2L974.004 478.329H937.731L889.912 450.729H859.679L836.349 437.269L886.617 408.25L900.905 416.499V438.171L937.215 459.143C935.908 460.174 936.055 461.647 937.675 462.568C939.48 463.599 942.389 463.599 944.194 462.568C945.998 461.537 945.998 459.843 944.194 458.812C942.573 457.873 940.051 457.799 938.246 458.536L901.936 437.563V417.088L940.658 439.441H958.998L959.108 439.368L980.983 426.737C982.787 427.491 985.31 427.399 986.93 426.46C988.734 425.429 988.734 423.735 986.93 422.704C985.125 421.673 982.216 421.673 980.412 422.704C978.791 423.643 978.644 425.098 979.952 426.147L958.721 438.41H940.935L887.629 407.642L897.314 402.045L896.541 401.603L866.418 384.203L880.89 375.843H902.765L918.416 384.884C917.164 385.915 917.329 387.351 918.931 388.272C920.736 389.303 923.645 389.303 925.449 388.272C927.254 387.241 927.254 385.547 925.449 384.516C923.811 383.558 921.233 383.503 919.428 384.276L903.022 374.812H882.658L919.557 353.508L1006.37 403.628H1068.85L1068.96 403.555L1104.13 383.245C1104.35 383.337 1104.61 383.374 1104.86 383.448V378.697C1104.4 378.826 1103.96 378.992 1103.58 379.213C1101.96 380.152 1101.81 381.607 1103.12 382.656L1068.57 402.597H1006.65L939.701 363.93H968.351L996.357 380.097C995.05 381.146 995.197 382.601 996.818 383.54C998.622 384.571 1001.53 384.571 1003.34 383.54C1005.14 382.509 1005.14 380.815 1003.34 379.784C1001.72 378.845 999.193 378.771 997.388 379.507L968.609 362.899H937.878L920.552 352.901L964.632 327.454H1104.83V326.423H966.418L983.91 316.333H1088.18L1088.31 316.259L1104.85 306.721V305.525L1087.92 315.302H983.652L983.542 315.375L865.368 383.595L852.258 376.027L976.49 304.291H1067.36L1067.47 304.217L1104.86 282.619V281.422L1067.06 303.241H976.195L976.085 303.315L851.209 375.42L836.313 366.821L1078.63 226.92V176.174L1104.86 161.02V159.823L1104.77 159.731ZM895.142 401.916L774.188 471.738L653.252 401.916L774.206 332.094L895.142 401.916Z" fill="#42E8E0"/>
</svg>
