<svg width="1105" height="666" viewBox="0 0 1105 666" fill="none" xmlns="http://www.w3.org/2000/svg">
<path opacity="0.5" d="M1074.14 1.98258C1071.86 0.65685 1068.16 0.65685 1065.88 1.98258C1064.16 2.97687 1063.74 4.43151 1064.61 5.64676L936.582 79.556V172.854L905.39 190.862V292.335L798.559 354.019L781.914 344.407L864.293 296.847V241.221L863.962 241.037L770.295 186.958V168.085L823.269 137.501C825.552 138.459 828.756 138.348 830.819 137.17C833.102 135.844 833.102 133.708 830.819 132.401C828.535 131.075 824.834 131.075 822.551 132.401C820.489 133.598 820.305 135.439 821.962 136.765L768.988 167.349V187.732L769.319 187.916L862.986 241.995V296.11L800.75 332.052V308.87L829.29 292.391C831.574 293.348 834.777 293.238 836.84 292.059C839.123 290.734 839.123 288.598 836.84 287.29C834.556 285.965 830.855 285.965 828.572 287.29C826.51 288.487 826.326 290.328 827.983 291.654L799.443 308.134V332.825L780.607 343.689L758.345 330.837V290.476L800.327 266.226V238.331L799.995 238.146L711.595 187.106C713.252 185.78 713.068 183.939 711.006 182.742C708.723 181.416 705.022 181.416 702.738 182.742C700.455 184.067 700.455 186.203 702.738 187.511C704.801 188.708 708.005 188.8 710.288 187.842L799.001 239.067V265.453L758.327 288.947V261.126L757.996 260.941L703.917 229.713C705.574 228.388 705.39 226.546 703.328 225.349C701.044 224.024 697.343 224.024 695.06 225.349C692.777 226.675 692.777 228.811 695.06 230.118C697.122 231.315 700.326 231.407 702.609 230.45L757.02 261.862V330.045L741.387 321.023L715.627 335.9L692.298 322.422V289.684L691.967 289.5L630.284 253.889V223.029C631.554 222.956 632.788 222.643 633.764 222.072C636.047 220.746 636.047 218.61 633.764 217.303C631.481 215.977 627.78 215.977 625.496 217.303C623.213 218.629 623.213 220.765 625.496 222.072C626.472 222.643 627.706 222.937 628.976 223.029V254.644L629.308 254.828L690.991 290.439V321.667L590.604 263.703V202.26L645.051 170.829H695.023L695.171 170.737L780.92 121.243C783.203 122.2 786.407 122.09 788.469 120.911C790.752 119.586 790.752 117.45 788.469 116.142C786.186 114.817 782.485 114.817 780.202 116.142C778.139 117.339 777.955 119.18 779.612 120.506L694.674 169.54H647.316L804.838 78.5985C807.121 79.556 810.325 79.4456 812.387 78.2671C814.67 76.9414 814.67 74.8055 812.387 73.4982C810.104 72.1725 806.403 72.1725 804.12 73.4982C802.058 74.6951 801.874 76.5363 803.531 77.862L589.297 201.541V264.495L589.628 264.679L714.339 336.674L689.242 351.165L476.315 228.24L474.99 228.995L475.321 229.179L687.916 351.919L664.016 365.711L453.446 244.131L453.115 245.438L630.873 348.071H595.115L534.445 313.05H487.713L487.565 313.142L422.752 350.557C420.469 349.599 417.265 349.71 415.203 350.888C412.92 352.214 412.92 354.35 415.203 355.657C417.486 356.983 421.187 356.983 423.47 355.657C425.533 354.46 425.717 352.619 424.059 351.293L488.063 314.339H534.095L594.765 349.36H633.138L662.727 366.447L598.945 403.273L580.808 392.796V365.306L534.739 338.699C536.396 337.373 536.212 335.532 534.15 334.335C531.867 333.009 528.166 333.009 525.883 334.335C523.599 335.661 523.599 337.797 525.883 339.104C527.945 340.301 531.149 340.393 533.432 339.436L579.501 366.042V392.023L530.357 363.648H507.083L506.936 363.741L479.206 379.76C476.923 378.802 473.719 378.913 471.657 380.091C469.374 381.417 469.374 383.553 471.657 384.86C473.94 386.186 477.641 386.186 479.924 384.86C481.986 383.663 482.171 381.822 480.513 380.496L507.451 364.937H530.007L597.638 403.973L585.356 411.062L624.557 433.691L606.2 444.297H578.433L558.565 432.826C560.149 431.518 559.928 429.695 557.903 428.517C555.619 427.191 551.919 427.191 549.635 428.517C547.352 429.843 547.352 431.979 549.635 433.286C551.716 434.483 554.975 434.575 557.277 433.581L578.083 445.586H603.935L557.111 472.616L446.965 409.018H367.697L367.55 409.11L322.917 434.869C320.634 433.912 317.43 434.023 315.368 435.201C313.085 436.527 313.085 438.663 315.368 439.97C317.651 441.296 321.352 441.296 323.635 439.97C325.698 438.773 325.882 436.932 324.225 435.606L368.047 410.307H446.597L531.554 459.359H495.188L459.652 438.847C461.309 437.521 461.125 435.68 459.062 434.483C456.779 433.157 453.078 433.157 450.795 434.483C448.512 435.809 448.512 437.944 450.795 439.252C452.857 440.449 456.061 440.541 458.344 439.583L494.839 460.666H533.819L555.785 473.353L499.865 505.63H321.15L182.298 425.461C183.955 424.135 183.771 422.294 181.709 421.097C179.426 419.771 175.725 419.771 173.441 421.097C171.158 422.422 171.158 424.558 173.441 425.866C175.504 427.062 178.707 427.154 180.991 426.197L320.8 506.919H497.6L475.413 519.734H343.116L342.969 519.827L277.732 557.499C275.449 556.542 272.245 556.652 270.183 557.831C267.9 559.156 267.9 561.292 270.183 562.6C272.466 563.925 276.167 563.925 278.45 562.6C280.512 561.403 280.697 559.561 279.039 558.236L343.484 521.042H475.781L475.929 520.95L625.865 434.391L642.51 444.002L484.877 535.017H369.594L369.447 535.109L230.208 615.5H37.2783L-0.0078125 593.975V595.485L36.9285 616.807H230.54L230.687 616.715L318.075 566.264V596.129L260.479 629.383C258.196 628.426 254.992 628.536 252.93 629.714C250.647 631.04 250.647 633.176 252.93 634.483C255.213 635.809 258.914 635.809 261.197 634.483C263.26 633.287 263.444 631.445 261.787 630.12L319.382 596.866V565.674H319.087L369.944 536.306H485.227L485.374 536.214L643.817 444.739L662.727 455.658L355.306 633.139V665.214H356.613V633.894L664.035 456.413L687.4 469.909L528.829 561.458V577.827L500.712 594.067V631.721L446.192 663.207C443.909 662.25 440.705 662.36 438.642 663.539C437.814 664.017 437.28 664.607 437.059 665.233H448.456C448.291 664.772 447.978 664.349 447.499 663.962L502.02 632.476V594.822L528.829 579.337V639.621L544.645 648.753L516.142 665.214H518.757L545.953 649.508L573.148 665.214H575.763L530.118 638.866V562.213L688.689 470.664L709.956 482.946L597.73 547.74C595.447 546.783 592.243 546.893 590.18 548.072C587.897 549.398 587.897 551.533 590.18 552.841C592.464 554.166 596.165 554.166 598.448 552.841C600.51 551.644 600.694 549.803 599.037 548.477L711.264 483.682L731.794 495.54L597.546 573.04H561.07C560.849 572.414 560.315 571.806 559.468 571.309C557.185 569.983 553.484 569.983 551.2 571.309C548.917 572.635 548.917 574.77 551.2 576.078C553.484 577.403 557.185 577.403 559.468 576.078C560.315 575.58 560.849 574.973 561.07 574.347H597.895L598.043 574.255L733.083 496.295L741.369 501.082L747.74 497.4L779.907 515.978V541.83L753.337 557.168V557.094H711.632L711.484 557.186L665.729 583.609C663.445 582.651 660.241 582.762 658.179 583.94C655.896 585.266 655.896 587.402 658.179 588.709C660.462 590.035 664.163 590.035 666.447 588.709C668.509 587.512 668.693 585.671 667.036 584.345L711.982 558.401H751.183L673.057 603.494C670.755 602.463 667.459 602.537 665.342 603.752C663.059 605.078 663.059 607.214 665.342 608.521C667.625 609.847 671.326 609.847 673.609 608.521C675.616 607.361 675.856 605.575 674.327 604.249L771.768 547.998V560.427L713.805 593.901V617.525L666.612 644.776C664.329 643.819 661.125 643.929 659.063 645.108C656.78 646.433 656.78 648.569 659.063 649.876C661.346 651.202 665.047 651.202 667.33 649.876C669.393 648.68 669.577 646.838 667.92 645.513L715.112 618.261V594.638L773.076 561.163V547.225L781.196 542.53V515.168L749.028 496.608L770.166 484.4L836.343 522.607V566.043L791.396 591.986C789.095 590.955 785.799 591.029 783.682 592.244C781.398 593.57 781.398 595.706 783.682 597.013C785.965 598.339 789.666 598.339 791.949 597.013C793.956 595.853 794.195 594.067 792.667 592.741L836.324 567.534V602.629L801.837 622.552V665.159H803.144V623.307L836.324 604.157V665.159H837.631V521.852L771.455 483.645L795.19 469.946L881.693 519.882V638.829L923.269 662.839V665.178H924.577V662.084L883.001 638.074V519.127L796.497 469.191L814.081 459.027L930.819 526.418V627.892L995.356 665.159H997.97L932.126 627.137V525.663L815.389 458.272L843.892 441.811L1038.13 553.945V604.434L1104.69 642.861V641.351L1039.44 603.679V553.191L930.192 490.108H1016.59L1104.69 540.983V539.473L1016.94 488.801H927.909L845.199 441.056L878.342 421.925L949.434 462.968H1063.59L1104.69 486.683V485.173L1095.69 479.981H1104.69V478.674H1093.42L1063.96 461.66H949.802L929.898 450.171H978.434L978.581 450.079L1002.92 436.029H1104.36L1104.69 436.214V434.704H1005.19L1032.59 418.887C1034.87 419.845 1038.07 419.734 1040.14 418.556C1042.42 417.23 1042.42 415.094 1040.14 413.787C1037.85 412.461 1034.15 412.461 1031.87 413.787C1029.81 414.984 1029.62 416.825 1031.28 418.151L978.066 448.882H927.615L879.631 421.189L897.363 410.951L885.947 404.359H919.108L962.452 429.383C960.795 430.708 960.979 432.549 963.041 433.746C965.324 435.072 969.025 435.072 971.309 433.746C973.592 432.421 973.592 430.285 971.309 428.977C969.246 427.781 966.042 427.688 963.759 428.646L919.458 403.07H883.682L859.414 389.058L874.328 380.441H900.788L924.061 367H941.424L980.644 389.647C978.876 390.973 979.023 392.87 981.122 394.085C983.406 395.411 987.107 395.411 989.39 394.085C991.673 392.759 991.673 390.623 989.39 389.316C987.365 388.156 984.253 388.027 981.97 388.911L941.774 365.711H923.711L900.438 379.152H876.593L924.3 351.607H950.06L1003.75 382.595H1104.67V381.288H1004.1L950.41 350.299H923.951L923.803 350.391L858.107 388.322L840.872 378.379L915.112 335.514H967.479L1010.68 360.445H1104.69V359.137H1011.04L970.112 335.514H1104.69V334.206H914.781L914.634 334.298L839.602 377.624L820.01 366.318L923.527 306.55H1104.69V305.243H972.671L1104.69 229.014V227.504L970.056 305.243H924.484L1022.63 248.586V236.103L1069.6 208.999C1071.88 209.956 1075.08 209.846 1077.15 208.667C1079.43 207.341 1079.43 205.206 1077.15 203.898C1074.86 202.573 1071.16 202.573 1068.88 203.898C1066.82 205.095 1066.63 206.936 1068.29 208.262L1042.71 223.029V188.8L1104.71 153.005V151.495L1041.41 188.045V223.784L1021.32 235.384V247.868L922.367 305.004L922.698 305.574L818.703 365.619L799.793 354.7L906.624 293.017V191.543L1104.69 77.1808V75.6709L937.815 172.025V80.2373L1065.55 6.49369C1065.64 6.54892 1065.71 6.62253 1065.8 6.67777C1068.09 8.00349 1071.79 8.00349 1074.07 6.67777C1076.35 5.35204 1076.35 3.21622 1074.07 1.90891L1074.14 1.98258ZM894.84 411.117L741.387 499.72L587.952 411.135L741.405 322.533L894.84 411.117Z" fill="#EC963C"/>
</svg>
