<svg width="18" height="20" viewBox="0 0 18 20" fill="none" xmlns="http://www.w3.org/2000/svg">
<path d="M5.86887 8.79019C5.86887 9.56497 6.17665 10.308 6.72451 10.8559C7.27236 11.4037 8.01541 11.7115 8.79019 11.7115C9.56498 11.7115 10.308 11.4037 10.8559 10.8559C11.4037 10.308 11.7115 9.56497 11.7115 8.79019C11.7115 8.01541 11.4037 7.27236 10.8559 6.72451C10.308 6.17665 9.56498 5.86887 8.79019 5.86887C8.01541 5.86887 7.27236 6.17665 6.72451 6.72451C6.17665 7.27236 5.86887 8.01541 5.86887 8.79019Z" stroke="white" stroke-width="1.5" stroke-linecap="round" stroke-linejoin="round"/>
<path d="M14.2988 14.2985L10.1671 18.4303C9.80193 18.7951 9.30687 19 8.79068 19C8.2745 19 7.77943 18.7951 7.41425 18.4303L3.28156 14.2985C2.19212 13.2091 1.45021 11.821 1.14966 10.3098C0.849107 8.7987 1.0034 7.23237 1.59304 5.80892C2.18267 4.38547 3.18116 3.16884 4.46224 2.31286C5.74332 1.45688 7.24946 1 8.7902 1C10.3309 1 11.8371 1.45688 13.1182 2.31286C14.3992 3.16884 15.3977 4.38547 15.9874 5.80892C16.577 7.23237 16.7313 8.7987 16.4307 10.3098C16.1302 11.821 15.3883 13.2091 14.2988 14.2985Z" stroke="white" stroke-width="1.5" stroke-linecap="round" stroke-linejoin="round"/>
</svg>
