<svg width="750" height="548" viewBox="0 0 750 548" fill="none" xmlns="http://www.w3.org/2000/svg">
<mask id="mask0_1126_23311" style="mask-type:alpha" maskUnits="userSpaceOnUse" x="0" y="0" width="750" height="548">
<rect width="750" height="548" fill="#D9D9D9"/>
</mask>
<g mask="url(#mask0_1126_23311)">
<path d="M749.86 70.2771L724.009 85.2083V133.337L494.296 266.024L476.84 255.947L595.328 187.509V175.267L616.327 163.13V134.996L657.067 111.473C658.778 112.189 661.169 112.102 662.706 111.211C664.416 110.233 664.416 108.627 662.706 107.649C660.995 106.671 658.237 106.671 656.526 107.649C654.99 108.539 654.851 109.919 656.09 110.914L615.349 134.455V162.588L595.328 174.149V129.094L595.083 128.954L583.51 122.266L652.965 82.1522V37.0269L702.312 8.5267C704.022 9.2427 706.414 9.15538 707.95 8.26475C709.661 7.2868 709.661 5.68017 707.95 4.70223C706.239 3.72428 703.481 3.72428 701.771 4.70223C700.235 5.59286 700.095 6.97247 701.334 7.96788L651.988 36.4681V81.5934L582.533 121.707L469.614 56.4811V6.01198C470.556 5.94212 471.482 5.71511 472.215 5.29599C473.925 4.31804 473.925 2.71141 472.215 1.73346C470.504 0.755513 467.746 0.755513 466.035 1.73346C464.325 2.71141 464.325 4.31804 466.035 5.29599C466.769 5.71511 467.694 5.94212 468.636 6.01198V57.0399L468.881 57.1796L536.8 96.4198H487.296L447.271 73.2983C448.51 72.3203 448.371 70.9233 446.835 70.0326C445.124 69.0547 442.366 69.0547 440.655 70.0326C438.945 71.0106 438.945 72.6172 440.655 73.5951C442.191 74.4858 444.583 74.5556 446.293 73.8571L487.034 97.3977H538.475L594.368 129.67V186.967L475.88 255.406L459.996 246.238L543.852 197.795C545.562 198.511 547.954 198.423 549.49 197.533C551.2 196.555 551.2 194.948 549.49 193.97C547.779 192.992 545.021 192.992 543.311 193.97C541.775 194.861 541.635 196.24 542.874 197.236L459.018 245.679L443.675 236.825L543.974 178.882H571.239C571.396 179.353 571.798 179.807 572.444 180.174C574.154 181.152 576.912 181.152 578.623 180.174C580.333 179.196 580.333 177.589 578.623 176.611C576.912 175.634 574.154 175.634 572.444 176.611C571.815 176.978 571.414 177.432 571.257 177.904H543.729L543.625 177.974L442.715 236.266L436.518 232.686L436.274 232.826L431.753 235.445L407.717 221.562V202.248L427.581 190.774V190.827H458.739L493.039 171.006C494.75 171.722 497.141 171.634 498.677 170.744C500.388 169.766 500.388 168.159 498.677 167.181C496.966 166.203 494.209 166.203 492.498 167.181C490.962 168.072 490.822 169.451 492.061 170.447L458.477 189.849H429.187L487.558 156.127C489.269 156.895 491.747 156.843 493.318 155.935C495.029 154.957 495.029 153.35 493.318 152.372C491.608 151.394 488.85 151.394 487.139 152.372C485.638 153.245 485.463 154.573 486.598 155.568L413.791 197.62V188.329L457.116 163.304V145.631L492.376 125.269C494.086 125.985 496.478 125.898 498.014 125.007C499.724 124.029 499.724 122.423 498.014 121.445C496.303 120.467 493.545 120.467 491.835 121.445C490.298 122.335 490.159 123.715 491.398 124.71L456.138 145.09V162.763L412.814 187.788V198.214L406.739 201.724V222.173L430.776 236.057L414.978 245.173L365.527 216.603V184.138L399.111 164.736C400.822 165.505 403.301 165.452 404.872 164.544C406.582 163.566 406.582 161.96 404.872 160.982C403.161 160.004 400.403 160.004 398.693 160.982C397.191 161.855 397.017 163.182 398.151 164.178L365.527 183.021V156.791L391.309 141.912V92.5603C392.251 92.4905 393.177 92.2635 393.91 91.8443C395.62 90.8664 395.62 89.2598 393.91 88.2818C392.199 87.3039 389.441 87.3039 387.731 88.2818C386.02 89.2598 386.02 90.8664 387.731 91.8443C388.464 92.2635 389.389 92.4905 390.331 92.5603V141.335L365.527 155.655V68.653H364.55V217.196L414.001 245.766L396.266 256.017L331.629 218.681V129.775L300.558 111.822V78.3801L273.118 62.5408C274.358 61.5629 274.218 60.1658 272.682 59.2752C270.971 58.2972 268.213 58.2972 266.503 59.2752C264.792 60.2531 264.792 61.8598 266.503 62.8377C268.039 63.7284 270.43 63.7982 272.141 63.0997L299.581 78.9389V112.381L330.651 130.334V219.24L395.289 256.576L382.145 264.173L294.92 213.791V137.93L294.676 137.79L217.471 93.189C218.71 92.2111 218.57 90.814 217.034 89.9234C215.324 88.9454 212.566 88.9454 210.855 89.9234C209.144 90.9013 209.144 92.5079 210.855 93.4859C212.391 94.3765 214.782 94.4464 216.493 93.7479L293.943 138.489V214.35L294.187 214.489L381.167 264.732L359.872 277.043L214.748 193.219V155.463L214.503 155.324L93.0136 85.1384C94.2529 84.1605 94.1132 82.7634 92.5772 81.8728C90.8665 80.8948 88.1086 80.8948 86.398 81.8728C84.6873 82.8507 84.6873 84.4573 86.398 85.4353C87.934 86.3259 90.3254 86.3958 92.0361 85.6973L213.788 156.022V193.778L214.032 193.918L295.409 240.929H230.859L156.132 197.76C157.372 196.764 157.232 195.385 155.696 194.494C153.985 193.516 151.227 193.516 149.517 194.494C147.806 195.472 147.806 197.079 149.517 198.056C151.053 198.947 153.444 199.017 155.155 198.318L230.597 241.907H297.102L358.912 277.602L334.16 291.905L281.043 261.221H195.739L98.7215 205.182H44.9065L22.965 192.503C24.2044 191.525 24.0647 190.128 22.5287 189.237C20.818 188.26 18.0601 188.26 16.3494 189.237C14.6388 190.215 14.6388 191.822 16.3494 192.8C17.8855 193.691 20.2769 193.76 21.9875 193.062L44.6446 206.142H98.4597L171.772 248.491H108.444L77.9496 230.87C79.1889 229.892 79.0492 228.495 77.5132 227.604C75.8025 226.626 73.0446 226.626 71.3339 227.604C69.6233 228.582 69.6233 230.189 71.3339 231.167C72.87 232.058 75.2614 232.127 76.972 231.429L108.182 249.451H173.466L195.477 262.164H280.781L295.653 270.756H259.398L259.294 270.826L241.105 281.339H165.314L143.931 268.993H101.06C100.903 268.521 100.502 268.067 99.8735 267.7C98.1629 266.722 95.4049 266.722 93.6943 267.7C91.9837 268.678 91.9837 270.285 93.6943 271.263C95.4049 272.241 98.1629 272.241 99.8735 271.263C100.502 270.896 100.903 270.442 101.078 269.971H143.687L165.069 282.317H239.429L218.954 294.14C217.244 293.424 214.852 293.511 213.316 294.402C211.606 295.38 211.606 296.986 213.316 297.964C215.027 298.942 217.785 298.942 219.495 297.964C221.031 297.074 221.171 295.694 219.932 294.716L259.695 271.752H297.399L333.252 292.463L320.004 300.112L320.737 300.531L328.522 305.037H303.753L271.355 286.334C272.595 285.356 272.455 283.959 270.919 283.068C269.208 282.09 266.45 282.09 264.74 283.068C263.029 284.046 263.029 285.653 264.74 286.631C266.276 287.521 268.667 287.591 270.378 286.893L303.491 306.015H330.232L348.369 316.493L337.215 322.937H317.438L317.333 323.007L300.052 332.978H287.083L257.775 316.056C259.084 315.061 258.98 313.646 257.409 312.738C255.698 311.76 252.94 311.76 251.229 312.738C249.519 313.716 249.519 315.323 251.229 316.301C252.73 317.174 255.069 317.261 256.78 316.598L286.821 333.939H300.314L300.419 333.869L317.699 323.897H335.521L299.877 344.487H280.642L240.529 321.313H119.563L44.5224 277.969C45.8141 276.973 45.7094 275.576 44.1384 274.668C42.4278 273.69 39.6699 273.69 37.9592 274.668C36.2486 275.646 36.2486 277.253 37.9592 278.231C39.4778 279.104 41.8169 279.191 43.5275 278.528L119.284 322.291H240.25L280.362 345.465H300.139L300.244 345.395L349.329 317.034L362.211 324.474L306.738 356.519H267.62L235.345 337.868H152.502C152.344 337.397 151.943 336.942 151.297 336.576C149.587 335.598 146.829 335.598 145.118 336.576C143.407 337.554 143.407 339.16 145.118 340.138C146.829 341.116 149.587 341.116 151.297 340.138C151.926 339.772 152.327 339.318 152.484 338.846H235.066L265.647 356.501H148.923L148.818 356.571L37.5752 420.819C35.8646 420.103 33.4732 420.19 31.9371 421.081C30.2265 422.059 30.2265 423.665 31.9371 424.643C33.6477 425.621 36.4057 425.621 38.1163 424.643C39.6524 423.753 39.792 422.373 38.5527 421.395L149.185 357.497H306.999L307.104 357.427L363.171 325.032L377.798 333.485L300.454 378.156H164.266L164.162 378.226L44.9065 447.119H-94.056L-175.101 400.317C-173.862 399.339 -174.002 397.942 -175.538 397.069C-177.248 396.091 -180.006 396.091 -181.717 397.069C-183.428 398.047 -183.428 399.653 -181.717 400.631C-180.181 401.522 -177.79 401.592 -176.079 400.893L-94.3178 448.114H45.1683L45.2905 448.044L164.546 379.151H263.745L118.08 463.29V485.433L59.9705 518.998C58.2599 518.282 55.8685 518.369 54.3324 519.26C52.6217 520.238 52.6217 521.844 54.3324 522.822C56.043 523.8 58.801 523.8 60.5116 522.822C62.0477 521.932 62.1873 520.552 60.948 519.557L119.057 485.992V463.849L265.717 379.134H299.773L226.443 421.5V430.843L191.357 451.118C189.647 450.402 187.255 450.489 185.719 451.38C184.009 452.358 184.009 453.964 185.719 454.942C187.43 455.92 190.188 455.92 191.898 454.942C193.435 454.052 193.574 452.672 192.335 451.677L211.448 440.64V466.224L101.06 529.982C99.3499 529.266 96.9585 529.354 95.4224 530.244C93.7118 531.222 93.7118 532.829 95.4224 533.807C97.133 534.785 99.891 534.785 101.602 533.807C103.138 532.916 103.277 531.537 102.038 530.541L212.426 466.783V440.064L227.438 431.402V422.059L301.379 379.344L301.134 378.924L378.846 334.044L392.967 342.199L313.144 388.302V464.163L166.326 548.965H168.281L289.841 478.762V547.376L287.065 548.983H289.02L290.801 547.952V478.204L314.104 464.739V388.879L393.927 342.775L406.355 349.953L344.808 385.508V427.088L345.052 427.228L415.031 467.656V481.766L375.442 504.626C373.731 503.91 371.34 503.997 369.804 504.888C368.093 505.866 368.093 507.472 369.804 508.45C371.514 509.428 374.272 509.428 375.983 508.45C377.519 507.559 377.659 506.18 376.419 505.184L415.991 482.325V467.097L415.746 466.957L345.768 426.529V386.067L392.269 359.208V376.532L370.938 388.844C369.228 388.128 366.836 388.215 365.3 389.106C363.59 390.083 363.59 391.69 365.3 392.668C367.011 393.646 369.769 393.646 371.48 392.668C373.016 391.777 373.155 390.398 371.916 389.42L393.229 377.108V358.649L407.298 350.529L423.933 360.134V390.311L392.566 408.437V429.306L392.81 429.446L458.861 467.603C457.622 468.599 457.762 469.978 459.298 470.869C461.008 471.847 463.766 471.847 465.477 470.869C467.188 469.891 467.188 468.284 465.477 467.306C463.941 466.416 461.549 466.346 459.839 467.045L393.543 428.747V409.014L423.933 391.463V412.262L464.587 435.75C463.347 436.728 463.487 438.125 465.023 438.998C466.734 439.976 469.492 439.976 471.202 438.998C472.913 438.02 472.913 436.414 471.202 435.436C469.666 434.545 467.275 434.475 465.564 435.174L424.911 411.686V360.71L436.588 367.451L436.833 367.311L455.842 356.327L473.279 366.403V390.869L519.624 417.641V440.71C518.681 440.78 517.756 441.007 517.023 441.426C515.312 442.404 515.312 444.01 517.023 444.988C518.733 445.966 521.491 445.966 523.202 444.988C524.913 444.01 524.913 442.404 523.202 441.426C522.469 441.007 521.544 440.78 520.601 440.71V417.082L474.257 390.311V366.962L549.28 410.289V456.217L508.592 479.723H471.255L471.15 479.793L407.089 516.798C405.378 516.082 402.987 516.169 401.45 517.06C399.74 518.037 399.74 519.644 401.45 520.622C403.161 521.6 405.919 521.6 407.63 520.622C409.166 519.731 409.305 518.352 408.066 517.374L471.534 480.718H506.916L389.232 548.703C387.521 547.987 385.13 548.074 383.594 548.965C383.576 548.965 383.559 549 383.541 549H390.681L550.293 456.811V409.747L550.048 409.607L456.871 355.785L475.619 344.958L634.707 436.85V491.685L689.046 523.084C687.806 524.062 687.946 525.459 689.482 526.333C691.193 527.31 693.951 527.31 695.661 526.333C697.372 525.355 697.372 523.748 695.661 522.77C694.125 521.879 691.734 521.81 690.023 522.508L635.667 491.109V436.274L635.423 436.134L476.579 344.382L494.435 334.061L651.778 424.94H745.601L750 427.49V426.355L745.863 423.962H652.04L519.222 347.246H545.929L591.261 373.423H626.171L626.276 373.354L674.697 345.377C676.408 346.093 678.799 346.006 680.335 345.115C682.046 344.137 682.046 342.531 680.335 341.553C678.625 340.575 675.867 340.575 674.156 341.553C672.62 342.443 672.481 343.823 673.72 344.818L625.892 372.445H591.505L546.173 346.268H517.511L495.395 333.502L543.049 305.98L556.594 313.804V334.358L591.016 354.249C589.777 355.227 589.916 356.624 591.453 357.497C593.163 358.475 595.921 358.475 597.632 357.497C599.342 356.519 599.342 354.912 597.632 353.934C596.096 353.044 593.704 352.974 591.994 353.672L557.572 333.782V314.362L594.28 335.563H611.666L611.771 335.493L632.508 323.513C634.218 324.229 636.61 324.142 638.146 323.251C639.856 322.273 639.856 320.667 638.146 319.689C636.435 318.711 633.677 318.711 631.967 319.689C630.431 320.579 630.291 321.959 631.53 322.954L611.404 334.585H594.542L544.009 305.404L553.19 300.095L552.457 299.676L523.9 283.173L537.62 275.244H558.357L573.194 283.819C572.007 284.797 572.164 286.159 573.683 287.032C575.394 288.01 578.152 288.01 579.862 287.032C581.573 286.054 581.573 284.448 579.862 283.47C578.309 282.562 575.865 282.509 574.154 283.243L558.601 274.267H539.296L574.276 254.061L656.579 301.597H715.805L715.91 301.527L749.249 282.265C749.459 282.352 749.703 282.387 749.948 282.457V277.951C749.511 278.074 749.092 278.231 748.726 278.44C747.19 279.331 747.05 280.71 748.289 281.706L715.543 300.619H656.841L593.373 263.946H620.533L647.083 279.278C645.844 280.274 645.983 281.654 647.519 282.544C649.23 283.522 651.988 283.522 653.698 282.544C655.409 281.566 655.409 279.96 653.698 278.982C652.162 278.091 649.771 278.021 648.06 278.72L620.778 262.968H591.645L575.219 253.485L617.007 229.351H749.913V228.373H618.7L635.283 218.803H734.133L734.255 218.733L749.93 209.687V208.552L733.889 217.825H635.039L634.934 217.895L522.905 282.597L510.477 275.419L628.249 207.382H714.391L714.496 207.312L749.948 186.828V185.692L714.112 206.386H627.969L627.864 206.456L509.482 274.843L495.361 266.687L725.074 134.001V85.8719L749.948 71.4995V70.3644L749.86 70.2771ZM551.131 299.973L436.466 366.194L321.819 299.973L436.483 233.752L551.131 299.973Z" fill="url(#paint0_linear_1126_23311)"/>
</g>
<defs>
<linearGradient id="paint0_linear_1126_23311" x1="807.921" y1="672.17" x2="221.3" y2="81.9994" gradientUnits="userSpaceOnUse">
<stop stop-color="#DAE6FF" stop-opacity="0"/>
<stop offset="1" stop-color="#DAE6FF"/>
</linearGradient>
</defs>
</svg>
