<svg width="470" height="449" viewBox="0 0 470 449" fill="none" xmlns="http://www.w3.org/2000/svg">
<path d="M390.241 392.346C329.801 444.387 224.206 454.964 160.3 404.197C129.341 374.713 130.044 329.71 126.972 290.038C120.985 262.079 114.132 234.477 93.877 213.237C46.9039 173.821 14.2008 134.754 49.1181 72.9606C121.66 -27.2802 300.116 -19.0109 382.121 65.9188C453.259 151.938 473.293 308.016 390.241 392.346Z" fill="#EFF4FF"/>
<path d="M157.495 147.498C157.334 147.498 157.185 147.411 157.104 147.273L152.845 139.893C152.764 139.753 152.764 139.58 152.845 139.44L157.104 132.062C157.184 131.922 157.334 131.836 157.495 131.836C157.657 131.836 157.805 131.922 157.886 132.061L162.156 139.439C162.236 139.58 162.236 139.753 162.156 139.893L157.886 147.273C157.805 147.412 157.656 147.498 157.495 147.498ZM153.757 139.666L157.496 146.143L161.243 139.666L157.496 133.19L153.757 139.666Z" fill="#14213D"/>
<path d="M145.65 138.656C144.231 138.656 143.077 137.501 143.077 136.082C143.077 134.662 144.231 133.508 145.65 133.508C147.068 133.508 148.221 134.662 148.221 136.082C148.221 137.501 147.068 138.656 145.65 138.656ZM145.65 134.411C144.729 134.411 143.98 135.161 143.98 136.082C143.98 137.003 144.729 137.753 145.65 137.753C146.569 137.753 147.319 137.003 147.319 136.082C147.319 135.161 146.569 134.411 145.65 134.411Z" fill="#14213D"/>
<path d="M153.235 129.187C151.996 129.187 150.987 128.178 150.987 126.938C150.987 125.699 151.996 124.689 153.235 124.689C154.474 124.689 155.482 125.699 155.482 126.938C155.482 128.179 154.475 129.187 153.235 129.187ZM153.235 125.594C152.494 125.594 151.891 126.197 151.891 126.939C151.891 127.68 152.495 128.283 153.235 128.283C153.976 128.283 154.578 127.679 154.578 126.939C154.579 126.197 153.976 125.594 153.235 125.594Z" fill="#14213D"/>
<path d="M143.529 130.222C142.612 130.222 141.866 129.475 141.866 128.558C141.866 127.64 142.612 126.893 143.529 126.893C144.446 126.893 145.192 127.64 145.192 128.558C145.192 129.475 144.446 130.222 143.529 130.222ZM143.529 127.796C143.11 127.796 142.769 128.138 142.769 128.558C142.769 128.977 143.11 129.319 143.529 129.319C143.948 129.319 144.289 128.977 144.289 128.558C144.289 128.138 143.948 127.796 143.529 127.796Z" fill="#14213D"/>
<path d="M322.292 115.096C322.13 115.096 321.981 115.01 321.901 114.871L318.642 109.224C318.561 109.084 318.561 108.911 318.642 108.772L321.901 103.125C321.98 102.985 322.13 102.899 322.292 102.899C322.453 102.899 322.602 102.985 322.683 103.125L325.949 108.772C326.03 108.911 326.03 109.084 325.949 109.225L322.683 114.872C322.602 115.009 322.453 115.096 322.292 115.096ZM319.554 108.997L322.293 113.741L325.036 108.997L322.293 104.253L319.554 108.997Z" fill="#14213D"/>
<path d="M314.58 106.619C313.162 106.619 312.008 105.464 312.008 104.044C312.008 102.625 313.162 101.47 314.58 101.47C315.999 101.47 317.152 102.625 317.152 104.044C317.152 105.464 315.999 106.619 314.58 106.619ZM314.58 102.374C313.66 102.374 312.911 103.124 312.911 104.045C312.911 104.967 313.66 105.716 314.58 105.716C315.5 105.716 316.249 104.966 316.249 104.045C316.249 103.124 315.5 102.374 314.58 102.374Z" fill="#14213D"/>
<path d="M322.165 100.252C320.926 100.252 319.918 99.2423 319.918 98.0023C319.918 96.7624 320.926 95.754 322.165 95.754C323.404 95.754 324.413 96.7634 324.413 98.0023C324.413 99.2433 323.405 100.252 322.165 100.252ZM322.165 96.6575C321.424 96.6575 320.822 97.2605 320.822 98.0023C320.822 98.7441 321.425 99.3471 322.165 99.3471C322.907 99.3471 323.509 98.7441 323.509 98.0023C323.51 97.2615 322.907 96.6575 322.165 96.6575Z" fill="#14213D"/>
<path d="M314.581 97.8705C313.664 97.8705 312.918 97.1238 312.918 96.2063C312.918 95.2888 313.664 94.541 314.581 94.541C315.498 94.541 316.244 95.2878 316.244 96.2063C316.244 97.1248 315.499 97.8705 314.581 97.8705ZM314.581 95.4445C314.162 95.4445 313.821 95.786 313.821 96.2063C313.821 96.6266 314.162 96.967 314.581 96.967C315 96.967 315.341 96.6256 315.341 96.2063C315.341 95.787 315 95.4445 314.581 95.4445Z" fill="#14213D"/>
<path d="M141.559 233.408C141.559 233.408 148.517 397.939 147.893 424.999H112.121L93.7998 234.786L141.559 233.408Z" fill="#14213D"/>
<path d="M58.925 235.345L54.118 323.421L28.5146 424.999H66.8742L105.469 323.005L121.868 234.337L58.925 235.345Z" fill="#14213D"/>
<path d="M103.49 328.719L102.47 328.51C108.318 299.711 113.229 270.304 117.062 241.109L117.117 240.694L129.315 239.641L129.405 240.68L118.041 241.66C114.212 270.743 109.317 300.031 103.49 328.719Z" fill="#D3DCEF"/>
<path d="M31.458 425.103H61.9372L69.9862 432.217C69.9862 432.217 93.8379 431.543 93.8379 449H31.458V425.103Z" fill="#3662CA"/>
<path d="M33.5644 446.987H33.6741L92.3482 446.766C92.5776 446.765 92.7632 446.579 92.7622 446.349C92.7612 446.12 92.5756 445.936 92.3472 445.936L33.5624 446.156C33.333 446.157 33.1474 446.344 33.1484 446.574C33.1504 446.802 33.336 446.987 33.5644 446.987Z" fill="#14213D"/>
<path d="M50.0143 434.944C47.8806 434.716 46.5798 433.874 46.3494 432.571C46.0512 430.885 47.717 429.676 49.2342 429.153C53.9794 427.516 59.4778 428.529 63.383 431.652C64.4793 428.081 66.4215 424.796 69.029 422.116C69.844 421.277 70.8495 420.388 72.1363 420.14C73.445 419.889 75.066 420.556 75.3982 421.95C75.7144 423.279 74.7657 424.459 73.9029 425.338C71.027 428.272 67.8549 430.956 64.4773 433.314C64.3576 433.399 64.207 433.409 64.0773 433.356C64.0354 433.395 63.9845 433.426 63.9267 433.445C60.577 434.556 57.0179 435.126 53.4737 435.126C52.3156 435.126 51.1604 435.065 50.0143 434.944ZM63.1845 432.566C59.4817 429.41 54.1161 428.348 49.5036 429.939C48.531 430.274 46.9449 431.174 47.1664 432.426C47.3908 433.695 49.2931 434.03 50.1011 434.116C54.5211 434.586 59.0837 434.12 63.3192 432.769C63.2554 432.716 63.2085 432.646 63.1845 432.566ZM72.2919 420.956C71.2305 421.16 70.3467 421.949 69.6225 422.695C67.024 425.367 65.1097 428.662 64.0723 432.242C64.1432 432.306 64.213 432.372 64.2828 432.438C67.5138 430.157 70.5492 427.574 73.3103 424.758C74.0226 424.031 74.8116 423.077 74.5902 422.145C74.4026 421.358 73.5198 420.919 72.6979 420.919C72.5592 420.919 72.4226 420.93 72.2919 420.956Z" fill="#14213D"/>
<path d="M114.9 424.853H145.38L153.429 431.967C153.429 431.967 177.28 431.293 177.28 448.75H114.9V424.853Z" fill="#3662CA"/>
<path d="M117.007 446.736H117.008H117.117L175.791 446.515C176.02 446.514 176.206 446.328 176.205 446.098C176.204 445.87 176.018 445.685 175.79 445.685L117.005 445.905C116.775 445.906 116.59 446.093 116.591 446.323C116.593 446.551 116.778 446.736 117.007 446.736Z" fill="#14213D"/>
<path d="M133.456 434.693C131.322 434.465 130.021 433.623 129.791 432.32C129.493 430.635 131.158 429.426 132.676 428.902C137.421 427.265 142.919 428.278 146.824 431.401C147.921 427.83 149.863 424.545 152.47 421.865C153.285 421.026 154.291 420.137 155.578 419.889C156.886 419.638 158.507 420.305 158.84 421.699C159.156 423.028 158.207 424.208 157.344 425.087C154.468 428.021 151.296 430.705 147.919 433.064C147.799 433.148 147.648 433.158 147.519 433.105C147.477 433.144 147.426 433.175 147.368 433.194C144.018 434.305 140.459 434.875 136.915 434.875C135.758 434.875 134.602 434.814 133.456 434.693ZM146.627 432.315C142.924 429.159 137.558 428.097 132.946 429.688C131.973 430.023 130.387 430.923 130.609 432.175C130.833 433.444 132.735 433.779 133.543 433.865C137.963 434.335 142.526 433.869 146.762 432.518C146.697 432.466 146.65 432.395 146.627 432.315ZM155.734 420.705C154.673 420.909 153.789 421.698 153.065 422.444C150.466 425.116 148.552 428.411 147.515 431.991C147.586 432.055 147.655 432.121 147.725 432.187C150.956 429.906 153.992 427.323 156.753 424.507C157.465 423.78 158.254 422.826 158.033 421.894C157.845 421.107 156.962 420.668 156.14 420.668C156.002 420.668 155.864 420.68 155.734 420.705Z" fill="#14213D"/>
<path d="M136.661 194.742L141.559 233.408L136.751 253.116L121.868 234.337L100.521 253.116L58.9248 235.345L59.4236 219.162C47.2239 221.658 35.922 212.044 36.4108 199.594L41.5201 139.944C41.8493 131.618 47.9571 119.182 55.9672 116.935L83.3939 108.814L107.285 113.186L123.524 118.178C130.686 120.385 135.913 126.554 136.901 133.982L141.649 169.524L164.023 175.314L164.851 194.742H136.661Z" fill="#3662CA"/>
<path d="M66.8744 188.298C66.8574 188.298 66.8405 188.297 66.8225 188.296C66.5492 188.268 66.3497 188.022 66.3776 187.748L70.4445 148.153C70.4734 147.879 70.7148 147.689 70.9921 147.708C71.2655 147.736 71.465 147.981 71.437 148.256L67.3701 187.85C67.3442 188.107 67.1277 188.298 66.8744 188.298Z" fill="#14213D"/>
<path d="M60.9586 219.197C60.7471 219.197 60.5506 219.061 60.4828 218.848C60.4 218.585 60.5446 218.305 60.807 218.221L109.851 202.641L104.149 182.263L54.2054 191.065C53.932 191.116 53.6747 190.932 53.6278 190.661C53.5799 190.389 53.7605 190.131 54.0318 190.083L104.421 181.201C104.677 181.155 104.919 181.311 104.988 181.558L110.942 202.836C111.015 203.095 110.869 203.365 110.613 203.446L61.1102 219.173C61.0593 219.19 61.0085 219.197 60.9586 219.197Z" fill="#14213D"/>
<path d="M129.729 173.682C129.48 173.682 129.264 173.495 129.234 173.242L125.537 141.972C125.505 141.699 125.7 141.451 125.974 141.418C126.246 141.383 126.494 141.582 126.527 141.855L130.225 173.125C130.257 173.399 130.061 173.646 129.788 173.679C129.768 173.681 129.749 173.682 129.729 173.682Z" fill="#14213D"/>
<path d="M105.696 132.42C105.59 132.42 105.483 132.387 105.393 132.318L96.5105 125.515C95.6477 125.532 91.509 125.884 90.6591 130.986C90.6282 131.171 90.4975 131.321 90.3209 131.379C90.1444 131.439 89.9489 131.391 89.8172 131.259C89.7244 131.168 80.5592 121.943 81.3513 110.148C81.3702 109.874 81.6066 109.677 81.8829 109.684C82.1572 109.703 82.3657 109.94 82.3468 110.216C81.7074 119.74 87.8541 127.558 89.883 129.861C91.3524 124.375 96.6482 124.522 96.7001 124.517C96.8028 124.521 96.9026 124.557 96.9834 124.62L105.999 131.526C106.217 131.694 106.259 132.006 106.092 132.226C105.995 132.354 105.846 132.42 105.696 132.42Z" fill="#14213D"/>
<path d="M108.101 132.42C108.077 132.42 108.053 132.419 108.028 132.415C107.756 132.375 107.567 132.122 107.607 131.849L108.665 124.633C108.684 124.502 108.755 124.384 108.862 124.305C108.968 124.226 109.104 124.195 109.233 124.212C109.346 124.229 111.359 124.544 112.67 125.57C112.553 122.86 111.863 117.023 108.194 114.575C107.965 114.422 107.903 114.111 108.056 113.883C108.207 113.653 108.517 113.591 108.747 113.744C114.05 117.282 113.7 126.644 113.683 127.04C113.672 127.279 113.495 127.476 113.259 127.511C113.025 127.544 112.795 127.411 112.715 127.187C112.337 126.131 110.617 125.533 109.577 125.294L108.594 131.993C108.557 132.242 108.344 132.42 108.101 132.42Z" fill="#14213D"/>
<path d="M158.357 177.231L144.123 178.978L148.073 182.063C149.519 183.191 149.779 185.288 148.651 186.735C147.993 187.574 147.015 188.013 146.028 188.013C145.928 188.013 145.818 188.013 145.719 188.003C146.078 189.031 145.938 190.239 145.21 191.168C144.552 192.007 143.564 192.446 142.576 192.446C142.227 192.446 141.868 192.386 141.529 192.276C141.938 193.334 141.788 194.562 141.05 195.511C140.392 196.349 139.414 196.789 138.417 196.789C137.709 196.789 136.99 196.569 136.382 196.1L133.389 193.764L132.99 194.363C126.058 203.008 117.389 199.504 117.389 199.504L110.596 201.471L105.469 183.61L119.225 180.625L130.826 172.968C132.232 172.039 133.888 171.54 135.574 171.54H158.357V177.231Z" fill="#D3DCEF"/>
<path d="M141.529 192.776C141.418 192.776 141.306 192.739 141.213 192.663L135.376 187.885C135.162 187.71 135.13 187.396 135.305 187.182C135.48 186.968 135.794 186.936 136.007 187.111L141.845 191.889C142.058 192.064 142.09 192.378 141.916 192.592C141.817 192.714 141.673 192.776 141.529 192.776Z" fill="#14213D"/>
<path d="M145.717 188.503C145.605 188.503 145.492 188.465 145.399 188.387L139.462 183.441C139.25 183.264 139.221 182.95 139.398 182.738C139.573 182.528 139.888 182.498 140.1 182.674L146.037 187.62C146.249 187.797 146.278 188.111 146.101 188.323C146.002 188.441 145.861 188.503 145.717 188.503Z" fill="#14213D"/>
<path d="M203.545 149.477L174.048 201.701C173.28 203.058 171.844 203.897 170.278 203.897H142.497C139.185 203.897 137.11 200.323 138.736 197.438L168.233 145.224C169.001 143.866 170.437 143.027 171.993 143.027H199.784C203.096 143.027 205.171 146.591 203.545 149.477Z" fill="#14213D"/>
<path d="M190.946 178.15C190.477 179.068 189.619 179.657 188.672 179.817C189.091 180.236 189.39 180.745 189.57 181.294C189.859 182.203 189.809 183.221 189.34 184.13C188.632 185.528 187.136 186.276 185.659 186.127C186.038 186.526 186.308 187.005 186.477 187.514C186.766 188.433 186.717 189.451 186.248 190.36C185.619 191.588 184.392 192.316 183.096 192.366C183.265 192.616 183.405 192.875 183.515 193.145C183.904 194.103 183.914 195.142 183.445 196.06C182.507 197.877 180.023 198.486 177.918 197.408L173.237 195.169C172.18 194.63 171.422 193.761 171.033 192.803C170.644 191.844 170.644 190.796 171.102 189.887C171.671 188.769 172.838 188.11 174.135 188.03C173.905 187.711 173.726 187.352 173.606 186.982C173.307 186.074 173.367 185.055 173.826 184.147C174.544 182.749 176.04 181.99 177.516 182.14C177.137 181.741 176.858 181.262 176.699 180.752C176.399 179.844 176.449 178.826 176.918 177.917C177.646 176.479 179.192 175.731 180.709 175.92C180.629 175.771 180.569 175.621 180.519 175.461C180.27 174.692 180.31 173.824 180.709 173.055C181.497 171.508 183.412 170.889 184.958 171.687L189.57 173.897C190.348 174.296 190.886 174.975 191.136 175.744C191.385 176.512 191.335 177.381 190.946 178.15Z" fill="#D3DCEF"/>
<path d="M183.095 192.865C183.022 192.865 182.948 192.849 182.878 192.815L173.918 188.48C173.669 188.36 173.565 188.061 173.686 187.813C173.807 187.566 174.104 187.461 174.352 187.581L183.313 191.917C183.562 192.037 183.665 192.335 183.545 192.584C183.458 192.762 183.28 192.865 183.095 192.865Z" fill="#14213D"/>
<path d="M185.658 186.625C185.585 186.625 185.511 186.609 185.44 186.575L177.297 182.588C177.05 182.466 176.947 182.168 177.069 181.92C177.19 181.673 177.489 181.571 177.736 181.692L185.879 185.678C186.126 185.8 186.229 186.098 186.107 186.346C186.021 186.523 185.843 186.625 185.658 186.625Z" fill="#14213D"/>
<path d="M188.67 180.316C188.596 180.316 188.523 180.3 188.452 180.265L180.489 176.369C180.241 176.248 180.138 175.948 180.26 175.701C180.382 175.453 180.68 175.351 180.928 175.472L188.891 179.369C189.138 179.489 189.241 179.789 189.119 180.037C189.032 180.213 188.855 180.316 188.67 180.316Z" fill="#14213D"/>
<path d="M79.6235 86.0071C80.7078 90.4149 83.4241 93.1883 87.5129 92.6781L82.9243 109.527L105.857 129.423L108.085 108.423C108.085 108.423 110.959 107.792 114.352 104.869C117.746 101.956 123.438 94.7557 123.882 87.9639L124.772 74.566C119.191 74.529 111.988 72.9885 106.472 71.5599C101.614 70.298 98.0637 69.1289 98.0637 69.1289C97.9799 69.7509 97.7854 70.3908 97.5071 71.0308C96.0048 74.51 92.1394 77.9803 92.1394 77.9803L92.1304 78.0452C92.1215 78.0362 92.1215 78.0263 92.1115 78.0263C92.0835 77.9983 92.0556 77.9703 92.0377 77.9424C90.7309 76.5137 89.0062 75.5483 87.1608 75.2608C86.1872 75.1121 85.1767 75.149 84.1752 75.3906C79.8091 76.4778 78.4554 81.2849 79.6235 86.0071Z" fill="#C7D1E8"/>
<path d="M122.795 85.7544C122.884 84.4043 121.968 83.2443 120.749 83.1635C119.53 83.0826 118.469 84.1116 118.38 85.4617C118.29 86.8118 119.206 87.9718 120.425 88.0526C121.645 88.1335 122.705 87.1045 122.795 85.7544Z" fill="#14213D"/>
<path d="M108.581 83.2964C109.008 82.0127 108.415 80.6585 107.256 80.2717C106.097 79.8849 104.81 80.6119 104.383 81.8956C103.955 83.1792 104.548 84.5334 105.707 84.9202C106.867 85.3071 108.153 84.58 108.581 83.2964Z" fill="#14213D"/>
<path d="M119.13 79.7674C120.843 79.3451 122.711 79.7674 124.001 81.0024C124.257 81.2479 124.346 81.6752 124.088 81.9598C123.854 82.2174 123.405 82.3092 123.131 82.0466C123.004 81.9248 122.873 81.81 122.732 81.7052C122.663 81.6533 122.593 81.6044 122.523 81.5564C122.515 81.5514 122.507 81.5465 122.498 81.5415C122.46 81.5195 122.422 81.4965 122.384 81.4756C122.231 81.3897 122.074 81.3128 121.912 81.245C121.831 81.211 121.75 81.1801 121.667 81.1501C121.652 81.1451 121.638 81.1401 121.627 81.1361C121.581 81.1222 121.535 81.1092 121.489 81.0972C121.32 81.0523 121.148 81.0163 120.974 80.9904C120.888 80.9774 120.801 80.9674 120.713 80.9594C120.669 80.9554 120.626 80.9524 120.582 80.9494C120.58 80.9494 120.581 80.9494 120.579 80.9494C120.574 80.9494 120.577 80.9494 120.568 80.9494C120.392 80.9484 120.217 80.9534 120.043 80.9714C119.956 80.9804 119.869 80.9914 119.782 81.0063C119.74 81.0133 119.697 81.0213 119.653 81.0293C119.641 81.0313 119.636 81.0323 119.631 81.0333C119.622 81.0353 119.618 81.0363 119.606 81.0393C119.263 81.1242 118.854 81.0193 118.731 80.6429C118.63 80.3275 118.761 79.8582 119.13 79.7674Z" fill="#14213D"/>
<path d="M110.318 78.7917C110.061 79.0942 109.644 79.0363 109.358 78.8276C109.349 78.8206 109.344 78.8176 109.337 78.8126C109.333 78.8106 109.328 78.8076 109.318 78.8006C109.281 78.7767 109.245 78.7527 109.208 78.7298C109.133 78.6838 109.057 78.6399 108.98 78.599C108.826 78.5161 108.666 78.4452 108.503 78.3803C108.494 78.3764 108.497 78.3773 108.492 78.3753C108.49 78.3743 108.492 78.3753 108.489 78.3743C108.448 78.3604 108.407 78.3464 108.365 78.3344C108.281 78.3085 108.196 78.2855 108.111 78.2645C107.941 78.2226 107.768 78.1907 107.595 78.1687C107.547 78.1627 107.5 78.1577 107.452 78.1527C107.441 78.1517 107.426 78.1507 107.41 78.1507C107.322 78.1477 107.235 78.1447 107.148 78.1457C106.972 78.1467 106.798 78.1587 106.624 78.1807C106.58 78.1857 106.537 78.1927 106.494 78.1986C106.485 78.1996 106.475 78.2016 106.466 78.2036C106.383 78.2206 106.299 78.2396 106.216 78.2615C106.046 78.3065 105.881 78.3624 105.717 78.4273C105.364 78.566 104.984 78.3105 104.865 77.984C104.734 77.6226 104.978 77.2612 105.308 77.1314C106.969 76.4765 108.858 76.793 110.284 77.8322C110.589 78.0549 110.532 78.5381 110.318 78.7917Z" fill="#14213D"/>
<path d="M105.231 98.2419C103.995 97.6888 103.173 96.8722 102.79 95.8159C102.145 94.0388 102.999 92.2498 103.036 92.1749C103.136 91.9682 103.383 91.8794 103.591 91.9692L111.279 95.3057C111.387 95.3527 111.47 95.4405 111.511 95.5503C111.551 95.6602 111.545 95.782 111.494 95.8868C111.477 95.9207 110.076 98.7191 107.294 98.7191C106.676 98.7191 105.987 98.5814 105.231 98.2419ZM103.657 92.9327C103.475 93.4768 103.232 94.519 103.596 95.5234C103.898 96.353 104.565 97.004 105.581 97.4592C108.308 98.6802 109.93 96.7693 110.496 95.9008L103.657 92.9327Z" fill="#14213D"/>
<path d="M86.5563 90.6304C86.4625 90.6304 86.3687 90.6055 86.283 90.5536C84.7049 89.5922 83.852 87.5845 84.256 85.7804C84.6331 84.0902 86.0845 82.7085 87.7772 82.379C88.0456 81.4356 87.9718 80.4522 87.5668 79.6974C87.087 78.8029 86.1154 78.2438 85.2106 78.3427C84.2949 78.4405 83.5069 79.3021 83.5577 80.1517C83.5757 80.4432 83.3542 80.6928 83.063 80.7098C82.7717 80.7367 82.5223 80.5061 82.5054 80.2146C82.4196 78.7899 83.6066 77.4521 85.0989 77.2934C86.4326 77.1476 87.8191 77.9363 88.4954 79.1983C89.091 80.3074 89.1558 81.7051 88.673 83.032C88.6042 83.2206 88.4336 83.3544 88.2341 83.3764C86.8326 83.5271 85.5927 84.6353 85.2844 86.011C84.9762 87.3878 85.6276 88.9193 86.8316 89.6521C87.08 89.8038 87.1588 90.1283 87.0082 90.3779C86.9074 90.5396 86.7338 90.6294 86.5563 90.6304Z" fill="#14213D"/>
<path d="M105.628 109.004C105.209 109.004 104.816 108.962 104.466 108.864C101.994 108.177 98.6326 104.204 98.491 104.035C98.3034 103.813 98.3324 103.479 98.5548 103.292C98.7793 103.104 99.1114 103.134 99.298 103.356C99.3309 103.394 102.591 107.247 104.749 107.848C106.516 108.341 110.192 106.956 111.459 106.38C111.725 106.261 112.036 106.378 112.156 106.642C112.277 106.908 112.159 107.22 111.895 107.34C111.721 107.419 108.2 109.004 105.628 109.004Z" fill="#14213D"/>
<path d="M105.847 89.1399C104.77 89.1399 103.676 88.9362 102.617 88.5069C100.482 87.6404 98.8124 85.9941 97.9147 83.8716C97.0169 81.7481 96.9999 79.4019 97.8648 77.2654C98.7296 75.129 100.376 73.4577 102.496 72.5592C104.616 71.6607 106.961 71.6427 109.097 72.5093C113.504 74.2973 115.636 79.34 113.849 83.7508C112.492 87.1032 109.257 89.1399 105.847 89.1399ZM105.857 72.9276C104.856 72.9276 103.857 73.1292 102.908 73.5306C101.046 74.3193 99.6025 75.7869 98.8424 77.6618C98.0823 79.5377 98.0982 81.5963 98.8853 83.4602C99.6733 85.3242 101.14 86.7688 103.013 87.5295C106.879 89.099 111.304 87.226 112.872 83.3554C114.441 79.4838 112.569 75.0581 108.701 73.4887C107.783 73.1143 106.82 72.9276 105.857 72.9276Z" fill="#3662CA"/>
<path d="M124.76 94.5406C123.682 94.5406 122.589 94.338 121.531 93.9087C117.124 92.1206 114.992 87.0769 116.778 82.6662C117.644 80.5297 119.289 78.8585 121.41 77.9599C123.53 77.0604 125.875 77.0435 128.011 77.91C132.418 79.6981 134.549 84.7408 132.763 89.1515C131.406 92.504 128.169 94.5406 124.76 94.5406ZM124.77 78.3283C123.769 78.3283 122.77 78.53 121.821 78.9313C119.959 79.72 118.515 81.1876 117.755 83.0625C116.187 86.9342 118.057 91.3599 121.927 92.9303C125.792 94.4997 130.218 92.6278 131.786 88.7552C133.354 84.8835 131.483 80.4578 127.614 78.8884C126.696 78.515 125.733 78.3283 124.77 78.3283Z" fill="#3662CA"/>
<path d="M89.5247 72.3311L88.9941 73.243L97.9061 78.4366L98.4366 77.5246L89.5247 72.3311Z" fill="#3662CA"/>
<path d="M113.575 83.0632L113.16 84.0332L116.524 85.476L116.94 84.5061L113.575 83.0632Z" fill="#3662CA"/>
<path d="M84.1751 75.3926C85.1766 75.151 86.187 75.114 87.1606 75.2628C89.005 75.5503 90.7297 76.5157 92.0375 77.9444L92.1392 77.9813C92.1392 77.9813 96.0056 74.511 97.5069 71.0317C97.7852 70.3918 97.9797 69.7509 98.0635 69.1299C98.0635 69.1299 101.615 70.299 106.472 71.5609C111.988 72.9895 119.191 74.53 124.772 74.5669C128.313 74.5949 131.206 74.0198 132.597 72.4324C138.891 65.2323 134.302 57.8095 127.359 58.5054C120.702 59.1823 116.206 59.0625 108.937 54.469C101.67 49.8666 94.0206 50.6373 91.7871 56.5286C91.7871 56.5286 79.781 56.901 84.1751 75.3926Z" fill="#14213D"/>
<path d="M117.246 95.0315C117.19 95.0315 117.135 95.0225 117.08 95.0056L110.504 92.8331C110.227 92.7413 110.077 92.4428 110.169 92.1672C110.26 91.8907 110.56 91.7409 110.834 91.8318L116.658 93.7556L115.805 82.7667C115.784 82.4762 116 82.2226 116.29 82.1996C116.584 82.1787 116.834 82.3943 116.857 82.6849L117.772 94.4645C117.786 94.6402 117.71 94.8119 117.571 94.9207C117.477 94.9936 117.363 95.0315 117.246 95.0315Z" fill="#14213D"/>
<path d="M302.315 284.934H181.705C178.996 284.934 176.794 282.729 176.794 280.018V206.967C176.794 204.256 178.996 202.051 181.705 202.051H302.316C305.024 202.051 307.228 204.256 307.228 206.967V280.018C307.227 282.729 305.023 284.934 302.315 284.934ZM181.705 202.789C179.402 202.789 177.529 204.663 177.529 206.968V280.019C177.529 282.324 179.401 284.199 181.705 284.199H302.316C304.618 284.199 306.491 282.324 306.491 280.019V206.968C306.491 204.663 304.619 202.789 302.316 202.789H181.705Z" fill="#14213D"/>
<path d="M306.859 211.851H177.161V206.967C177.161 204.456 179.195 202.42 181.705 202.42H302.315C304.825 202.42 306.859 204.456 306.859 206.967V211.851Z" fill="#14213D"/>
<path d="M185.391 233.913L204.392 233.913L204.392 214.897L185.391 214.897L185.391 233.913Z" fill="#D3DCEF"/>
<path d="M185.391 256.874L204.392 256.874L204.392 237.857L185.391 237.857L185.391 256.874Z" fill="#D3DCEF"/>
<path d="M185.391 279.169L204.392 279.169L204.392 260.152L185.391 260.152L185.391 279.169Z" fill="#D3DCEF"/>
<path d="M193.051 230.659L186.259 223.86L189.717 220.398L193.051 223.734L200.063 216.716L203.523 220.178L193.051 230.659Z" fill="#3662CA"/>
<path d="M193.051 254.338L186.259 247.539L189.717 244.078L193.051 247.413L200.063 240.396L203.522 243.857L193.051 254.338Z" fill="#3662CA"/>
<path d="M193.051 276.018L186.259 269.219L189.717 265.758L193.051 269.094L200.063 262.075L203.523 265.538L193.051 276.018Z" fill="#3662CA"/>
<path d="M207.572 219.859L298.748 219.859L298.748 216.101L207.572 216.101L207.572 219.859Z" fill="#D3DCEF"/>
<path d="M207.572 226.988L298.748 226.988L298.748 223.229L207.572 223.229L207.572 226.988Z" fill="#D3DCEF"/>
<path d="M207.577 233.982L248.6 233.982L248.6 230.223L207.577 230.223L207.577 233.982Z" fill="#D3DCEF"/>
<path d="M207.572 242.186L298.748 242.186L298.748 238.427L207.572 238.427L207.572 242.186Z" fill="#D3DCEF"/>
<path d="M207.572 249.314L298.748 249.314L298.748 245.556L207.572 245.556L207.572 249.314Z" fill="#D3DCEF"/>
<path d="M207.577 256.308L248.6 256.308L248.6 252.549L207.577 252.549L207.577 256.308Z" fill="#D3DCEF"/>
<path d="M207.572 264.902L298.748 264.902L298.748 261.144L207.572 261.144L207.572 264.902Z" fill="#D3DCEF"/>
<path d="M207.572 272.031L298.748 272.031L298.748 268.273L207.572 268.273L207.572 272.031Z" fill="#D3DCEF"/>
<path d="M207.577 279.025L248.6 279.025L248.6 275.266L207.577 275.266L207.577 279.025Z" fill="#D3DCEF"/>
<path d="M413.347 241.578L406.812 261.147C397.866 287.912 368.307 295.135 348.044 275.508L333.234 261.154C308.51 237.2 315.954 192.934 345.944 185.606L367.29 180.389C397.27 173.063 424.259 208.915 413.347 241.578Z" fill="#EC963C"/>
<path d="M361.211 203.578C376.785 199.773 388.2 191.73 386.709 185.615C385.217 179.5 371.383 177.628 355.809 181.434C340.235 185.239 328.82 193.282 330.312 199.397C331.803 205.512 345.638 207.384 361.211 203.578Z" fill="#D6842E"/>
<path d="M400.364 163.252C400.364 184.982 379.06 192.155 352.779 192.155C326.498 192.155 305.194 184.982 305.194 163.252C305.194 141.521 326.498 121.131 352.779 121.131C379.06 121.132 400.364 141.522 400.364 163.252Z" fill="#EC963C"/>
<path d="M332.425 176.092C332.425 176.092 311.283 175.834 305.222 164.441C305.203 164.052 305.194 163.655 305.194 163.248C305.194 152.437 310.479 141.95 319.027 134.145H372.241C372.241 134.145 390.988 176.092 332.425 176.092Z" fill="#A86825"/>
<path d="M319.009 157.54C322.903 157.54 326.059 153.951 326.059 149.524C326.059 145.096 322.903 141.507 319.009 141.507C315.116 141.507 311.96 145.096 311.96 149.524C311.96 153.951 315.116 157.54 319.009 157.54Z" fill="white"/>
<path d="M343.697 157.54C347.59 157.54 350.746 153.951 350.746 149.524C350.746 145.096 347.59 141.507 343.697 141.507C339.804 141.507 336.647 145.096 336.647 149.524C336.647 153.951 339.804 157.54 343.697 157.54Z" fill="white"/>
<path d="M328.919 165.749C322.36 165.749 322.253 159.83 322.252 159.77C322.251 159.59 322.396 159.444 322.574 159.443H322.576C322.754 159.443 322.899 159.587 322.9 159.765C322.902 159.982 323.013 165.099 328.918 165.099C334.824 165.099 334.934 159.982 334.936 159.765C334.937 159.587 335.083 159.443 335.261 159.443H335.263C335.441 159.444 335.586 159.59 335.585 159.77C335.585 159.83 335.478 165.749 328.919 165.749Z" fill="#14213D"/>
<path d="M383.965 185.438C383.913 185.438 383.861 185.425 383.811 185.399C383.653 185.314 383.595 185.117 383.679 184.96C388.295 176.378 390.25 166.315 389.185 156.627C388.118 146.938 384.021 137.545 377.647 130.174C377.531 130.038 377.545 129.833 377.68 129.716C377.815 129.598 378.019 129.612 378.138 129.748C384.596 137.217 388.748 146.738 389.829 156.555C390.909 166.373 388.928 176.57 384.25 185.267C384.192 185.376 384.081 185.438 383.965 185.438Z" fill="#14213D" fill-opacity="0.4"/>
<path d="M354.444 126.198C354.383 126.198 354.321 126.18 354.266 126.144C354.116 126.045 354.075 125.845 354.174 125.694C359.099 118.217 360.439 108.651 357.761 100.107C357.707 99.9363 357.803 99.7536 357.974 99.7007C358.143 99.6488 358.327 99.7426 358.379 99.9133C361.117 108.642 359.747 118.414 354.716 126.052C354.654 126.146 354.55 126.198 354.444 126.198Z" fill="#14213D"/>
<path d="M358.045 107.067C363.045 107.067 367.099 103.009 367.099 98.0045C367.099 92.9996 363.045 88.9424 358.045 88.9424C353.044 88.9424 348.99 92.9996 348.99 98.0045C348.99 103.009 353.044 107.067 358.045 107.067Z" fill="#3662CA"/>
<path d="M392.701 236.55C400.314 236.55 406.485 228.724 406.485 219.069C406.485 209.414 400.314 201.588 392.701 201.588C385.088 201.588 378.916 209.414 378.916 219.069C378.916 228.724 385.088 236.55 392.701 236.55Z" fill="#A86825"/>
<path d="M345.709 245.805C333.869 245.805 322.037 243.048 311.445 237.719C307.338 235.653 305.683 230.646 307.746 226.535C309.81 222.425 314.813 220.767 318.921 222.834C330.104 228.459 343.06 230.415 355.401 228.341C367.744 226.267 379.351 220.185 388.084 211.214C391.291 207.918 396.56 207.849 399.853 211.061C403.145 214.271 403.214 219.545 400.007 222.84C388.825 234.328 373.962 242.116 358.157 244.772C354.043 245.463 349.876 245.805 345.709 245.805Z" fill="#14213D"/>
<path d="M225.775 184.639C227.712 184.326 229.728 184.303 231.769 184.609C236.94 185.383 241.501 188.125 244.612 192.332C247.722 196.539 249.009 201.707 248.236 206.882L248.105 207.755C247.748 210.148 245.521 211.8 243.129 211.441C240.738 211.083 239.089 208.853 239.446 206.46L239.577 205.587C240.004 202.727 239.292 199.871 237.574 197.546C235.855 195.22 233.334 193.704 230.475 193.277C224.574 192.394 219.057 196.48 218.175 202.386L218.044 203.259C217.686 205.652 215.458 207.301 213.067 206.944C210.676 206.586 209.027 204.355 209.385 201.962L209.515 201.09C210.805 192.448 217.582 185.96 225.775 184.639Z" fill="#3662CA"/>
<path d="M314.979 222.067C314.915 223.885 314.575 225.722 313.931 227.525C312.302 232.09 308.994 235.746 304.617 237.822C300.239 239.896 295.317 240.141 290.755 238.51L289.986 238.235C287.877 237.481 286.776 235.159 287.531 233.048C288.284 230.937 290.605 229.837 292.714 230.591L293.483 230.865C296.004 231.767 298.725 231.631 301.144 230.485C303.563 229.338 305.393 227.317 306.293 224.794C308.153 219.585 305.432 213.834 300.227 211.973L299.458 211.698C297.35 210.943 296.252 208.621 297.004 206.509C297.759 204.399 300.079 203.299 302.189 204.053L302.958 204.328C310.572 207.051 315.248 214.378 314.979 222.067Z" fill="#3662CA"/>
<path d="M242.093 312.874H184.691V370.324H242.093V312.874Z" fill="#3662CA"/>
<path d="M368.537 305.215H177.161V295.846C177.161 293.334 179.195 291.298 181.705 291.298H363.994C366.504 291.298 368.538 293.334 368.538 295.846L368.537 305.215Z" fill="#3662CA"/>
<path d="M363.993 413.053H181.705C178.899 413.053 176.618 410.769 176.618 407.962V295.847C176.618 293.038 178.9 290.755 181.705 290.755H363.994C366.799 290.755 369.081 293.038 369.081 295.847V407.963C369.08 410.769 366.798 413.053 363.993 413.053ZM181.705 291.841C179.499 291.841 177.704 293.638 177.704 295.847V407.963C177.704 410.17 179.499 411.967 181.705 411.967H363.994C366.2 411.967 367.995 410.17 367.995 407.963V295.847C367.995 293.638 366.201 291.841 363.994 291.841H181.705Z" fill="#14213D"/>
<path d="M361.553 298.202C361.553 298.821 361.304 299.39 360.895 299.799C360.486 300.208 359.917 300.458 359.299 300.458H348.346C347.109 300.458 346.092 299.45 346.092 298.202C346.092 297.583 346.351 297.014 346.75 296.604C347.169 296.195 347.728 295.945 348.346 295.945H359.299C360.546 295.945 361.553 296.954 361.553 298.202Z" fill="#14213D"/>
<path d="M343.338 298.202C343.338 298.821 343.089 299.39 342.67 299.799C342.271 300.208 341.703 300.458 341.084 300.458H330.131C328.884 300.458 327.877 299.45 327.877 298.202C327.877 297.583 328.126 297.014 328.535 296.604C328.944 296.195 329.503 295.945 330.131 295.945H341.084C342.321 295.945 343.338 296.954 343.338 298.202Z" fill="#14213D"/>
<path d="M324.813 298.202C324.813 298.821 324.564 299.39 324.145 299.799C323.746 300.208 323.177 300.458 322.559 300.458H311.606C310.359 300.458 309.352 299.45 309.352 298.202C309.352 297.583 309.601 297.014 310.01 296.604C310.419 296.195 310.977 295.945 311.606 295.945H322.559C323.796 295.945 324.813 296.954 324.813 298.202Z" fill="#3662CA"/>
<path d="M206.441 362.91L187.526 343.979L196.565 334.934L206.441 344.819L230.95 320.288L239.989 329.334L206.441 362.91Z" fill="#D3DCEF"/>
<path d="M358.41 381.492H185.985C185.273 381.492 184.691 380.909 184.691 380.197V379.468C184.691 378.755 185.274 378.173 185.985 378.173H358.41C359.123 378.173 359.704 378.756 359.704 379.468V380.197C359.704 380.91 359.123 381.492 358.41 381.492Z" fill="#D3DCEF"/>
<path d="M358.598 393.227H186.173C185.46 393.227 184.879 392.644 184.879 391.932V391.203C184.879 390.49 185.461 389.908 186.173 389.908H358.598C359.31 389.908 359.892 390.491 359.892 391.203V391.932C359.892 392.644 359.309 393.227 358.598 393.227Z" fill="#D3DCEF"/>
<path d="M306.373 404.25H186.079C185.367 404.25 184.785 403.667 184.785 402.955V402.227C184.785 401.514 185.368 400.932 186.079 400.932H306.373C307.085 400.932 307.667 401.515 307.667 402.227V402.955C307.667 403.667 307.084 404.25 306.373 404.25Z" fill="#D3DCEF"/>
<path d="M321.058 358.626C315.146 358.626 310.337 353.813 310.337 347.897V324.967C310.337 320.181 306.447 316.288 301.666 316.288C296.884 316.288 292.994 320.181 292.994 324.967V343.736C292.994 348.945 288.76 353.183 283.555 353.183H283.22C278.015 353.183 273.781 348.945 273.781 343.736V322.976C273.781 318.651 270.266 315.134 265.945 315.134C261.625 315.134 258.111 318.652 258.111 322.976V361.852C258.111 362.295 257.753 362.655 257.309 362.655C256.865 362.655 256.507 362.295 256.507 361.852V322.976C256.507 317.766 260.74 313.528 265.945 313.528C271.15 313.528 275.385 317.766 275.385 322.976V343.736C275.385 348.061 278.9 351.578 283.22 351.578H283.555C287.876 351.578 291.39 348.06 291.39 343.736V324.967C291.39 319.296 295.999 314.684 301.665 314.684C307.329 314.684 311.939 319.297 311.939 324.967V347.897C311.939 352.929 316.029 357.022 321.056 357.022C326.084 357.022 330.173 352.929 330.173 347.897V342.379C330.173 336.626 334.849 331.946 340.597 331.946C346.344 331.946 351.021 336.626 351.021 342.379V364.937C351.021 365.38 350.663 365.739 350.219 365.739C349.775 365.739 349.417 365.38 349.417 364.937V342.379C349.417 337.512 345.461 333.551 340.597 333.551C335.733 333.551 331.777 337.511 331.777 342.379V347.897C331.779 353.812 326.97 358.626 321.058 358.626Z" fill="#D3DCEF"/>
<path d="M265.254 319.114C267.969 319.114 270.17 316.911 270.17 314.193C270.17 311.476 267.969 309.272 265.254 309.272C262.538 309.272 260.337 311.476 260.337 314.193C260.337 316.911 262.538 319.114 265.254 319.114Z" fill="#EC963C"/>
<path d="M291.747 338.808C294.462 338.808 296.664 336.605 296.664 333.887C296.664 331.169 294.462 328.966 291.747 328.966C289.031 328.966 286.83 331.169 286.83 333.887C286.83 336.605 289.031 338.808 291.747 338.808Z" fill="#EC963C"/>
<path d="M311.943 328.287C314.659 328.287 316.86 326.084 316.86 323.366C316.86 320.649 314.659 318.445 311.943 318.445C309.228 318.445 307.026 320.649 307.026 323.366C307.026 326.084 309.228 328.287 311.943 328.287Z" fill="#EC963C"/>
<path d="M320.575 362.118C323.29 362.118 325.492 359.915 325.492 357.197C325.492 354.48 323.29 352.276 320.575 352.276C317.86 352.276 315.658 354.48 315.658 357.197C315.658 359.915 317.86 362.118 320.575 362.118Z" fill="#EC963C"/>
<path d="M350.221 368.307C352.937 368.307 355.138 366.103 355.138 363.386C355.138 360.668 352.937 358.465 350.221 358.465C347.506 358.465 345.305 360.668 345.305 363.386C345.305 366.103 347.506 368.307 350.221 368.307Z" fill="#EC963C"/>
<path d="M257.271 367.099C259.987 367.099 262.188 364.895 262.188 362.178C262.188 359.46 259.987 357.257 257.271 357.257C254.556 357.257 252.354 359.46 252.354 362.178C252.354 364.895 254.556 367.099 257.271 367.099Z" fill="#EC963C"/>
<path d="M181.589 142.006C181.313 142.006 181.09 141.783 181.09 141.507V135.517C181.09 135.241 181.313 135.018 181.589 135.018C181.864 135.018 182.087 135.241 182.087 135.517V141.507C182.087 141.783 181.864 142.006 181.589 142.006ZM280.487 136.112C280.219 136.112 279.998 135.9 279.989 135.63C279.979 135.354 280.194 135.124 280.47 135.114C282.418 135.046 284.283 134.567 286.013 133.69C286.259 133.562 286.559 133.664 286.683 133.91C286.808 134.156 286.709 134.456 286.464 134.58C284.603 135.524 282.598 136.039 280.505 136.112C280.498 136.112 280.492 136.112 280.487 136.112ZM274.582 135.392C274.529 135.392 274.476 135.384 274.423 135.366C272.477 134.706 270.656 133.605 269.159 132.18C268.959 131.991 268.951 131.675 269.141 131.475C269.329 131.275 269.646 131.266 269.846 131.457C271.24 132.781 272.933 133.807 274.743 134.42C275.004 134.509 275.144 134.792 275.055 135.053C274.984 135.261 274.791 135.392 274.582 135.392ZM290.834 130.874C290.725 130.874 290.616 130.839 290.525 130.766C290.309 130.594 290.272 130.281 290.443 130.064C291.654 128.535 292.497 126.802 292.95 124.915C293.013 124.647 293.282 124.479 293.551 124.546C293.819 124.61 293.984 124.879 293.92 125.148C293.433 127.178 292.528 129.04 291.226 130.683C291.127 130.809 290.981 130.874 290.834 130.874ZM181.589 130.026C181.313 130.026 181.09 129.802 181.09 129.527V123.537C181.09 123.261 181.313 123.038 181.589 123.038C181.864 123.038 182.087 123.261 182.087 123.537V129.527C182.087 129.802 181.864 130.026 181.589 130.026ZM266.173 127.397C265.975 127.397 265.787 127.279 265.709 127.083C265.041 125.4 264.702 123.62 264.702 121.793V121.032C264.702 120.756 264.925 120.533 265.201 120.533C265.476 120.533 265.699 120.756 265.699 121.032V121.793C265.699 123.493 266.015 125.149 266.637 126.714C266.739 126.97 266.614 127.261 266.358 127.362C266.297 127.386 266.234 127.397 266.173 127.397ZM223.506 126.371H223.042C221.579 126.371 220.136 126.151 218.754 125.717C218.491 125.634 218.345 125.355 218.427 125.092C218.509 124.829 218.787 124.68 219.051 124.765C220.337 125.168 221.68 125.373 223.042 125.373H223.506C223.933 125.373 224.356 125.353 224.773 125.313C225.046 125.289 225.291 125.489 225.316 125.764C225.341 126.039 225.139 126.282 224.865 126.307C224.418 126.35 223.964 126.371 223.506 126.371ZM230.471 124.489C230.299 124.489 230.133 124.401 230.04 124.242C229.901 124.004 229.981 123.698 230.219 123.559C231.873 122.591 233.328 121.248 234.427 119.675C234.585 119.448 234.896 119.394 235.121 119.552C235.347 119.71 235.402 120.021 235.244 120.247C234.063 121.937 232.5 123.38 230.722 124.42C230.644 124.467 230.557 124.489 230.471 124.489ZM213.754 122.782C213.634 122.782 213.514 122.739 213.418 122.652C211.89 121.263 210.657 119.528 209.855 117.633C209.748 117.38 209.866 117.086 210.12 116.978C210.373 116.872 210.665 116.989 210.774 117.243C211.521 119.006 212.666 120.62 214.089 121.912C214.293 122.098 214.308 122.414 214.123 122.617C214.025 122.726 213.889 122.782 213.754 122.782ZM293.816 119.573C293.541 119.573 293.318 119.35 293.318 119.074V113.084C293.318 112.808 293.541 112.585 293.816 112.585C294.092 112.585 294.315 112.808 294.315 113.084V119.074C294.315 119.35 294.092 119.573 293.816 119.573ZM181.589 118.046C181.313 118.046 181.09 117.822 181.09 117.547V111.556C181.09 111.281 181.313 111.057 181.589 111.057C181.864 111.057 182.087 111.281 182.087 111.556V117.547C182.087 117.822 181.864 118.046 181.589 118.046ZM265.201 115.541C264.925 115.541 264.702 115.317 264.702 115.042V109.052C264.702 108.776 264.925 108.552 265.201 108.552C265.476 108.552 265.699 108.776 265.699 109.052V115.042C265.699 115.318 265.476 115.541 265.201 115.541ZM237.111 114.972C237.083 114.972 237.054 114.97 237.024 114.964C236.752 114.916 236.572 114.656 236.62 114.385C236.756 113.615 236.825 112.827 236.824 112.043V108.495C236.824 108.22 237.048 107.996 237.323 107.996C237.598 107.996 237.822 108.22 237.822 108.495V112.042C237.822 112.885 237.748 113.732 237.601 114.558C237.559 114.802 237.349 114.972 237.111 114.972ZM209.224 112.096C208.949 112.096 208.725 111.872 208.725 111.596V105.606C208.725 105.331 208.949 105.107 209.224 105.107C209.499 105.107 209.723 105.331 209.723 105.606V111.596C209.723 111.872 209.499 112.096 209.224 112.096ZM293.816 107.593C293.541 107.593 293.318 107.369 293.318 107.094V101.104C293.318 100.828 293.541 100.604 293.816 100.604C294.092 100.604 294.315 100.828 294.315 101.104V107.094C294.315 107.369 294.092 107.593 293.816 107.593ZM181.589 106.065C181.313 106.065 181.09 105.842 181.09 105.566V99.5761C181.09 99.3006 181.313 99.077 181.589 99.077C181.864 99.077 182.087 99.3006 182.087 99.5761V105.566C182.087 105.842 181.864 106.065 181.589 106.065ZM265.201 103.561C264.925 103.561 264.702 103.337 264.702 103.061V97.0713C264.702 96.7957 264.925 96.5721 265.201 96.5721C265.476 96.5721 265.699 96.7957 265.699 97.0713V103.061C265.699 103.338 265.476 103.561 265.201 103.561ZM237.323 103.005C237.048 103.005 236.824 102.782 236.824 102.506V96.5162C236.824 96.2406 237.048 96.017 237.323 96.017C237.598 96.017 237.822 96.2406 237.822 96.5162V102.506C237.822 102.782 237.599 103.005 237.323 103.005ZM209.224 100.115C208.949 100.115 208.725 99.8916 208.725 99.6161V93.6259C208.725 93.3504 208.949 93.1268 209.224 93.1268C209.499 93.1268 209.723 93.3504 209.723 93.6259V99.6161C209.723 99.8916 209.499 100.115 209.224 100.115ZM293.816 95.6127C293.541 95.6127 293.318 95.389 293.318 95.1135V89.1234C293.318 88.8478 293.541 88.6242 293.816 88.6242C294.092 88.6242 294.315 88.8478 294.315 89.1234V95.1135C294.315 95.389 294.092 95.6127 293.816 95.6127ZM181.589 94.0852C181.313 94.0852 181.09 93.8615 181.09 93.586V87.5959C181.09 87.3203 181.313 87.0967 181.589 87.0967C181.864 87.0967 182.087 87.3203 182.087 87.5959V93.586C182.087 93.8615 181.864 94.0852 181.589 94.0852ZM265.201 91.5803C264.925 91.5803 264.702 91.3567 264.702 91.0811V85.7C264.702 85.5033 264.698 85.3076 264.689 85.113C264.677 84.8374 264.89 84.6048 265.166 84.5928C265.442 84.5858 265.673 84.7945 265.685 85.07C265.694 85.2787 265.699 85.4893 265.699 85.7V91.0811C265.699 91.3577 265.476 91.5803 265.201 91.5803ZM237.323 91.0252C237.048 91.0252 236.824 90.8016 236.824 90.526V85.701C236.824 85.2957 236.841 84.8933 236.874 84.496C236.896 84.2214 237.139 84.0168 237.413 84.0407C237.687 84.0637 237.891 84.3053 237.868 84.5798C237.837 84.9492 237.822 85.3236 237.822 85.701V90.526C237.822 90.8016 237.599 91.0252 237.323 91.0252ZM209.224 88.135C208.949 88.135 208.725 87.9113 208.725 87.6358V81.6457C208.725 81.3701 208.949 81.1465 209.224 81.1465C209.499 81.1465 209.723 81.3701 209.723 81.6457V87.6358C209.723 87.9113 209.499 88.135 209.224 88.135ZM293.816 83.6324C293.541 83.6324 293.318 83.4088 293.318 83.1332V77.1431C293.318 76.8675 293.541 76.6439 293.816 76.6439C294.092 76.6439 294.315 76.8675 294.315 77.1431V83.1332C294.315 83.4088 294.092 83.6324 293.816 83.6324ZM181.589 82.1049C181.313 82.1049 181.09 81.8813 181.09 81.6057V75.6156C181.09 75.34 181.313 75.1164 181.589 75.1164C181.864 75.1164 182.087 75.34 182.087 75.6156V81.6057C182.087 81.8813 181.864 82.1049 181.589 82.1049ZM353.285 81.9701C353.119 81.9701 352.957 81.8883 352.863 81.7385C351.856 80.1491 350.229 79.016 348.398 78.6306C348.128 78.5737 347.956 78.3092 348.013 78.0396C348.07 77.77 348.334 77.5983 348.603 77.6542C350.696 78.0945 352.555 79.3884 353.704 81.2044C353.852 81.437 353.783 81.7455 353.55 81.8933C353.468 81.9452 353.375 81.9701 353.285 81.9701ZM263.66 79.8496C263.48 79.8496 263.306 79.7508 263.218 79.5801C262.338 77.8789 261.073 76.3564 259.558 75.1763C259.34 75.0076 259.301 74.6931 259.471 74.4755C259.639 74.2578 259.954 74.2169 260.171 74.3886C261.799 75.6575 263.159 77.2938 264.103 79.1208C264.23 79.3664 264.134 79.6669 263.89 79.7937C263.816 79.8317 263.737 79.8496 263.66 79.8496ZM239.128 79.3604C239.045 79.3604 238.96 79.3395 238.882 79.2955C238.643 79.1588 238.559 78.8543 238.696 78.6147C239.715 76.8256 241.139 75.2442 242.815 74.0432C243.04 73.8815 243.351 73.9344 243.511 74.158C243.671 74.3816 243.619 74.6941 243.396 74.8538C241.837 75.972 240.51 77.4436 239.562 79.1088C239.47 79.2706 239.301 79.3604 239.128 79.3604ZM342.527 78.4799H336.542C336.267 78.4799 336.043 78.2562 336.043 77.9807C336.043 77.7052 336.267 77.4815 336.542 77.4815H342.527C342.803 77.4815 343.026 77.7052 343.026 77.9807C343.026 78.2562 342.804 78.4799 342.527 78.4799ZM330.727 77.3048C330.658 77.3048 330.588 77.2908 330.521 77.2609C328.644 76.4083 326.951 75.1164 325.627 73.524C325.451 73.3124 325.48 72.9979 325.691 72.8212C325.902 72.6445 326.217 72.6744 326.393 72.8851C327.621 74.3617 329.191 75.5607 330.933 76.3504C331.184 76.4642 331.295 76.7607 331.182 77.0113C331.098 77.196 330.916 77.3048 330.727 77.3048ZM209.224 76.1547C208.949 76.1547 208.725 75.9311 208.725 75.6555V73.4062C208.725 72.1962 208.563 70.9982 208.244 69.8451C208.17 69.5795 208.327 69.304 208.592 69.2311C208.856 69.1612 209.133 69.314 209.206 69.5795C209.548 70.8185 209.723 72.1064 209.723 73.4062V75.6555C209.723 75.9311 209.499 76.1547 209.224 76.1547ZM254.505 72.7244C254.468 72.7244 254.43 72.7204 254.393 72.7114C253.413 72.4848 252.4 72.3699 251.383 72.3699H251.142C250.306 72.3699 249.469 72.4478 248.656 72.6016C248.388 72.6525 248.125 72.4748 248.073 72.2042C248.022 71.9337 248.2 71.6721 248.47 71.6212C249.344 71.4554 250.243 71.3716 251.141 71.3716H251.382C252.474 71.3716 253.563 71.4954 254.616 71.739C254.884 71.8019 255.052 72.0694 254.99 72.338C254.937 72.5686 254.732 72.7244 254.505 72.7244ZM293.816 71.6521C293.541 71.6521 293.318 71.4285 293.318 71.1529V65.1628C293.318 64.8873 293.541 64.6636 293.816 64.6636C294.092 64.6636 294.315 64.8873 294.315 65.1628V71.1529C294.315 71.4285 294.092 71.6521 293.816 71.6521ZM182.098 70.1716C182.053 70.1716 182.009 70.1656 181.964 70.1526C181.698 70.0787 181.544 69.8032 181.618 69.5376C182.179 67.5279 183.154 65.7009 184.514 64.1065C184.694 63.8969 185.009 63.8729 185.218 64.0506C185.427 64.2303 185.452 64.5448 185.273 64.7545C184.008 66.238 183.101 67.9372 182.578 69.8072C182.517 70.0278 182.316 70.1716 182.098 70.1716ZM323.333 68.4035C323.109 68.4035 322.905 68.2507 322.849 68.0231C322.587 66.9539 322.454 65.8477 322.454 64.7365C322.454 63.838 322.36 62.9415 322.175 62.0719C322.118 61.8023 322.29 61.5368 322.559 61.4799C322.827 61.423 323.093 61.5947 323.15 61.8642C323.35 62.8017 323.451 63.7691 323.451 64.7365C323.451 65.7678 323.574 66.7941 323.817 67.7855C323.883 68.0531 323.719 68.3236 323.452 68.3885C323.412 68.3995 323.372 68.4035 323.333 68.4035ZM205.944 64.9611C205.802 64.9611 205.663 64.9012 205.564 64.7854C204.321 63.3198 202.747 62.1188 201.012 61.3121C200.763 61.1953 200.654 60.8988 200.77 60.6482C200.886 60.3987 201.182 60.2888 201.433 60.4056C203.298 61.2732 204.988 62.5641 206.325 64.1385C206.504 64.3482 206.478 64.6636 206.267 64.8423C206.172 64.9222 206.059 64.9611 205.944 64.9611ZM189.626 61.3411C189.437 61.3411 189.257 61.2343 189.172 61.0506C189.056 60.8 189.166 60.5035 189.416 60.3877C191.3 59.5181 193.315 59.0768 195.406 59.0768C195.682 59.0768 195.914 59.3005 195.914 59.576C195.914 59.8516 195.701 60.0752 195.425 60.0752C193.461 60.0752 191.586 60.4855 189.834 61.2942C189.766 61.3271 189.695 61.3411 189.626 61.3411ZM294.963 59.8346C294.895 59.8346 294.826 59.8206 294.759 59.7917C294.508 59.6788 294.395 59.3833 294.508 59.1317C295.35 57.2478 296.631 55.5476 298.216 54.2138C298.427 54.0371 298.74 54.0641 298.92 54.2747C299.097 54.4854 299.069 54.8009 298.859 54.9786C297.389 56.2155 296.2 57.7929 295.419 59.5401C295.336 59.7248 295.153 59.8346 294.963 59.8346ZM320.152 57.0871C320.003 57.0871 319.857 57.0212 319.758 56.8954C318.576 55.3819 317.044 54.135 315.327 53.2904C315.08 53.1686 314.978 52.87 315.1 52.6225C315.22 52.3749 315.516 52.272 315.767 52.3948C317.618 53.3053 319.27 54.6491 320.544 56.2804C320.714 56.4981 320.675 56.8116 320.458 56.9813C320.367 57.0522 320.26 57.0871 320.152 57.0871ZM303.819 52.3888C303.595 52.3888 303.393 52.2381 303.336 52.0115C303.269 51.7439 303.431 51.4733 303.698 51.4065C304.786 51.1329 305.912 50.9941 307.044 50.9941C307.046 50.9941 307.048 50.9941 307.05 50.9941H309.719C309.994 50.9941 310.244 51.2178 310.244 51.4933C310.244 51.7689 310.046 51.9925 309.77 51.9925H307.049C307.047 51.9925 307.045 51.9925 307.043 51.9925C305.992 51.9925 304.949 52.1213 303.939 52.3749C303.899 52.3838 303.858 52.3888 303.819 52.3888Z" fill="#14213D"/>
<path d="M251.297 88.6066C260.531 88.6066 268.017 81.1143 268.017 71.8721C268.017 62.63 260.531 55.1377 251.297 55.1377C242.062 55.1377 234.576 62.63 234.576 71.8721C234.576 81.1143 242.062 88.6066 251.297 88.6066Z" fill="#3662CA"/>
<path d="M246.318 77.8738C246.175 77.8738 246.031 77.8196 245.911 77.7077L240.235 72.4427C240.08 72.2988 239.989 72.0801 239.989 71.8499C239.989 71.6197 240.08 71.401 240.235 71.2571L245.838 66.0594C246.12 65.798 246.531 65.8514 246.756 66.1786C246.981 66.5059 246.935 66.9835 246.653 67.245L241.69 71.8499L246.726 76.5222C247.008 76.7836 247.054 77.2613 246.829 77.5885C246.7 77.776 246.51 77.8738 246.318 77.8738Z" fill="#D3DCEF"/>
<path d="M255.7 77.8738C255.48 77.8738 255.263 77.776 255.115 77.5885C254.858 77.2613 254.911 76.7836 255.233 76.5222L260.989 71.8499L255.316 67.245C254.994 66.9835 254.941 66.5059 255.199 66.1786C255.456 65.8514 255.926 65.798 256.248 66.0594L262.652 71.2571C262.829 71.401 262.932 71.6197 262.932 71.8499C262.932 72.0801 262.829 72.2988 262.652 72.4427L256.165 77.7077C256.028 77.8196 255.863 77.8738 255.7 77.8738Z" fill="#D3DCEF"/>
<path d="M249.735 78.8639C249.641 78.8779 249.543 78.8701 249.445 78.8382C249.089 78.7216 248.888 78.3204 248.998 77.941L252.632 65.4005C252.742 65.0219 253.12 64.8089 253.478 64.9255C253.834 65.0421 254.035 65.4433 253.925 65.8227L250.291 78.3632C250.211 78.64 249.988 78.8273 249.735 78.8639Z" fill="#D3DCEF"/>
<path d="M236.95 147.353H239C239 145.616 238.609 143.867 237.862 142.297L236.016 143.199C235.397 141.898 234.495 140.761 233.392 139.87L234.67 138.249C233.998 137.706 233.267 137.24 232.491 136.857C231.716 136.481 230.897 136.191 230.057 135.999L229.603 138.021C228.928 137.865 228.224 137.783 227.501 137.783C226.778 137.783 226.073 137.865 225.397 138.022L224.943 135.999C224.103 136.191 223.284 136.481 222.509 136.857C221.735 137.24 221.002 137.707 220.33 138.249L221.608 139.87C220.505 140.761 219.603 141.898 218.984 143.199L217.138 142.297C216.392 143.868 216.002 145.617 216 147.353H218.052C218.052 148.84 218.387 150.249 218.985 151.506L217.139 152.408C217.893 153.975 218.983 155.375 220.331 156.456L221.61 154.833C222.702 155.717 223.989 156.361 225.398 156.684L224.945 158.707C226.626 159.096 228.377 159.096 230.059 158.707L229.606 156.685C231.015 156.361 232.302 155.718 233.394 154.833L234.673 156.456C236.02 155.375 237.112 153.975 237.865 152.408L236.019 151.506C236.614 150.249 236.95 148.841 236.95 147.353ZM227.498 153.918C223.999 153.918 221.161 151.044 221.161 147.498C221.161 143.954 223.999 141.08 227.498 141.08C231 141.08 233.837 143.954 233.837 147.498C233.836 151.044 230.999 153.918 227.498 153.918Z" fill="#3662CA"/>
<path d="M284.066 169.508H287.992C287.986 168.596 287.918 167.681 287.777 166.773C287.635 165.867 287.416 164.972 287.136 164.098C286.859 163.222 286.498 162.374 286.082 161.557C285.666 160.741 285.19 159.954 284.646 159.216L281.475 161.525C279.808 159.233 277.443 157.483 274.69 156.59L275.901 152.854C272.403 151.714 268.588 151.714 265.089 152.854L266.302 156.59C263.55 157.483 261.182 159.233 259.516 161.527L256.345 159.216C255.803 159.954 255.325 160.741 254.91 161.557C254.493 162.375 254.133 163.222 253.856 164.098C253.574 164.972 253.355 165.868 253.213 166.773C253.076 167.682 253.005 168.596 253 169.508H256.925C256.925 172.493 257.885 175.252 259.516 177.493L256.345 179.802C258.489 182.773 261.595 185.03 265.09 186.163L266.303 182.429C267.623 182.857 269.032 183.09 270.496 183.09C271.96 183.09 273.371 182.857 274.691 182.427L275.902 186.162C279.396 185.028 282.503 182.773 284.647 179.801L281.476 177.492C283.105 175.252 284.066 172.493 284.066 169.508ZM270.498 176.842C266.213 176.842 262.742 173.366 262.742 169.079C262.742 164.792 266.212 161.316 270.498 161.316C274.782 161.316 278.252 164.792 278.252 169.079C278.252 173.366 274.782 176.842 270.498 176.842Z" fill="#3662CA"/>
<path d="M253.933 138.875C257.21 138.875 259.866 136.217 259.866 132.937C259.866 129.658 257.21 126.999 253.933 126.999C250.656 126.999 248 129.658 248 132.937C248 136.217 250.656 138.875 253.933 138.875Z" fill="#3662CA"/>
<path d="M469.598 448.75H0.402C0.179553 448.75 0 448.569 0 448.348C0 448.126 0.179553 447.945 0.402 447.945H469.598C469.82 447.945 470 448.126 470 448.348C470 448.569 469.82 448.75 469.598 448.75Z" fill="#14213D"/>
</svg>
