<svg width="370" height="440" viewBox="0 0 370 440" fill="none" xmlns="http://www.w3.org/2000/svg">
<g clip-path="url(#clip0_586_8373)">
<path d="M343.171 16.1836H186.773C178.552 16.1836 171.887 22.8192 171.887 31.0046V189.754C171.887 197.94 178.552 204.575 186.773 204.575H343.171C351.393 204.575 358.058 197.94 358.058 189.754V31.0046C358.058 22.8192 351.393 16.1836 343.171 16.1836Z" fill="url(#paint0_linear_586_8373)"/>
<path d="M143.291 153.829C171.858 153.829 195.017 130.773 195.017 102.331C195.017 73.8887 171.858 50.832 143.291 50.832C114.723 50.832 91.5645 73.8887 91.5645 102.331C91.5645 130.773 114.723 153.829 143.291 153.829Z" fill="white"/>
<path opacity="0.51" d="M143.291 153.829C171.858 153.829 195.017 130.773 195.017 102.331C195.017 73.8887 171.858 50.832 143.291 50.832C114.723 50.832 91.5645 73.8887 91.5645 102.331C91.5645 130.773 114.723 153.829 143.291 153.829Z" fill="url(#paint1_linear_586_8373)"/>
<path d="M265.616 177.961H200.784C184.651 177.961 171.572 190.982 171.572 207.044V207.058C171.572 223.12 184.651 236.141 200.784 236.141H265.616C281.749 236.141 294.828 223.12 294.828 207.058V207.044C294.828 190.982 281.749 177.961 265.616 177.961Z" fill="white"/>
<path opacity="0.51" d="M200.798 236.141H265.63C281.763 236.141 294.842 223.12 294.842 207.058V207.044C294.842 190.982 281.763 177.961 265.63 177.961H200.798C184.665 177.961 171.586 190.982 171.586 207.044V207.058C171.586 223.12 184.665 236.141 200.798 236.141Z" fill="url(#paint2_linear_586_8373)"/>
<path d="M189.882 121.583H129.404C121.16 121.583 114.422 114.875 114.422 106.666C114.422 98.4583 121.16 91.75 129.404 91.75H189.882C198.126 91.75 204.864 98.4583 204.864 106.666C204.864 114.875 198.126 121.583 189.882 121.583Z" fill="white"/>
<path d="M186.979 114.656H154.562C150.139 114.656 146.537 111.056 146.537 106.666C146.537 102.262 150.153 98.6758 154.562 98.6758H186.979C191.402 98.6758 195.004 102.275 195.004 106.666C195.004 111.07 191.388 114.656 186.979 114.656Z" fill="#5648A6"/>
<path d="M73.543 164.465L107.877 298.863H167.231L200.099 164.465H73.543Z" fill="white"/>
<path d="M94.1953 164.465L123.626 298.863" stroke="#8379D8" stroke-miterlimit="10"/>
<path opacity="0.51" d="M73.543 164.465L107.877 298.863H167.231L200.099 164.465H73.543Z" fill="url(#paint3_linear_586_8373)"/>
<path d="M132.294 258.08H67.4753C51.4109 258.08 38.2637 244.991 38.2637 228.997C38.2637 213.003 51.4109 199.914 67.4753 199.914H132.294C148.358 199.914 161.506 213.003 161.506 228.997C161.506 244.991 148.358 258.08 132.294 258.08Z" fill="white"/>
<path opacity="0.51" d="M67.4753 199.914H132.294C148.358 199.914 161.506 213.003 161.506 228.997C161.506 244.991 148.358 258.08 132.294 258.08H67.4753C51.4109 258.08 38.2637 244.991 38.2637 228.997C38.2637 213.003 51.4109 199.914 67.4753 199.914Z" fill="url(#paint4_linear_586_8373)"/>
<path d="M141.922 246.37C148.245 246.37 153.371 238.208 153.371 228.14C153.371 218.072 148.245 209.91 141.922 209.91C135.599 209.91 130.473 218.072 130.473 228.14C130.473 238.208 135.599 246.37 141.922 246.37Z" fill="#5648A6"/>
<path d="M273.818 223.913C280.141 223.913 285.267 215.751 285.267 205.683C285.267 195.615 280.141 187.453 273.818 187.453C267.495 187.453 262.369 195.615 262.369 205.683C262.369 215.751 267.495 223.913 273.818 223.913Z" fill="#5648A6"/>
<path d="M109.281 110.989C110.634 102.694 104.976 94.8777 96.6441 93.5312C88.3122 92.1847 80.4615 97.8178 79.109 106.113C77.7565 114.408 83.4145 122.224 91.7464 123.571C100.078 124.917 107.929 119.284 109.281 110.989Z" fill="white"/>
<path d="M170.778 252.07C183.575 252.07 193.95 241.741 193.95 229C193.95 216.259 183.575 205.93 170.778 205.93C157.98 205.93 147.605 216.259 147.605 229C147.605 241.741 157.98 252.07 170.778 252.07Z" fill="white"/>
<path opacity="0.51" d="M170.778 252.07C183.575 252.07 193.95 241.741 193.95 229C193.95 216.259 183.575 205.93 170.778 205.93C157.98 205.93 147.605 216.259 147.605 229C147.605 241.741 157.98 252.07 170.778 252.07Z" fill="url(#paint5_linear_586_8373)"/>
<path d="M320.289 218.628C327.464 208.077 324.689 193.734 314.092 186.59C303.495 179.447 289.088 182.209 281.913 192.76C274.738 203.31 277.513 217.654 288.11 224.797C298.707 231.94 313.114 229.178 320.289 218.628Z" fill="white"/>
<path opacity="0.51" d="M320.289 218.628C327.464 208.077 324.689 193.734 314.092 186.59C303.495 179.447 289.088 182.209 281.913 192.76C274.738 203.31 277.513 217.654 288.11 224.797C298.707 231.94 313.114 229.178 320.289 218.628Z" fill="url(#paint6_linear_586_8373)"/>
<path d="M311.124 213.059C313.055 214.013 314.876 215.145 316.615 216.413C317.136 216.794 316.424 216.249 316.739 216.508C316.93 216.658 317.122 216.808 317.314 216.972C317.725 217.313 318.136 217.667 318.533 218.022C319.327 218.744 320.094 219.494 320.82 220.285C321.546 221.076 322.189 221.812 322.819 222.617C322.354 222.017 322.943 222.794 322.984 222.862C323.134 223.053 323.271 223.257 323.408 223.462C323.71 223.898 324.011 224.348 324.298 224.798C324.874 225.698 325.408 226.639 325.901 227.58C326.12 228.016 326.339 228.452 326.544 228.889C326.668 229.148 326.791 229.42 326.9 229.693C326.654 229.148 326.901 229.734 326.996 229.966C327.654 231.615 329.311 232.952 331.214 232.352C332.817 231.834 334.31 229.938 333.611 228.152C330.023 219.153 323.34 211.531 314.589 207.182C312.986 206.391 310.809 206.705 309.905 208.409C309.083 209.95 309.426 212.227 311.137 213.072L311.124 213.059Z" fill="white"/>
<path d="M318.067 204.688C318.971 204.633 319.875 204.619 320.779 204.674C321.231 204.701 321.683 204.742 322.135 204.797C322.669 204.851 321.601 204.688 322.121 204.797C322.367 204.851 322.614 204.878 322.86 204.933C323.751 205.11 324.627 205.328 325.49 205.601C325.928 205.737 326.353 205.887 326.777 206.051C326.832 206.078 327.421 206.31 327.065 206.16C326.668 205.997 327.503 206.365 327.489 206.351C328.27 206.719 329.023 207.115 329.749 207.565C330.133 207.796 330.516 208.042 330.886 208.301C331.091 208.437 331.297 208.601 331.502 208.737C331.927 209.037 331.132 208.423 331.529 208.751C332.214 209.337 332.899 209.923 333.543 210.564C333.858 210.891 334.159 211.219 334.46 211.56C334.597 211.709 334.72 211.859 334.844 212.023C335.474 212.787 334.46 211.491 335.035 212.282C336.09 213.714 338.062 214.573 339.719 213.509C341.143 212.596 342.075 210.387 340.952 208.846C335.693 201.702 327.051 197.298 318.081 197.87C316.301 197.979 314.575 199.356 314.657 201.279C314.739 203.024 316.164 204.81 318.081 204.688H318.067Z" fill="white"/>
<path d="M315.562 195.388C316.877 195.047 318.192 194.761 319.534 194.529C319.849 194.474 320.15 194.434 320.465 194.379C320.876 194.324 320.876 194.324 320.479 194.379C320.63 194.365 320.794 194.338 320.945 194.324C321.616 194.243 322.287 194.188 322.971 194.134C325.683 193.943 328.395 194.025 331.093 194.324C332.873 194.529 334.599 192.62 334.516 190.916C334.421 188.898 333.01 187.725 331.093 187.507C325.3 186.853 319.383 187.343 313.741 188.816C312.015 189.266 310.783 191.27 311.344 193.016C311.906 194.761 313.7 195.879 315.562 195.402V195.388Z" fill="white"/>
<path d="M172.954 245.728C173.214 245.755 173.461 245.783 173.721 245.81C174.282 245.851 172.913 245.673 173.885 245.837C174.337 245.919 174.803 245.987 175.255 246.082C176.159 246.273 177.062 246.519 177.939 246.792C178.432 246.955 178.911 247.119 179.404 247.31C179.459 247.337 180.048 247.569 179.719 247.432C179.322 247.269 180.089 247.596 180.158 247.637C181.048 248.046 181.924 248.496 182.76 249C183.554 249.478 184.335 249.982 185.088 250.527C185.28 250.664 185.636 250.95 185.252 250.65C185.416 250.787 185.567 250.909 185.731 251.046C186.129 251.373 186.512 251.714 186.896 252.068C187.567 252.695 188.224 253.363 188.827 254.059C188.991 254.25 189.155 254.454 189.32 254.645C189.402 254.741 189.826 255.3 189.457 254.809C189.758 255.218 190.059 255.64 190.347 256.063C191.346 257.536 193.414 258.327 195.03 257.29C196.51 256.336 197.331 254.209 196.263 252.627C190.963 244.76 182.417 239.783 172.954 238.924C171.16 238.761 169.448 240.601 169.53 242.333C169.626 244.324 171.037 245.564 172.954 245.742V245.728Z" fill="white"/>
<path d="M183.198 236.509C184.896 236.359 186.594 236.359 188.279 236.523C188.484 236.55 188.703 236.564 188.909 236.591C188.525 236.537 188.539 236.537 188.95 236.591C189.265 236.646 189.58 236.7 189.895 236.755C190.73 236.918 191.552 237.109 192.374 237.355C193.195 237.6 193.99 237.873 194.784 238.173C195.756 238.541 194.195 237.887 195.14 238.323C195.524 238.5 195.907 238.677 196.291 238.868C197.811 239.632 199.249 240.532 200.591 241.568C202.015 242.659 204.48 241.841 205.275 240.341C206.233 238.541 205.576 236.837 204.042 235.678C198.194 231.233 190.525 229.051 183.198 229.692C181.418 229.842 179.692 231.151 179.774 233.101C179.856 234.819 181.281 236.673 183.198 236.509Z" fill="white"/>
<path d="M183.514 223.762C185.157 223.367 186.814 223.026 188.471 222.767C189.471 222.603 189.54 222.603 190.457 222.508C191.292 222.412 192.142 222.344 192.977 222.29C196.346 222.058 199.729 222.112 203.098 222.426C204.892 222.589 206.604 220.735 206.521 219.017C206.426 217.026 205.015 215.786 203.098 215.608C195.935 214.94 188.677 215.513 181.692 217.19C179.953 217.613 178.748 219.672 179.296 221.39C179.884 223.189 181.637 224.226 183.514 223.776V223.762Z" fill="white"/>
<path d="M156.507 108.6C158.247 108.6 159.657 107.196 159.657 105.464C159.657 103.732 158.247 102.328 156.507 102.328C154.768 102.328 153.357 103.732 153.357 105.464C153.357 107.196 154.768 108.6 156.507 108.6Z" fill="#A2F7FF"/>
<path d="M170.777 108.6C172.516 108.6 173.927 107.196 173.927 105.464C173.927 103.732 172.516 102.328 170.777 102.328C169.037 102.328 167.627 103.732 167.627 105.464C167.627 107.196 169.037 108.6 170.777 108.6Z" fill="#A2F7FF"/>
<path d="M185.035 108.6C186.774 108.6 188.185 107.196 188.185 105.464C188.185 103.732 186.774 102.328 185.035 102.328C183.295 102.328 181.885 103.732 181.885 105.464C181.885 107.196 183.295 108.6 185.035 108.6Z" fill="#A2F7FF"/>
<path d="M171.572 322.737C171.572 324.686 157.672 326.254 140.525 326.254C123.379 326.254 109.479 324.673 109.479 322.737C109.479 320.8 123.379 319.219 140.525 319.219C157.672 319.219 171.572 320.8 171.572 322.737Z" stroke="url(#paint7_linear_586_8373)" stroke-width="2" stroke-linecap="round" stroke-linejoin="round"/>
<path d="M165.847 336.018C165.847 337.518 155.137 338.731 141.921 338.731C128.706 338.731 117.996 337.518 117.996 336.018C117.996 334.518 128.706 333.305 141.921 333.305C155.137 333.305 165.847 334.518 165.847 336.018Z" stroke="url(#paint8_linear_586_8373)" stroke-width="2" stroke-linecap="round" stroke-linejoin="round"/>
<path d="M147.002 358.16C147.002 361.719 144.099 364.609 140.525 364.609C136.95 364.609 134.047 361.719 134.047 358.16C134.047 354.602 136.95 351.711 140.525 351.711C144.099 351.711 147.002 354.602 147.002 358.16Z" fill="url(#paint9_linear_586_8373)"/>
<path d="M68.2016 108.586C68.2016 112.145 65.2983 115.035 61.7239 115.035C58.1495 115.035 55.2461 112.145 55.2461 108.586C55.2461 105.027 58.1495 102.137 61.7239 102.137C65.2983 102.137 68.2016 105.027 68.2016 108.586Z" fill="url(#paint10_linear_586_8373)"/>
<path d="M224.778 106.652C224.778 110.211 221.874 113.102 218.3 113.102C214.726 113.102 211.822 110.211 211.822 106.652C211.822 103.094 214.726 100.203 218.3 100.203C221.874 100.203 224.778 103.094 224.778 106.652Z" fill="url(#paint11_linear_586_8373)"/>
<path d="M68.2016 108.586C68.2016 112.145 65.2983 115.035 61.7239 115.035C58.1495 115.035 55.2461 112.145 55.2461 108.586C55.2461 105.027 58.1495 102.137 61.7239 102.137C65.2983 102.137 68.2016 105.027 68.2016 108.586Z" fill="url(#paint12_linear_586_8373)"/>
<path d="M224.778 106.652C224.778 110.211 221.874 113.102 218.3 113.102C214.726 113.102 211.822 110.211 211.822 106.652C211.822 103.094 214.726 100.203 218.3 100.203C221.874 100.203 224.778 103.094 224.778 106.652Z" fill="white"/>
<path opacity="0.42" d="M246.648 130.798H207.823C206.357 130.798 205.166 129.612 205.166 128.153C205.166 126.694 206.357 125.508 207.823 125.508H246.648C248.114 125.508 249.305 126.694 249.305 128.153C249.305 129.612 248.114 130.798 246.648 130.798Z" fill="white"/>
<path opacity="0.42" d="M246.648 142.157H207.823C206.357 142.157 205.166 140.971 205.166 139.512C205.166 138.053 206.357 136.867 207.823 136.867H246.648C248.114 136.867 249.305 138.053 249.305 139.512C249.305 140.971 248.114 142.157 246.648 142.157Z" fill="white"/>
<path opacity="0.42" d="M296.074 130.798H257.249C255.783 130.798 254.592 129.612 254.592 128.153C254.592 126.694 255.783 125.508 257.249 125.508H296.074C297.54 125.508 298.731 126.694 298.731 128.153C298.731 129.612 297.54 130.798 296.074 130.798Z" fill="white"/>
<path opacity="0.42" d="M296.074 142.157H257.249C255.783 142.157 254.592 140.971 254.592 139.512C254.592 138.053 255.783 136.867 257.249 136.867H296.074C297.54 136.867 298.731 138.053 298.731 139.512C298.731 140.971 297.54 142.157 296.074 142.157Z" fill="white"/>
<path opacity="0.42" d="M348.033 130.798H309.208C307.742 130.798 306.551 129.612 306.551 128.153C306.551 126.694 307.742 125.508 309.208 125.508H348.033C349.499 125.508 350.69 126.694 350.69 128.153C350.69 129.612 349.499 130.798 348.033 130.798Z" fill="white"/>
<path opacity="0.42" d="M348.033 142.157H309.208C307.742 142.157 306.551 140.971 306.551 139.512C306.551 138.053 307.742 136.867 309.208 136.867H348.033C349.499 136.867 350.69 138.053 350.69 139.512C350.69 140.971 349.499 142.157 348.033 142.157Z" fill="white"/>
<path opacity="0.42" d="M236.979 163.291C236.979 165.964 234.802 168.145 232.104 168.145C229.406 168.145 227.229 165.978 227.229 163.291C227.229 160.605 229.406 158.438 232.104 158.438C234.802 158.438 236.979 160.605 236.979 163.291Z" fill="white"/>
<path opacity="0.42" d="M281.544 163.291C281.544 165.964 279.366 168.145 276.668 168.145C273.97 168.145 271.793 165.978 271.793 163.291C271.793 160.605 273.97 158.438 276.668 158.438C279.366 158.438 281.544 160.605 281.544 163.291Z" fill="white"/>
<path opacity="0.42" d="M324.642 163.291C324.642 165.964 322.464 168.145 319.766 168.145C317.068 168.145 314.891 165.978 314.891 163.291C314.891 160.605 317.068 158.438 319.766 158.438C322.464 158.438 324.642 160.605 324.642 163.291Z" fill="white"/>
<path d="M345.418 83.4595H267.712C265.384 83.4595 263.467 81.5642 263.467 79.2327C263.467 76.9148 265.37 75.0195 267.712 75.0195H345.418C347.746 75.0195 349.65 76.9148 349.65 79.2327C349.65 81.5506 347.746 83.4595 345.418 83.4595Z" fill="white"/>
<path opacity="0.67" d="M345.418 99.6997H267.712C265.384 99.6997 263.467 97.8044 263.467 95.4729C263.467 93.155 265.37 91.2461 267.712 91.2461H345.418C347.746 91.2461 349.65 93.1413 349.65 95.4729C349.65 97.7908 347.746 99.6997 345.418 99.6997Z" fill="white"/>
<path opacity="0.67" d="M345.418 114.848H267.712C265.384 114.848 263.467 112.953 263.467 110.621C263.467 108.303 265.37 106.395 267.712 106.395H345.418C347.746 106.395 349.65 108.29 349.65 110.621C349.65 112.939 347.746 114.848 345.418 114.848Z" fill="white"/>
<g opacity="0.42">
<path d="M243.239 339.601C242.677 339.628 242.116 339.642 241.554 339.642C222.107 339.642 206.289 323.893 206.289 304.532C206.289 285.171 222.107 269.422 241.554 269.422C261.001 269.422 276.819 285.171 276.819 304.532C276.819 304.914 276.805 305.309 276.792 305.691H287.392C287.392 305.309 287.405 304.927 287.405 304.532C287.405 279.362 266.835 258.883 241.554 258.883C216.273 258.883 195.703 279.362 195.703 304.532C195.703 329.702 216.273 350.181 241.554 350.181C242.116 350.181 242.677 350.168 243.239 350.14V339.587V339.601Z" fill="#14213D"/>
</g>
<path d="M240.952 269.45V267.016C240.952 262.556 237.275 258.887 232.895 259.723C211.737 263.765 195.703 282.314 195.703 304.546C195.703 304.997 196.084 305.35 196.536 305.35H205.512C205.956 305.35 206.289 304.99 206.289 304.546C206.289 285.393 221.771 269.785 240.938 269.464C240.946 269.464 240.952 269.457 240.952 269.45Z" fill="url(#paint13_linear_586_8373)"/>
<path d="M242.293 318.059C234.76 318.059 228.611 311.923 228.611 304.438C228.611 296.938 234.774 290.816 242.293 290.816C249.825 290.816 255.974 296.952 255.974 304.438C255.974 311.937 249.811 318.059 242.293 318.059Z" fill="url(#paint14_linear_586_8373)"/>
<g opacity="0.42">
<path d="M324.025 343.801C323.683 343.815 323.354 343.828 323.012 343.828C311.275 343.828 301.716 334.325 301.716 322.626C301.716 310.928 311.261 301.424 323.012 301.424C334.762 301.424 344.308 310.928 344.308 322.626C344.308 322.858 344.308 323.09 344.294 323.322H350.703C350.703 323.09 350.703 322.858 350.703 322.626C350.703 307.423 338.282 295.07 323.025 295.07C307.769 295.07 295.348 307.437 295.348 322.626C295.348 337.815 307.769 350.182 323.025 350.182C323.368 350.182 323.71 350.182 324.039 350.155V343.787L324.025 343.801Z" fill="#14213D"/>
</g>
<path d="M319.519 301.718C321.237 301.435 322.642 300.041 322.642 298.3C322.642 296.523 321.183 295.07 319.42 295.297C305.847 297.05 295.32 308.635 295.32 322.626C295.32 322.897 295.54 323.117 295.811 323.117H301.225C301.496 323.117 301.716 322.897 301.716 322.626C301.716 312.124 309.433 303.377 319.519 301.718Z" fill="url(#paint15_linear_586_8373)"/>
<path d="M323.463 330.779C318.916 330.779 315.205 327.084 315.205 322.558C315.205 318.031 318.916 314.336 323.463 314.336C328.01 314.336 331.721 318.031 331.721 322.558C331.721 327.084 328.01 330.779 323.463 330.779Z" fill="url(#paint16_linear_586_8373)"/>
<path d="M38.2643 394.668V325.156C38.2643 321.877 35.6063 319.219 32.3274 319.219C29.0486 319.219 26.3906 321.877 26.3906 325.156V394.668C26.3906 397.947 29.0486 400.605 32.3274 400.605C35.6063 400.605 38.2643 397.947 38.2643 394.668Z" fill="url(#paint17_linear_586_8373)"/>
<path d="M67.6666 349.086V279.574C67.6666 276.295 65.0086 273.637 61.7298 273.637C58.451 273.637 55.793 276.295 55.793 279.574V349.086C55.793 352.365 58.451 355.023 61.7298 355.023C65.0086 355.023 67.6666 352.365 67.6666 349.086Z" fill="url(#paint18_linear_586_8373)"/>
<path d="M104.795 433.036V398.266C104.795 396.628 103.468 395.301 101.83 395.301C100.193 395.301 98.8652 396.628 98.8652 398.266V433.036C98.8652 434.673 100.193 436.001 101.83 436.001C103.468 436.001 104.795 434.673 104.795 433.036Z" fill="url(#paint19_linear_586_8373)"/>
<path d="M5.92997 259.422V224.652C5.92997 223.015 4.6025 221.688 2.96498 221.688C1.32747 221.688 0 223.015 0 224.652V259.422C0 261.06 1.32747 262.387 2.96498 262.387C4.6025 262.387 5.92997 261.06 5.92997 259.422Z" fill="url(#paint20_linear_586_8373)"/>
<path d="M35.2913 171.219V136.449C35.2913 134.812 33.9638 133.484 32.3263 133.484C30.6888 133.484 29.3613 134.812 29.3613 136.449V171.219C29.3613 172.857 30.6888 174.184 32.3263 174.184C33.9638 174.184 35.2913 172.857 35.2913 171.219Z" fill="url(#paint21_linear_586_8373)"/>
<path d="M63.3811 50.5395V15.7697C63.3811 14.1322 62.0537 12.8047 60.4162 12.8047C58.7786 12.8047 57.4512 14.1322 57.4512 15.7697V50.5396C57.4512 52.1771 58.7786 53.5045 60.4162 53.5045C62.0537 53.5045 63.3811 52.1771 63.3811 50.5395Z" fill="url(#paint22_linear_586_8373)"/>
<path d="M179.309 7.19922H350.621C359.618 7.19922 366.918 14.4666 366.918 23.4246V197.323C366.918 206.281 359.618 213.548 350.621 213.548H179.309C170.311 213.548 163.012 206.281 163.012 197.323V23.4383C163.012 14.4802 170.311 7.21285 179.309 7.21285V7.19922Z" stroke="url(#paint23_linear_586_8373)" stroke-width="0.82" stroke-miterlimit="10"/>
<path d="M264.958 9.13565C263.26 9.13565 261.877 7.75854 261.877 6.06783C261.877 4.37711 263.26 3 264.958 3C266.657 3 268.04 4.37711 268.04 6.06783C268.04 7.75854 266.657 9.13565 264.958 9.13565Z" fill="url(#paint24_linear_586_8373)"/>
<path d="M161.863 38.0536C160.164 38.0536 158.781 36.6765 158.781 34.9858C158.781 33.2951 160.164 31.918 161.863 31.918C163.561 31.918 164.944 33.2951 164.944 34.9858C164.944 36.6765 163.561 38.0536 161.863 38.0536Z" fill="url(#paint25_linear_586_8373)"/>
<path d="M366.919 36.2138C365.221 36.2138 363.838 34.8367 363.838 33.146C363.838 31.4552 365.221 30.0781 366.919 30.0781C368.617 30.0781 370.001 31.4552 370.001 33.146C370.001 34.8367 368.617 36.2138 366.919 36.2138Z" fill="url(#paint26_linear_586_8373)"/>
<path d="M366.919 193.694C365.221 193.694 363.838 192.317 363.838 190.626C363.838 188.936 365.221 187.559 366.919 187.559C368.617 187.559 370.001 188.936 370.001 190.626C370.001 192.317 368.617 193.694 366.919 193.694Z" fill="url(#paint27_linear_586_8373)"/>
<path d="M162.999 193.694C161.301 193.694 159.918 192.317 159.918 190.626C159.918 188.936 161.301 187.559 162.999 187.559C164.698 187.559 166.081 188.936 166.081 190.626C166.081 192.317 164.698 193.694 162.999 193.694Z" fill="url(#paint28_linear_586_8373)"/>
<path d="M340.5 47.1648H194.552C191.06 47.1648 188.197 44.3151 188.197 40.8383C188.197 37.3614 191.06 34.5117 194.552 34.5117H340.5C343.993 34.5117 346.855 37.3614 346.855 40.8383C346.855 44.3151 343.993 47.1648 340.5 47.1648Z" fill="white"/>
<path d="M341.022 67.4226H195.073C191.581 67.4226 188.719 64.5729 188.719 61.0961C188.719 57.6192 191.581 54.7695 195.073 54.7695H341.022C344.514 54.7695 347.376 57.6192 347.376 61.0961C347.376 64.5729 344.514 67.4226 341.022 67.4226Z" fill="white"/>
</g>
<defs>
<linearGradient id="paint0_linear_586_8373" x1="264.972" y1="16.1836" x2="264.972" y2="204.575" gradientUnits="userSpaceOnUse">
<stop stop-color="#4F80EF"/>
<stop offset="1" stop-color="#254EB1"/>
</linearGradient>
<linearGradient id="paint1_linear_586_8373" x1="176.814" y1="102.702" x2="103.682" y2="101.094" gradientUnits="userSpaceOnUse">
<stop stop-color="white"/>
<stop offset="0.22" stop-color="#C4D5F4"/>
<stop offset="0.48" stop-color="#8EAFEC"/>
<stop offset="0.71" stop-color="#538AEE"/>
<stop offset="0.89" stop-color="#4B80E1"/>
<stop offset="1" stop-color="#437FEC"/>
</linearGradient>
<linearGradient id="paint2_linear_586_8373" x1="193.274" y1="206.841" x2="280.26" y2="210.873" gradientUnits="userSpaceOnUse">
<stop stop-color="white"/>
<stop offset="0.22" stop-color="#C4D5F4"/>
<stop offset="0.48" stop-color="#8EAFEC"/>
<stop offset="0.71" stop-color="#538AEE"/>
<stop offset="0.89" stop-color="#4B80E1"/>
<stop offset="1" stop-color="#437FEC"/>
</linearGradient>
<linearGradient id="paint3_linear_586_8373" x1="177.831" y1="232.148" x2="88.3614" y2="230.305" gradientUnits="userSpaceOnUse">
<stop stop-color="white"/>
<stop offset="0.22" stop-color="#C4D5F4"/>
<stop offset="0.48" stop-color="#8EAFEC"/>
<stop offset="0.71" stop-color="#538AEE"/>
<stop offset="0.89" stop-color="#4B80E1"/>
<stop offset="1" stop-color="#437FEC"/>
</linearGradient>
<linearGradient id="paint4_linear_586_8373" x1="139.821" y1="229.207" x2="52.8439" y2="225.175" gradientUnits="userSpaceOnUse">
<stop stop-color="white"/>
<stop offset="0.22" stop-color="#C4D5F4"/>
<stop offset="0.48" stop-color="#8EAFEC"/>
<stop offset="0.71" stop-color="#538AEE"/>
<stop offset="0.89" stop-color="#4B80E1"/>
<stop offset="1" stop-color="#437FEC"/>
</linearGradient>
<linearGradient id="paint5_linear_586_8373" x1="185.795" y1="229.166" x2="153.034" y2="228.446" gradientUnits="userSpaceOnUse">
<stop stop-color="white"/>
<stop offset="0.22" stop-color="#C4D5F4"/>
<stop offset="0.48" stop-color="#8EAFEC"/>
<stop offset="0.71" stop-color="#538AEE"/>
<stop offset="0.89" stop-color="#4B80E1"/>
<stop offset="1" stop-color="#437FEC"/>
</linearGradient>
<linearGradient id="paint6_linear_586_8373" x1="309.659" y1="193.406" x2="290.809" y2="220.094" gradientUnits="userSpaceOnUse">
<stop stop-color="white"/>
<stop offset="0.22" stop-color="#C4D5F4"/>
<stop offset="0.48" stop-color="#8EAFEC"/>
<stop offset="0.71" stop-color="#538AEE"/>
<stop offset="0.89" stop-color="#4B80E1"/>
<stop offset="1" stop-color="#437FEC"/>
</linearGradient>
<linearGradient id="paint7_linear_586_8373" x1="140.525" y1="319.219" x2="140.525" y2="326.254" gradientUnits="userSpaceOnUse">
<stop stop-color="#4F80EF"/>
<stop offset="1" stop-color="#254EB1"/>
</linearGradient>
<linearGradient id="paint8_linear_586_8373" x1="141.921" y1="333.305" x2="141.921" y2="338.731" gradientUnits="userSpaceOnUse">
<stop stop-color="#4F80EF"/>
<stop offset="1" stop-color="#254EB1"/>
</linearGradient>
<linearGradient id="paint9_linear_586_8373" x1="140.525" y1="351.711" x2="140.525" y2="364.609" gradientUnits="userSpaceOnUse">
<stop stop-color="#4F80EF"/>
<stop offset="1" stop-color="#254EB1"/>
</linearGradient>
<linearGradient id="paint10_linear_586_8373" x1="55.2598" y1="108.586" x2="68.2016" y2="108.586" gradientUnits="userSpaceOnUse">
<stop offset="0.52" stop-color="#A8FFFF"/>
<stop offset="1" stop-color="#A2F7FF"/>
</linearGradient>
<linearGradient id="paint11_linear_586_8373" x1="211.836" y1="106.652" x2="224.778" y2="106.652" gradientUnits="userSpaceOnUse">
<stop offset="0.52" stop-color="#A8FFFF"/>
<stop offset="1" stop-color="#A2F7FF"/>
</linearGradient>
<linearGradient id="paint12_linear_586_8373" x1="61.7239" y1="102.137" x2="61.7239" y2="115.035" gradientUnits="userSpaceOnUse">
<stop stop-color="#4F80EF"/>
<stop offset="1" stop-color="#254EB1"/>
</linearGradient>
<linearGradient id="paint13_linear_586_8373" x1="218.327" y1="258.91" x2="218.327" y2="305.35" gradientUnits="userSpaceOnUse">
<stop stop-color="#4F80EF"/>
<stop offset="1" stop-color="#254EB1"/>
</linearGradient>
<linearGradient id="paint14_linear_586_8373" x1="242.293" y1="290.816" x2="242.293" y2="318.059" gradientUnits="userSpaceOnUse">
<stop stop-color="#4F80EF"/>
<stop offset="1" stop-color="#254EB1"/>
</linearGradient>
<linearGradient id="paint15_linear_586_8373" x1="308.981" y1="295.07" x2="308.981" y2="323.117" gradientUnits="userSpaceOnUse">
<stop stop-color="#4F80EF"/>
<stop offset="1" stop-color="#254EB1"/>
</linearGradient>
<linearGradient id="paint16_linear_586_8373" x1="323.463" y1="314.336" x2="323.463" y2="330.779" gradientUnits="userSpaceOnUse">
<stop stop-color="#4F80EF"/>
<stop offset="1" stop-color="#254EB1"/>
</linearGradient>
<linearGradient id="paint17_linear_586_8373" x1="32.3274" y1="319.219" x2="32.3274" y2="400.605" gradientUnits="userSpaceOnUse">
<stop stop-color="#4F80EF"/>
<stop offset="1" stop-color="#254EB1"/>
</linearGradient>
<linearGradient id="paint18_linear_586_8373" x1="61.7298" y1="273.637" x2="61.7298" y2="355.023" gradientUnits="userSpaceOnUse">
<stop stop-color="#4F80EF"/>
<stop offset="1" stop-color="#254EB1"/>
</linearGradient>
<linearGradient id="paint19_linear_586_8373" x1="101.83" y1="395.301" x2="101.83" y2="436.001" gradientUnits="userSpaceOnUse">
<stop stop-color="#4F80EF"/>
<stop offset="1" stop-color="#254EB1"/>
</linearGradient>
<linearGradient id="paint20_linear_586_8373" x1="2.96498" y1="221.688" x2="2.96498" y2="262.387" gradientUnits="userSpaceOnUse">
<stop stop-color="#4F80EF"/>
<stop offset="1" stop-color="#254EB1"/>
</linearGradient>
<linearGradient id="paint21_linear_586_8373" x1="32.3263" y1="133.484" x2="32.3263" y2="174.184" gradientUnits="userSpaceOnUse">
<stop stop-color="#4F80EF"/>
<stop offset="1" stop-color="#254EB1"/>
</linearGradient>
<linearGradient id="paint22_linear_586_8373" x1="60.4162" y1="12.8047" x2="60.4162" y2="53.5045" gradientUnits="userSpaceOnUse">
<stop stop-color="#4F80EF"/>
<stop offset="1" stop-color="#254EB1"/>
</linearGradient>
<linearGradient id="paint23_linear_586_8373" x1="264.965" y1="7.19922" x2="264.965" y2="213.548" gradientUnits="userSpaceOnUse">
<stop stop-color="#0575E6"/>
<stop offset="1" stop-color="#021B79"/>
</linearGradient>
<linearGradient id="paint24_linear_586_8373" x1="264.958" y1="3" x2="264.958" y2="9.13565" gradientUnits="userSpaceOnUse">
<stop stop-color="#0575E6"/>
<stop offset="1" stop-color="#021B79"/>
</linearGradient>
<linearGradient id="paint25_linear_586_8373" x1="161.863" y1="31.918" x2="161.863" y2="38.0536" gradientUnits="userSpaceOnUse">
<stop stop-color="#0575E6"/>
<stop offset="1" stop-color="#021B79"/>
</linearGradient>
<linearGradient id="paint26_linear_586_8373" x1="366.919" y1="30.0781" x2="366.919" y2="36.2138" gradientUnits="userSpaceOnUse">
<stop stop-color="#0575E6"/>
<stop offset="1" stop-color="#021B79"/>
</linearGradient>
<linearGradient id="paint27_linear_586_8373" x1="366.919" y1="187.559" x2="366.919" y2="193.694" gradientUnits="userSpaceOnUse">
<stop stop-color="#0575E6"/>
<stop offset="1" stop-color="#021B79"/>
</linearGradient>
<linearGradient id="paint28_linear_586_8373" x1="162.999" y1="187.559" x2="162.999" y2="193.694" gradientUnits="userSpaceOnUse">
<stop stop-color="#0575E6"/>
<stop offset="1" stop-color="#021B79"/>
</linearGradient>
<clipPath id="clip0_586_8373">
<rect width="370" height="433" fill="white" transform="translate(0 3)"/>
</clipPath>
</defs>
</svg>
